<svg width="1200" height="800" viewBox="0 0 1200 800" fill="none" xmlns="http://www.w3.org/2000/svg">
<path fill-rule="evenodd" clip-rule="evenodd" d="M693.562 502.694C648.267 536.081 582.614 553.894 526.087 553.894C446.828 553.894 375.474 524.578 321.492 475.822C317.252 471.987 321.051 466.763 326.141 469.749C384.397 503.644 456.43 524.036 530.837 524.036C581.019 524.036 636.222 513.653 686.98 492.108C694.648 488.851 701.061 497.13 693.562 502.694" fill="#FF9900"/>
<path fill-rule="evenodd" clip-rule="evenodd" d="M712.394 481.149C706.626 473.752 674.121 477.654 659.531 479.384C655.086 479.928 654.408 476.059 658.412 473.277C684.3 455.057 726.78 460.316 731.733 466.424C736.687 472.565 730.444 515.146 706.116 535.47C702.384 538.592 698.821 536.929 700.484 532.789C705.947 519.15 718.195 488.58 712.394 481.149" fill="#FF9900"/>
<path fill-rule="evenodd" clip-rule="evenodd" d="M660.549 344.651V326.94C660.549 324.259 662.585 322.461 665.028 322.461H744.321C746.866 322.461 748.902 324.293 748.902 326.94V342.106C748.867 344.651 746.73 347.976 742.93 353.235L701.842 411.899C717.11 411.526 733.226 413.799 747.069 421.603C750.191 423.367 751.039 425.946 751.277 428.49V447.389C751.277 449.967 748.426 452.987 745.441 451.427C721.045 438.636 688.643 437.244 661.669 451.562C658.921 453.056 656.037 450.07 656.037 447.491V429.542C656.037 426.658 656.07 421.738 658.954 417.362L706.557 349.096H665.129C662.585 349.096 660.549 347.298 660.549 344.651V344.651ZM371.301 455.159H347.177C344.869 454.99 343.038 453.259 342.868 451.053V327.245C342.868 324.768 344.937 322.8 347.516 322.8H370.011C372.352 322.901 374.218 324.7 374.388 326.939V343.124H374.83C380.699 327.483 391.726 320.189 406.587 320.189C421.685 320.189 431.118 327.483 437.904 343.124C443.74 327.483 457.007 320.189 471.223 320.189C481.334 320.189 492.395 324.362 499.147 333.726C506.781 344.142 505.22 359.275 505.22 372.541L505.186 450.681C505.186 453.158 503.116 455.159 500.538 455.159H476.448C474.039 454.99 472.105 453.056 472.105 450.681V385.061C472.105 379.835 472.58 366.806 471.427 361.853C469.628 353.54 464.234 351.199 457.244 351.199C451.408 351.199 445.301 355.101 442.824 361.344C440.347 367.588 440.585 378.037 440.585 385.061V450.68C440.585 453.157 438.515 455.159 435.936 455.159H411.846C409.403 454.99 407.503 453.056 407.503 450.68L407.47 385.061C407.47 371.251 409.742 350.928 392.608 350.928C375.271 350.928 375.949 370.742 375.949 385.061V450.68C375.949 453.157 373.879 455.159 371.301 455.159V455.159ZM817.168 320.188C852.963 320.188 872.337 350.928 872.337 390.014C872.337 427.778 850.928 457.738 817.167 457.738C782.016 457.738 762.881 426.997 762.881 388.691C762.881 350.147 782.254 320.188 817.168 320.188V320.188ZM817.371 345.465C799.592 345.465 798.472 369.691 798.472 384.789C798.472 399.922 798.235 432.222 817.168 432.222C835.863 432.222 836.745 406.165 836.745 390.286C836.745 379.835 836.304 367.349 833.148 357.442C830.434 348.824 825.039 345.465 817.372 345.465H817.371ZM918.753 455.159H894.73C892.322 454.99 890.387 453.056 890.387 450.68L890.354 326.837C890.556 324.565 892.56 322.8 895.002 322.8H917.361C919.465 322.901 921.195 324.328 921.67 326.261V345.194H922.111C928.864 328.263 938.33 320.188 954.989 320.188C965.813 320.188 976.365 324.089 983.151 334.777C989.461 344.684 989.461 361.344 989.461 373.321V451.257C989.19 453.428 987.189 455.159 984.814 455.159H960.621C958.415 454.99 956.584 453.36 956.346 451.257V384.009C956.346 370.471 957.907 350.655 941.248 350.655C935.379 350.655 929.983 354.592 927.303 360.563C923.91 368.13 923.468 375.662 923.468 384.009V450.68C923.435 453.157 921.331 455.159 918.753 455.159V455.159ZM597.339 396.02C597.339 405.418 597.576 413.256 592.825 421.602C588.992 428.389 582.885 432.561 576.133 432.561C566.87 432.561 561.441 425.505 561.441 415.088C561.441 394.527 579.865 390.795 597.339 390.795V396.02V396.02ZM621.666 454.82C620.072 456.244 617.764 456.347 615.966 455.396C607.959 448.746 606.5 445.659 602.123 439.314C588.89 452.818 579.492 456.856 562.357 456.856C542.033 456.856 526.256 444.335 526.256 419.262C526.256 399.684 536.842 386.35 551.975 379.835C565.072 374.067 583.36 373.049 597.339 371.455V368.334C597.339 362.599 597.78 355.813 594.387 350.86C591.469 346.415 585.836 344.583 580.849 344.583C571.654 344.583 563.477 349.298 561.476 359.071C561.068 361.242 559.473 363.379 557.268 363.482L533.89 360.971C531.923 360.53 529.717 358.935 530.294 355.915C535.655 327.551 561.306 319 584.243 319C595.982 319 611.318 322.122 620.581 331.012C632.32 341.971 631.201 356.593 631.201 372.507V410.1C631.201 421.399 635.884 426.352 640.294 432.46C641.822 434.632 642.16 437.244 640.193 438.873C635.273 442.978 626.518 450.612 621.701 454.887L621.667 454.82H621.666ZM281.082 396.02C281.082 405.418 281.32 413.256 276.569 421.602C272.736 428.389 266.662 432.561 259.876 432.561C250.614 432.561 245.218 425.505 245.218 415.088C245.218 394.527 263.643 390.795 281.082 390.795V396.02ZM305.409 454.82C303.815 456.244 301.508 456.347 299.71 455.396C291.702 448.746 290.277 445.659 285.867 439.314C272.634 452.818 263.27 456.856 246.101 456.856C225.811 456.856 210 444.335 210 419.262C210 399.684 220.62 386.35 235.718 379.835C248.816 374.067 267.103 373.049 281.082 371.455V368.334C281.082 362.599 281.523 355.813 278.164 350.86C275.212 346.415 269.58 344.583 264.626 344.583C255.432 344.583 247.221 349.298 245.218 359.071C244.812 361.242 243.217 363.379 241.045 363.482L217.634 360.971C215.666 360.53 213.495 358.935 214.038 355.915C219.432 327.551 245.049 319 267.986 319C279.724 319 295.061 322.122 304.324 331.012C316.063 341.971 314.944 356.593 314.944 372.507V410.1C314.944 421.399 319.626 426.352 324.037 432.46C325.598 434.632 325.937 437.244 323.969 438.873C319.049 442.978 310.296 450.612 305.478 454.887L305.41 454.82" fill="black"/>
</svg>
