<svg width="1200" height="800" viewBox="0 0 1200 800" fill="none" xmlns="http://www.w3.org/2000/svg">
<path d="M196.477 450.903H161.694V364.195H138V335.965H161.694V315.877C161.694 292.072 172.173 275 206.862 275C214.198 275 225.716 276.479 225.716 276.479V302.692H213.618C201.292 302.692 196.479 306.442 196.479 316.808V335.965H225.255L222.692 364.195H196.478L196.477 450.903ZM276.286 333.709C275.779 333.709 275.258 333.727 274.742 333.74C242.49 333.74 227.733 358 227.733 392.438C227.733 435.821 246.874 453.184 274.994 453.184C291.082 453.184 301.652 446.413 308.077 433.776V450.915H341.16V335.977H308.077V353.653C302.831 342.28 291.966 333.843 276.286 333.709ZM284.698 360.868C298.244 360.868 306.375 370.317 306.375 386.389L306.406 402.804C306.406 413.636 299.691 426.309 284.698 426.309C261.649 426.309 262.265 401.421 262.265 393.132C262.265 365.248 274.545 360.868 284.698 360.868ZM354.521 393.452C354.521 379.485 353.852 333.783 413.394 333.783C437.296 333.783 447.276 341.383 447.276 341.383L439.254 366.263C439.254 366.263 429.287 360.774 416.299 360.774C399.665 360.774 389.05 370.418 389.05 387.385L389.069 399.551C389.069 415.854 399.31 426.737 416.334 426.737C428.166 426.737 439.071 421.197 439.071 421.197L447.072 445.557C447.072 445.557 437.946 453.205 413.562 453.205C356.868 453.205 354.521 412.202 354.521 393.452ZM641.254 333.74C673.507 333.74 688.496 358 688.496 392.438C688.496 435.821 669.354 453.184 641.235 453.184C625.146 453.184 613.254 446.414 606.829 433.776V450.915L574.162 450.902V278.495L608.846 275.47V352.095C613.852 338.69 630.302 333.74 641.254 333.74ZM631.53 360.868C617.984 360.868 608.846 370.317 608.846 386.389L608.814 402.804C608.793 413.636 615.142 426.309 631.53 426.309C654.58 426.309 653.964 401.421 653.964 393.132C653.964 365.248 641.684 360.868 631.53 360.868ZM507.455 333.835C470.874 333.835 451.561 353.78 451.561 389.224V395.81C451.561 441.813 478.682 453.657 511.015 453.657C542.443 453.657 556.669 444.866 556.669 444.866L550.179 421.457C550.179 421.457 533.445 428.577 515.174 428.577C496.232 428.577 488.086 423.749 485.998 405.546H559.442V386.766C559.442 348.318 537.767 333.834 507.454 333.834L507.455 333.835ZM508.337 357.276C520.999 357.276 529.205 365.041 528.754 383.049H486.062C486.802 364.095 495.651 357.276 508.337 357.276ZM757.654 333.677C720.088 333.677 700.311 354.847 700.311 392.785C700.311 444.837 734.402 453.216 757.717 453.216C791.849 453.216 814.556 434.84 814.556 393.257C814.556 349.977 789.024 333.677 757.654 333.677ZM757.182 360.962C773.7 360.962 780.246 373.325 780.246 387.398V399.496C780.246 416.544 771.087 426.404 757.119 426.404C744.055 426.404 734.874 417.181 734.874 399.496V387.398C734.874 368.537 745.799 360.962 757.182 360.962ZM883.652 333.677C846.086 333.677 826.309 354.847 826.309 392.785C826.309 444.837 860.4 453.216 883.715 453.216C917.846 453.216 940.555 434.84 940.555 393.257C940.555 349.977 915.021 333.677 883.652 333.677ZM883.18 360.962C899.698 360.962 906.243 373.325 906.243 387.398V399.496C906.243 416.544 897.084 426.404 883.117 426.404C870.054 426.404 860.873 417.181 860.873 399.496V387.398C860.873 368.537 871.797 360.962 883.18 360.962ZM953.661 450.903V278.495L988.445 275.471V391.03L1022.96 335.966H1059.69L1023.69 392.996L1061.08 450.903H1024.24L988.445 394.675V450.903H953.661Z" fill="#1877F2"/>
</svg>
