<svg width="1200" height="800" viewBox="0 0 1200 800" fill="none" xmlns="http://www.w3.org/2000/svg">
<path d="M543.362 407.16C543.362 444.384 514.241 471.814 478.503 471.814C442.765 471.814 413.645 444.384 413.645 407.16C413.645 369.673 442.765 342.505 478.503 342.505C514.241 342.505 543.362 369.673 543.362 407.16ZM514.97 407.16C514.97 383.898 498.092 367.982 478.503 367.982C458.914 367.982 442.037 383.898 442.037 407.16C442.037 430.188 458.914 446.337 478.503 446.337C498.092 446.337 514.97 430.159 514.97 407.16Z" fill="#EA4335"/>
<path d="M683.282 407.16C683.282 444.384 654.161 471.814 618.423 471.814C582.685 471.814 553.564 444.384 553.564 407.16C553.564 369.702 582.685 342.505 618.423 342.505C654.161 342.505 683.282 369.673 683.282 407.16ZM654.89 407.16C654.89 383.898 638.012 367.982 618.423 367.982C598.834 367.982 581.957 383.898 581.957 407.16C581.957 430.188 598.834 446.337 618.423 446.337C638.012 446.337 654.89 430.159 654.89 407.16Z" fill="#FBBC05"/>
<path d="M817.372 346.411V462.486C817.372 510.234 789.213 529.735 755.923 529.735C724.587 529.735 705.727 508.776 698.614 491.636L723.334 481.346C727.735 491.869 738.521 504.287 755.894 504.287C777.203 504.287 790.408 491.141 790.408 466.392V457.093H789.417C783.062 464.935 770.819 471.785 755.37 471.785C723.042 471.785 693.426 443.626 693.426 407.393C693.426 370.897 723.042 342.505 755.37 342.505C770.79 342.505 783.033 349.355 789.417 356.963H790.408V346.44H817.372V346.411ZM792.419 407.393C792.419 384.627 777.232 367.982 757.906 367.982C738.317 367.982 721.905 384.627 721.905 407.393C721.905 429.926 738.317 446.337 757.906 446.337C777.232 446.337 792.419 429.926 792.419 407.393Z" fill="#4285F4"/>
<path d="M861.825 278.375V467.85H834.133V278.375H861.825Z" fill="#34A853"/>
<path d="M969.738 428.439L991.775 443.131C984.663 453.654 967.523 471.785 937.906 471.785C901.177 471.785 873.747 443.393 873.747 407.131C873.747 368.682 901.41 342.476 934.729 342.476C968.28 342.476 984.692 369.177 990.056 383.606L993 390.952L906.57 426.748C913.187 439.72 923.477 446.337 937.906 446.337C952.365 446.337 962.392 439.225 969.738 428.439ZM901.906 405.177L959.681 381.187C956.504 373.112 946.943 367.487 935.691 367.487C921.262 367.487 901.177 380.225 901.906 405.177V405.177Z" fill="#EA4335"/>
<path d="M308.821 390.34V362.91H401.256C402.159 367.691 402.626 373.346 402.626 379.467C402.626 400.047 397 425.495 378.868 443.626C361.233 461.991 338.7 471.785 308.85 471.785C253.523 471.785 207 426.719 207 371.393C207 316.066 253.523 271 308.85 271C339.458 271 361.262 283.01 377.644 298.663L358.288 318.019C346.541 307 330.625 298.43 308.821 298.43C268.419 298.43 236.82 330.991 236.82 371.393C236.82 411.794 268.419 444.355 308.821 444.355C335.027 444.355 349.952 433.832 359.513 424.271C367.267 416.517 372.368 405.44 374.379 390.311L308.821 390.34Z" fill="#4285F4"/>
</svg>
