<svg width="700" height="550" viewBox="0 0 700 550" fill="none" xmlns="http://www.w3.org/2000/svg">
<path d="M403.03 137.796C402.781 138.247 402.532 138.714 402.252 139.165C402.128 139.399 401.972 139.632 401.863 139.85C401.785 140.053 401.707 140.286 401.645 140.504C401.365 141.422 401.116 142.418 400.882 143.383L399.45 149.251C398.999 151.212 398.563 153.174 398.159 155.135C397.91 156.442 397.661 157.734 397.505 159.104L445.631 112.285C441.327 103.055 438.496 93.208 437.241 83.1016C429.77 86.6503 420.214 91.0551 407.311 96.4093C385.878 105.297 380.119 151.306 380.119 151.306C380.119 151.306 390.003 153.485 395.575 151.866C395.666 150.737 395.827 149.614 396.057 148.504C396.479 146.393 397.137 144.336 398.019 142.372C398.465 141.365 399.001 140.402 399.622 139.492C399.777 139.259 399.964 139.025 400.166 138.776L400.587 138.138C400.882 137.718 401.147 137.282 401.412 136.846C403.591 133.344 405.661 129.718 407.7 126.107L413.848 115.227C412.167 119.04 410.439 122.833 408.665 126.605C406.859 130.356 405.054 134.107 403.03 137.796ZM383.217 150.87C382.612 150.848 382.039 150.593 381.619 150.158C381.198 149.722 380.963 149.14 380.963 148.535C380.963 147.93 381.198 147.349 381.619 146.913C382.039 146.478 382.612 146.222 383.217 146.201C383.821 146.222 384.394 146.478 384.814 146.913C385.235 147.349 385.47 147.93 385.47 148.535C385.47 149.14 385.235 149.722 384.814 150.158C384.394 150.593 383.821 150.848 383.217 150.87V150.87ZM390.874 150.87C390.269 150.848 389.697 150.593 389.276 150.158C388.856 149.722 388.621 149.14 388.621 148.535C388.621 147.93 388.856 147.349 389.276 146.913C389.697 146.478 390.269 146.222 390.874 146.201C391.479 146.222 392.052 146.478 392.472 146.913C392.892 147.349 393.127 147.93 393.127 148.535C393.127 149.14 392.892 149.722 392.472 150.158C392.052 150.593 391.479 150.848 390.874 150.87V150.87Z" fill="#020202"/>
<path d="M397.376 161.232C399.968 162.364 402.722 163.085 405.536 163.368C406.885 163.484 408.243 163.433 409.58 163.217C410.965 163.048 412.312 162.617 413.843 162.278C412.83 163.477 411.532 164.404 410.069 164.972C408.579 165.588 406.963 165.836 405.357 165.695C403.762 165.574 402.212 165.11 400.813 164.334C399.427 163.602 398.246 162.536 397.376 161.232V161.232Z" fill="black"/>
<path d="M259.789 235.651C259.54 233.517 259.416 231.371 259.415 229.223L259.789 235.651Z" fill="black"/>
<path d="M259.897 237.55L259.788 235.651C260.181 239.907 261.453 244.036 263.524 247.776C259.586 242.001 259.897 237.55 259.897 237.55Z" fill="black"/>
<path d="M263.664 247.993C264.162 248.725 264.738 249.472 265.376 250.235C264.733 249.546 264.159 248.795 263.664 247.993Z" fill="black"/>
<path d="M591.892 276.492L16 272.586V263.169C63.9235 263.932 111.847 264.507 159.771 264.897C207.694 265.426 255.618 265.597 303.541 265.877C351.465 266.22 399.404 266.235 447.327 266.329L519.22 266.406L590.553 266.251L591.892 276.492Z" fill="black"/>
<path d="M683.63 209.844V219.51L591.891 276.492L591.721 266.049L614.663 252.102L637.667 238.047L683.63 209.844Z" fill="black"/>
<path d="M376.121 235.941L379.234 235.997" stroke="#020202" stroke-width="3.11292" stroke-miterlimit="10"/>
<path d="M385.637 236.113L459.273 237.44" stroke="#020202" stroke-width="3.11292" stroke-miterlimit="10" stroke-dasharray="6.4 6.4"/>
<path d="M462.474 237.497L465.586 237.554" stroke="#020202" stroke-width="3.11292" stroke-miterlimit="10"/>
<path d="M379.525 230.372L382.638 230.428" stroke="#020202" stroke-width="3.11292" stroke-miterlimit="10"/>
<path d="M389.041 230.543L462.677 231.871" stroke="#020202" stroke-width="3.11292" stroke-miterlimit="10" stroke-dasharray="6.4 6.4"/>
<path d="M465.878 231.928L468.99 231.984" stroke="#020202" stroke-width="3.11292" stroke-miterlimit="10"/>
<path d="M383.636 224.871L386.748 224.927" stroke="#020202" stroke-width="3.11292" stroke-miterlimit="10"/>
<path d="M393.15 225.043L466.787 226.37" stroke="#020202" stroke-width="3.11292" stroke-miterlimit="10" stroke-dasharray="6.4 6.4"/>
<path d="M469.988 226.428L473.1 226.484" stroke="#020202" stroke-width="3.11292" stroke-miterlimit="10"/>
<path d="M118.481 218.786C119.281 241.363 119.811 263.94 120.485 286.518L121.989 354.25C122.263 365.538 122.581 376.827 122.94 388.116C123.26 399.404 123.276 410.693 122.991 421.982L122.402 438.915C122.104 444.559 121.905 450.203 121.504 455.848C120.808 467.136 119.917 478.425 118.481 489.713C118.466 489.835 118.406 489.948 118.314 490.029C118.222 490.11 118.103 490.155 117.98 490.155C117.857 490.155 117.738 490.11 117.646 490.029C117.554 489.948 117.495 489.835 117.479 489.713C116.043 478.425 115.153 467.136 114.456 455.848C114.055 450.203 113.856 444.559 113.558 438.915L112.969 421.982C112.679 410.693 112.696 399.404 113.02 388.116C113.391 376.827 113.708 365.538 113.971 354.25L115.475 286.518C116.15 263.941 116.679 241.363 117.479 218.786C117.484 218.656 117.539 218.533 117.632 218.443C117.726 218.353 117.85 218.303 117.98 218.303C118.11 218.303 118.234 218.353 118.328 218.443C118.421 218.533 118.476 218.656 118.481 218.786H118.481Z" fill="#020202"/>
<path d="M28.8278 276.318C29.628 298.895 30.1573 321.473 30.8319 344.05L32.3354 411.782C32.6102 423.071 32.9275 434.359 33.2872 445.648C33.6068 456.937 33.6235 468.225 33.3374 479.514L32.7488 496.447C32.4511 502.091 32.2521 507.735 31.8512 513.38C31.1542 524.668 30.2641 535.957 28.8278 547.246C28.8124 547.368 28.753 547.48 28.6607 547.561C28.5685 547.643 28.4497 547.687 28.3267 547.687C28.2038 547.687 28.085 547.643 27.9928 547.561C27.9005 547.48 27.8411 547.368 27.8257 547.246C26.3898 535.957 25.4993 524.668 24.8027 513.38C24.4014 507.735 24.2023 502.091 23.9047 496.447L23.3161 479.514C23.0259 468.225 23.0427 456.937 23.3664 445.648C23.7378 434.359 24.0551 423.071 24.3181 411.782L25.8216 344.05C26.4961 321.473 27.0255 298.895 27.8257 276.318C27.8303 276.188 27.8851 276.065 27.9785 275.975C28.072 275.885 28.1968 275.835 28.3267 275.835C28.4566 275.835 28.5814 275.885 28.6749 275.975C28.7683 276.065 28.8231 276.188 28.8277 276.318H28.8278Z" fill="#020202"/>
<path d="M671.961 218.786C672.761 241.363 673.29 263.94 673.965 286.518L675.468 354.25C675.743 365.538 676.06 376.827 676.42 388.116C676.739 399.404 676.756 410.693 676.47 421.982L675.882 438.915C675.584 444.559 675.385 450.203 674.984 455.848C674.287 467.136 673.396 478.425 671.961 489.713C671.945 489.835 671.886 489.948 671.793 490.029C671.701 490.11 671.583 490.155 671.46 490.155C671.337 490.155 671.218 490.11 671.126 490.029C671.034 489.948 670.974 489.835 670.959 489.713C669.522 478.425 668.632 467.136 667.935 455.848C667.534 450.203 667.335 444.559 667.038 438.915L666.449 421.982C666.159 410.693 666.175 399.404 666.499 388.116C666.871 376.827 667.188 365.538 667.451 354.25L668.954 286.518C669.629 263.941 670.158 241.363 670.959 218.786C670.963 218.656 671.018 218.533 671.112 218.443C671.205 218.353 671.33 218.303 671.46 218.303C671.589 218.303 671.714 218.353 671.807 218.443C671.901 218.533 671.956 218.656 671.961 218.786H671.961Z" fill="#020202"/>
<path d="M582.307 276.318C583.108 298.896 583.637 321.473 584.311 344.05L585.814 411.782C586.09 423.071 586.407 434.359 586.767 445.648C587.086 456.937 587.103 468.225 586.817 479.514L586.228 496.447C585.931 502.091 585.732 507.736 585.33 513.38C584.634 524.669 583.743 535.957 582.307 547.246C582.292 547.368 582.232 547.48 582.14 547.561C582.048 547.642 581.929 547.687 581.806 547.687C581.683 547.687 581.565 547.642 581.472 547.561C581.38 547.48 581.321 547.368 581.305 547.246C579.869 535.957 578.979 524.669 578.282 513.38C577.881 507.736 577.682 502.091 577.384 496.447L576.796 479.514C576.505 468.225 576.522 456.937 576.846 445.648C577.217 434.359 577.535 423.071 577.798 411.782L579.301 344.05C579.976 321.473 580.505 298.896 581.305 276.318C581.31 276.189 581.365 276.066 581.458 275.976C581.552 275.886 581.677 275.836 581.806 275.836C581.936 275.836 582.061 275.886 582.154 275.976C582.247 276.066 582.302 276.189 582.307 276.318H582.307Z" fill="#020202"/>
<path d="M456.437 70.9727C453.812 70.8882 451.307 69.8524 449.389 68.0581C447.437 66.3808 445.714 64.4547 444.265 62.3289C442.802 60.2478 441.488 58.0663 440.333 55.8006C439.156 53.5438 438.112 51.2208 437.204 48.8432L439.688 49.503C439.262 49.867 438.765 50.1382 438.229 50.2994C437.692 50.4607 437.128 50.5084 436.572 50.4395C435.64 50.296 434.759 49.9233 434.008 49.355C432.701 48.3868 431.669 47.0946 431.014 45.6059C430.329 44.1644 430.016 42.5743 430.104 40.9809C430.196 39.3715 430.753 37.8234 431.708 36.5247C432.633 35.3079 433.819 34.3135 435.179 33.6143C435.884 33.2356 436.655 32.993 437.451 32.8994C438.319 32.8002 439.194 33.0116 439.921 33.496C441.089 34.4894 441.895 35.841 442.214 37.3404C442.578 38.7 442.8 40.0934 442.877 41.4987L442.451 40.9898C444.222 41.356 446.066 41.1007 447.671 40.267C449.311 39.4205 450.79 38.2934 452.041 36.9367C454.547 34.1474 456.681 31.0451 458.39 27.7074C460.161 24.3897 461.765 20.9749 463.253 17.5083C464.742 14.0537 466.117 10.4936 467.28 6.96512C467.398 6.60575 467.627 6.29277 467.933 6.07051C468.239 5.84825 468.608 5.72796 468.986 5.72669C469.364 5.72542 469.734 5.84323 470.041 6.06343C470.349 6.28363 470.58 6.59507 470.701 6.95363L470.725 7.02803C472.359 11.9688 474.164 16.9307 476.143 21.7416C477.177 24.1284 478.257 26.4852 479.472 28.7334C480.543 30.8924 482.039 32.813 483.87 34.3803L484.037 34.501C484.18 34.6049 484.299 34.7381 484.387 34.8917C484.474 35.0453 484.528 35.2158 484.544 35.3918C484.846 38.7537 484.927 42.0854 484.902 45.4417C484.885 47.1232 484.775 48.8025 484.574 50.472C484.436 52.1682 484.017 53.8295 483.334 55.3883C483.315 55.4277 483.282 55.4585 483.241 55.4747C483.2 55.4909 483.155 55.4913 483.114 55.4758C483.073 55.4603 483.039 55.4302 483.019 55.3911C482.999 55.3521 482.994 55.307 483.006 55.2646L483.01 55.2506C483.379 53.666 483.524 52.0377 483.442 50.4128C483.4 48.7768 483.26 47.143 483.126 45.5088C482.83 42.2456 482.334 38.9711 481.8 35.7609L482.474 36.7719C480.064 35.1325 478.065 32.9582 476.633 30.4187C475.207 28.098 473.93 25.6883 472.812 23.2045C470.59 18.3002 468.734 13.2381 467.26 8.05986L470.705 8.12276C469.343 11.8051 467.831 15.3271 466.171 18.8328C464.522 22.3436 462.621 25.7304 460.483 28.9667C458.368 32.2516 455.868 35.2714 453.035 37.9616C451.582 39.3116 449.933 40.4327 448.143 41.2864C446.3 42.1714 444.222 42.441 442.214 42.0553C442.101 42.0319 441.998 41.9725 441.922 41.8859C441.845 41.7993 441.799 41.6903 441.789 41.575L441.787 41.5461C441.703 40.238 441.454 38.9458 441.045 37.7003C440.748 36.5329 440.062 35.5017 439.1 34.7773C437.356 33.8888 434.79 36.0012 433.663 37.8332C433.123 38.8245 432.848 39.938 432.864 41.0665C432.879 42.1949 433.185 43.3004 433.752 44.2763C434.25 45.2598 434.963 46.1183 435.839 46.7878C436.174 47.0436 436.564 47.2168 436.979 47.2934C437.097 47.3168 437.218 47.3147 437.335 47.2871C437.452 47.2596 437.562 47.2073 437.657 47.1337L437.794 47.0382C438.132 46.8031 438.548 46.7115 438.953 46.7837C439.358 46.8558 439.717 47.0857 439.952 47.4228C440.031 47.5376 440.095 47.6623 440.142 47.7936C440.936 50.0451 441.921 52.3228 442.908 54.5458C443.925 56.7659 445.029 58.9443 446.249 61.0445C447.445 63.1434 448.857 65.1113 450.463 66.916C451.988 68.789 454.099 70.094 456.456 70.6204C456.479 70.624 456.501 70.6321 456.521 70.6443C456.54 70.6564 456.558 70.6724 456.571 70.6912C456.585 70.71 456.595 70.7314 456.6 70.7541C456.606 70.7767 456.607 70.8002 456.603 70.8233C456.596 70.8633 456.576 70.8998 456.546 70.9269C456.516 70.954 456.478 70.9702 456.437 70.9727V70.9727Z" fill="#020202"/>
<path d="M447.733 64.8979C447.885 66.1381 448.013 67.3783 448.128 68.6185C448.281 69.9081 448.272 71.212 448.099 72.4993C447.7 75.1661 446.559 77.667 444.806 79.7159C443.919 80.7513 442.89 81.6571 441.751 82.407C441.188 82.7785 440.604 83.1174 440.002 83.4218L438.334 84.2541C436.101 85.3457 433.876 86.4558 431.602 87.4606C427.073 89.5112 422.369 91.1747 417.709 92.9121C415.368 93.7566 413.045 94.6384 410.746 95.5768C408.432 96.3812 406.22 97.4538 404.156 98.7727C400.277 101.7 397.115 105.472 394.911 109.803C392.569 114.063 390.579 118.509 388.964 123.095C385.837 132.374 383.345 141.855 381.506 151.473L380.423 149.939C383.13 150.636 385.879 151.159 388.653 151.506C390.038 151.683 391.434 151.772 392.831 151.77C394.225 151.791 395.613 151.579 396.937 151.143C396.959 151.135 396.982 151.13 397.005 151.131C397.029 151.131 397.052 151.136 397.073 151.145C397.094 151.154 397.114 151.168 397.13 151.184C397.146 151.201 397.159 151.221 397.168 151.243C397.182 151.281 397.183 151.323 397.17 151.361C397.158 151.4 397.133 151.434 397.099 151.457C395.822 152.207 394.41 152.7 392.944 152.908C391.499 153.17 390.034 153.306 388.566 153.316C387.106 153.346 385.645 153.301 384.19 153.178C382.73 153.061 381.302 152.916 379.822 152.661C379.495 152.605 379.201 152.428 378.999 152.165C378.796 151.902 378.7 151.573 378.729 151.242L378.739 151.127C379.212 146.12 380.026 141.152 381.177 136.256C382.3 131.346 383.811 126.533 385.695 121.863C387.51 117.127 389.853 112.611 392.678 108.4C395.536 104.166 399.218 100.551 403.504 97.7707C405.69 96.5274 407.965 95.4497 410.311 94.5466C412.585 93.5612 414.817 92.4785 417.025 91.343C421.458 89.1129 425.806 86.7125 430.286 84.6075C432.517 83.535 434.787 82.5465 437.039 81.5171L438.732 80.7545C439.253 80.5329 439.761 80.2809 440.253 79.9999C441.223 79.4379 442.117 78.7551 442.915 77.9679C444.554 76.3524 445.753 74.3452 446.399 72.1365C446.728 70.99 446.925 69.8097 446.987 68.6185C447.101 67.3783 447.229 66.1382 447.381 64.8979C447.386 64.8549 447.407 64.8152 447.439 64.7865C447.472 64.7577 447.514 64.7418 447.557 64.7418C447.6 64.7418 447.642 64.7577 447.675 64.7865C447.707 64.8152 447.728 64.8549 447.733 64.8979L447.733 64.8979Z" fill="#020202"/>
<path d="M397.375 161.232C398.369 164.702 398.899 168.289 398.951 171.898C399.141 175.497 399.168 179.1 399.035 182.706C398.927 186.31 398.692 189.912 398.272 193.511C397.922 197.17 397.246 200.79 396.252 204.328L394.695 202.267L416.75 201.038L438.813 199.994L460.879 199.044C468.234 198.694 475.591 198.492 482.941 197.845C479.341 198.663 475.684 199.25 472.03 199.768C468.376 200.321 464.711 200.769 461.042 201.173C453.706 201.984 446.357 202.632 439.003 203.174C431.651 203.756 424.288 204.138 416.928 204.553C409.563 204.886 402.203 205.23 394.827 205.405L394.803 205.406C394.597 205.411 394.391 205.375 394.198 205.3C394.006 205.226 393.829 205.114 393.68 204.972C393.53 204.829 393.41 204.658 393.327 204.469C393.243 204.28 393.198 204.077 393.193 203.87C393.189 203.691 393.215 203.514 393.27 203.344C394.285 200.002 395.059 196.592 395.586 193.14C396.16 189.644 396.578 186.108 396.956 182.567C397.297 179.023 397.609 175.468 397.778 171.903C398.031 168.342 397.895 164.764 397.375 161.232V161.232Z" fill="#020202"/>
<path d="M486.737 204.557C480.449 205.624 452.558 205.05 438.129 204.673C438.129 204.673 468.99 178.834 469.087 169.14C469.087 169.14 479.844 196.824 482.94 197.845L486.737 204.557Z" fill="#020202"/>
<path d="M381.73 151.611C381.408 154.371 380.926 157.085 380.391 159.783C379.866 162.485 379.253 165.16 378.608 167.827C377.959 170.492 377.259 173.143 376.509 175.779C375.808 178.429 374.946 181.032 374.167 183.659L374.151 183.712C374.114 183.834 374.061 183.95 373.993 184.057C372.134 186.951 370.238 189.822 368.25 192.639C366.241 195.443 364.192 198.223 361.932 200.876C363.209 197.633 364.697 194.517 366.226 191.425C367.776 188.345 369.418 185.321 371.097 182.319L370.923 182.716C371.675 180.08 372.344 177.421 373.173 174.808C373.949 172.18 374.78 169.567 375.667 166.972C376.553 164.375 377.47 161.788 378.477 159.227C379.472 156.662 380.521 154.113 381.73 151.611Z" fill="#020202"/>
<path d="M396.08 195.887C396.562 196.859 396.83 197.922 396.869 199.006C396.908 200.09 396.715 201.169 396.304 202.173C396.178 202.543 395.976 202.883 395.71 203.169C395.444 203.456 395.121 203.683 394.761 203.836C394.907 203.185 394.976 202.518 394.966 201.85C394.975 201.201 395.024 200.555 395.078 199.9C395.179 198.515 395.518 197.157 396.08 195.887V195.887Z" fill="#020202"/>
<path d="M431.365 204.558C435.385 202.958 439.21 200.907 442.766 198.442C446.268 196.023 449.563 193.318 452.616 190.353C454.126 188.851 455.65 187.362 457.022 185.72C458.529 184.194 459.775 182.448 461.181 180.812C461.905 180.007 462.49 179.102 463.149 178.243L465.122 175.649C466.396 173.884 467.598 172.061 468.992 170.311C468.3 172.409 467.492 174.48 466.616 176.526C465.585 178.483 464.66 180.529 463.435 182.393C461.075 186.212 458.267 189.734 455.069 192.885C451.822 196.018 448.152 198.682 444.168 200.799C440.228 202.976 435.857 204.259 431.365 204.558V204.558Z" fill="#020202"/>
<path d="M413.67 92.7727C415.36 82.8772 417.428 73.0898 419.533 63.3265L422.703 48.7141C423.244 46.2876 423.798 43.868 424.196 41.4549C424.379 40.2642 424.457 39.1422 424.606 37.758C424.778 36.483 425.02 35.2185 425.333 33.9705C426.571 29.0645 428.253 24.2815 430.358 19.6806C431.414 17.3775 432.629 15.1509 433.995 13.0169C435.346 10.8378 436.928 8.81035 438.713 6.96973C442.348 3.03629 447.304 0.580393 452.635 0.0716326C453.973 -0.0301182 455.317 -0.0234571 456.654 0.0915351C457.976 0.242909 459.285 0.488201 460.571 0.825547C463.113 1.49892 465.576 2.44034 467.92 3.63397L466.706 3.47314C469.469 2.90939 472.314 2.86495 475.094 3.34209C477.93 3.80981 480.607 4.9682 482.89 6.71512C484.026 7.60203 485.056 8.61645 485.96 9.73845C486.367 10.321 486.731 10.932 487.113 11.5297C487.519 12.1062 487.854 12.7286 488.113 13.3839C488.712 14.6326 489.175 15.942 489.495 17.2895C489.861 18.597 490.114 19.933 490.253 21.2834C490.352 22.6194 490.575 23.9539 490.561 25.283L490.449 29.2578C490.32 31.8605 490.043 34.3333 489.986 36.8923C489.896 39.4253 489.938 41.9614 490.112 44.4901C490.098 46.9954 490.79 49.4541 492.109 51.5843L492.126 51.6065C492.152 51.6407 492.165 51.6834 492.162 51.7265C492.158 51.7695 492.139 51.8098 492.108 51.8398C492.077 51.8697 492.036 51.887 491.993 51.8885C491.95 51.89 491.907 51.8756 491.874 51.8479C490.903 50.9187 490.175 49.7644 489.755 48.4871C489.33 47.2434 488.988 45.9727 488.732 44.6834C488.253 42.1197 487.952 39.5261 487.829 36.9209C487.658 34.3441 487.66 31.6838 487.647 29.1561L487.505 25.4283C487.427 24.1931 487.177 22.9882 487.027 21.7712C486.849 20.5737 486.567 19.3942 486.183 18.2459C485.854 17.1097 485.421 16.0062 484.889 14.9496C484.67 14.413 484.38 13.9079 484.028 13.4474C483.703 12.9745 483.402 12.4831 483.069 12.021C482.333 11.1677 481.507 10.3975 480.603 9.72436C478.796 8.32616 476.67 7.4003 474.415 7.03047C472.13 6.58624 469.785 6.5453 467.486 6.90951L467.376 6.92809C466.998 6.99294 466.61 6.92977 466.271 6.74861C462.19 4.34979 457.545 3.07768 452.811 3.06228C448.051 3.24916 443.512 5.11668 439.999 8.33325C436.343 11.6435 433.398 15.6627 431.344 20.1466C429.192 24.6179 427.718 29.3848 426.971 34.2903C426.782 35.4939 426.661 36.707 426.607 37.9241C426.587 39.0338 426.611 40.4178 426.523 41.7133C426.31 44.2664 426.021 46.7818 425.607 49.2662C424.82 54.2462 423.674 59.135 422.489 64.0065C420.089 73.7434 417.339 83.3831 414.011 92.8618C413.996 92.9037 413.966 92.9385 413.927 92.9594C413.888 92.9802 413.842 92.9856 413.799 92.9744C413.756 92.9631 413.719 92.9361 413.695 92.8988C413.671 92.8614 413.662 92.8164 413.67 92.7726L413.67 92.7727Z" fill="#020202"/>
<path d="M350.981 207.074C351.489 205.92 352.182 204.857 353.033 203.926C353.901 202.964 354.906 202.135 356.016 201.465C358.284 200.143 360.835 199.379 363.457 199.238L363.328 199.248C365.121 199.053 366.932 199.078 368.719 199.324C370.487 199.565 372.218 200.024 373.872 200.691C375.528 201.366 377.065 202.3 378.426 203.458C379.769 204.589 380.864 205.984 381.644 207.556C380.296 206.605 378.868 205.774 377.375 205.07C375.948 204.412 374.457 203.901 372.926 203.546C369.915 202.827 366.818 202.531 363.725 202.666L363.595 202.676C361.382 202.676 359.183 203.023 357.077 203.702C356.001 204.063 354.961 204.525 353.971 205.08C352.931 205.677 351.932 206.343 350.981 207.074Z" fill="#020202"/>
<path d="M381.729 219.509C371.181 244.852 354.837 234.854 354.837 234.854C354.837 234.854 362.174 230.433 363.434 209.228C363.434 209.228 366.62 204.565 370.733 209.228C374.169 212.892 377.842 216.327 381.729 219.509V219.509Z" fill="white"/>
<path d="M381.88 219.471C381.517 220.773 381.065 222.28 380.517 223.828C379.909 225.277 379.217 226.576 378.517 227.947C378.124 228.601 377.671 229.223 377.231 229.853C376.814 230.504 376.345 231.12 375.829 231.696L374.209 233.388C373.626 233.92 373.012 234.417 372.37 234.878C369.779 236.771 366.631 237.747 363.424 237.653C360.333 237.551 357.308 236.731 354.589 235.26C354.521 235.224 354.463 235.172 354.421 235.108C354.379 235.044 354.353 234.97 354.347 234.893C354.341 234.817 354.354 234.74 354.386 234.67C354.417 234.601 354.466 234.54 354.527 234.494L354.591 234.446C356.269 232.993 357.536 231.125 358.266 229.029C359.088 226.935 359.71 224.768 360.126 222.558C360.392 221.469 360.538 220.343 360.768 219.247C360.927 218.129 361.103 217.016 361.237 215.896C361.337 214.768 361.465 213.647 361.544 212.519C361.588 211.385 361.692 210.258 361.775 209.129L361.782 209.033C361.802 208.763 361.899 208.505 362.062 208.29C362.821 207.194 363.895 206.354 365.141 205.882C365.809 205.634 366.521 205.527 367.232 205.568C367.943 205.608 368.637 205.796 369.272 206.119C370.322 206.696 371.24 207.486 371.967 208.439C372.577 209.176 373.2 209.916 373.841 210.649C375.128 212.11 376.458 213.559 377.799 215.007L379.809 217.192C380.503 217.96 381.111 218.56 381.88 219.471ZM381.578 219.546C380.724 219.085 379.901 218.567 379.115 217.998C378.285 217.44 377.467 216.865 376.672 216.262C375.069 215.067 373.509 213.812 372.012 212.462C371.255 211.797 370.521 211.097 369.81 210.361C369.283 209.777 368.647 209.299 367.939 208.955C367.687 208.832 367.411 208.767 367.13 208.765C366.85 208.762 366.572 208.821 366.317 208.939C365.727 209.227 365.209 209.646 364.806 210.165L365.093 209.327C364.992 210.498 364.911 211.671 364.769 212.838C364.619 214.005 364.418 215.17 364.245 216.333C364.037 217.494 363.786 218.651 363.55 219.806C363.237 220.952 362.984 222.105 362.586 223.228C361.843 225.49 360.863 227.668 359.662 229.724C358.513 231.852 356.957 233.733 355.083 235.261L355.085 234.448C356.336 235.131 357.691 235.602 359.096 235.842C359.798 235.957 360.509 236.007 361.22 235.993C361.922 236.007 362.624 235.952 363.315 235.828C366.007 235.331 368.551 234.227 370.752 232.599C373.006 230.937 375.01 228.96 376.701 226.727C377.487 225.548 378.404 224.363 379.179 223.208L381.578 219.546Z" fill="#020202"/>
<path d="M372.544 183.188C373.417 182.66 374.377 182.291 375.379 182.099C376.36 181.889 377.359 181.784 378.362 181.786C380.386 181.758 382.386 182.24 384.175 183.188C383.197 183.363 382.208 183.465 381.215 183.493C380.253 183.539 379.303 183.545 378.354 183.549C376.411 183.557 374.47 183.437 372.544 183.188Z" fill="#020202"/>
<path d="M294.67 274.535C293.116 274.925 291.652 275.613 290.36 276.562C289.044 277.484 287.809 278.517 286.671 279.652C284.382 281.929 282.274 284.381 280.364 286.985C276.562 292.23 273.045 297.677 269.829 303.3C263.306 314.513 257.617 326.201 252.005 337.909C246.435 349.643 241.174 361.528 236.108 373.495C231.028 385.452 225.977 397.443 221.245 409.529L220.976 408.059C225.361 413.02 230.023 417.828 234.819 422.442C239.604 427.073 244.64 431.437 249.906 435.514C255.061 439.681 260.814 443.05 266.971 445.507C269.984 446.713 273.265 447.087 276.472 446.589C278.029 446.251 279.489 445.563 280.74 444.576C281.992 443.59 283.002 442.331 283.694 440.896L283.699 440.885C283.738 440.81 283.794 440.745 283.863 440.696C283.932 440.646 284.012 440.614 284.095 440.602C287.154 440.191 290.257 440.231 293.304 440.719C296.359 441.172 299.313 442.147 302.036 443.602C303.4 444.331 304.694 445.184 305.902 446.15C307.088 447.145 308.177 448.248 309.157 449.447C310.153 450.628 311.038 451.899 311.801 453.243C312.594 454.565 313.134 456.017 313.81 457.401L313.325 457C319.938 457.61 326.606 456.969 332.982 455.111C339.384 453.32 345.525 450.7 351.247 447.315L355.454 444.651C356.871 443.787 358.134 442.69 359.481 441.723C362.139 439.732 364.687 437.599 367.114 435.333C368.397 434.278 369.5 433.024 370.672 431.849L374.15 428.28C376.327 425.767 378.428 423.186 380.57 420.646L380.264 421.749L373.248 369.25L369.794 342.994L366.48 316.72C366.446 316.445 366.474 316.167 366.563 315.906C366.652 315.644 366.8 315.406 366.994 315.21C367.189 315.014 367.426 314.865 367.687 314.773C367.947 314.682 368.225 314.652 368.5 314.684L368.524 314.687C381.044 316.15 393.634 316.93 406.239 317.025C418.845 317.235 431.449 316.477 443.939 314.758C456.346 312.901 468.782 310.044 479.927 304.257C485.528 301.44 490.57 297.63 494.808 293.011C499.01 288.3 501.962 282.61 503.394 276.462C503.405 276.417 503.432 276.378 503.471 276.353C503.51 276.328 503.557 276.32 503.603 276.329C503.648 276.339 503.687 276.366 503.713 276.404C503.738 276.443 503.748 276.49 503.739 276.535C502.524 282.853 499.743 288.764 495.651 293.729C491.503 298.666 486.455 302.77 480.775 305.822C475.142 308.897 469.199 311.366 463.045 313.188C456.922 315.043 450.679 316.477 444.36 317.478C431.745 319.432 418.999 320.414 406.234 320.416C399.859 320.474 393.486 320.292 387.125 319.929C380.753 319.564 374.429 319.069 368.043 318.29L370.086 316.258L373.495 342.52L376.765 368.8L383.194 421.374L383.204 421.449C383.226 421.633 383.209 421.819 383.155 421.996C383.1 422.173 383.01 422.337 382.889 422.477C380.656 425.042 378.465 427.643 376.198 430.172L372.577 433.771C371.403 435.001 370.165 436.17 368.869 437.273C366.324 439.534 363.658 441.655 360.883 443.627C359.477 444.587 358.158 445.671 356.682 446.525L352.3 449.149C346.349 452.47 339.996 455.012 333.397 456.712C326.781 458.457 319.903 458.983 313.099 458.262C313.005 458.251 312.914 458.215 312.837 458.16C312.759 458.105 312.696 458.031 312.654 457.946L312.614 457.861C311.972 456.533 311.466 455.127 310.718 453.857C310 452.57 309.165 451.351 308.224 450.217C307.302 449.07 306.275 448.012 305.155 447.056C304.012 446.128 302.787 445.307 301.494 444.603C298.892 443.187 296.066 442.229 293.139 441.772C290.213 441.316 287.235 441.301 284.304 441.727L284.705 441.433L283.306 443.637C282.696 444.268 282.141 444.961 281.474 445.532C280.103 446.662 278.478 447.445 276.739 447.812C273.307 448.397 269.781 448.045 266.532 446.793C260.194 444.376 254.23 441.071 248.82 436.978C243.383 433.001 238.171 428.722 233.21 424.164C228.236 419.62 223.442 414.929 218.827 409.973C218.65 409.783 218.53 409.547 218.48 409.292C218.43 409.038 218.453 408.774 218.545 408.532L218.557 408.502C223.221 396.316 228.072 384.232 233.239 372.264C238.442 360.316 243.839 348.45 249.551 336.728C255.256 325.004 261.424 313.49 268.224 302.34C271.603 296.739 275.338 291.361 279.406 286.239C281.449 283.67 283.688 281.264 286.103 279.042C287.315 277.924 288.631 276.924 290.032 276.055C291.421 275.142 292.975 274.508 294.606 274.189C294.651 274.181 294.697 274.192 294.735 274.218C294.773 274.245 294.799 274.285 294.807 274.33C294.816 274.375 294.806 274.422 294.781 274.461C294.755 274.499 294.716 274.526 294.671 274.535L294.67 274.535Z" fill="#020202"/>
<path d="M541.75 101.639C544.337 100.776 547.05 100.351 549.777 100.382C552.565 100.371 555.329 100.888 557.924 101.907C560.552 103.018 562.894 104.711 564.774 106.858C566.623 109.018 568.073 111.49 569.056 114.159C570.904 119.418 571.788 124.968 571.664 130.542C571.553 135.992 571.105 141.43 570.322 146.825C568.918 157.527 567.223 168.202 564.937 178.763C562.804 189.362 559.776 199.76 555.887 209.848C557.252 204.631 558.419 199.382 559.387 194.1C560.424 188.83 561.34 183.54 562.233 178.249C563.954 167.654 565.485 157.03 566.825 146.377C567.631 141.122 568.135 135.826 568.334 130.513C568.58 125.302 567.952 120.087 566.474 115.084C565.779 112.629 564.601 110.337 563.009 108.342C561.417 106.348 559.443 104.691 557.204 103.468C552.387 101.2 546.963 100.558 541.75 101.639V101.639Z" fill="#020202"/>
<path d="M369.739 327.295C380.942 329.585 392.128 331.701 403.347 333.559L420.194 336.193C425.809 337.095 431.452 337.841 437.121 338.43C442.795 338.942 448.495 339.103 454.188 338.913C459.868 338.681 465.526 338.066 471.123 337.072C476.678 336.108 482.153 334.728 487.501 332.943C492.804 331.234 497.874 328.872 502.594 325.913L502.66 325.876L502.888 325.764C505.056 324.646 507.088 323.283 508.945 321.702C510.885 320.072 512.726 318.328 514.459 316.48C517.914 312.68 520.992 308.554 523.65 304.159C526.364 299.735 528.804 295.148 530.958 290.426L534.008 283.208C534.922 280.757 535.814 278.293 536.779 275.84L536.782 275.832C536.798 275.791 536.829 275.757 536.869 275.738C536.91 275.718 536.955 275.715 536.998 275.728C537.04 275.741 537.076 275.769 537.099 275.808C537.121 275.846 537.128 275.892 537.118 275.935C536.541 278.503 535.891 281.059 535.263 283.629C534.522 286.162 533.703 288.68 532.866 291.193C531.1 296.215 528.929 301.085 526.375 305.755C523.823 310.49 520.745 314.921 517.198 318.965C516.274 319.953 515.356 320.951 514.395 321.91C513.374 322.812 512.423 323.782 511.33 324.615C509.193 326.455 506.809 327.986 504.248 329.164L504.541 329.015C494.389 334.817 483.076 338.293 471.418 339.192C459.981 340.097 448.501 340.333 437.036 339.898C431.305 339.788 425.576 339.497 419.848 339.026C414.13 338.507 408.451 337.64 402.816 336.57C391.528 334.519 380.43 331.529 369.638 327.633C369.594 327.617 369.558 327.584 369.539 327.541C369.519 327.498 369.517 327.45 369.533 327.406C369.549 327.366 369.579 327.333 369.616 327.313C369.654 327.293 369.697 327.286 369.739 327.295V327.295Z" fill="#020202"/>
<path d="M378.36 204.557C387.46 203.828 396.561 203.446 405.661 203.186C414.761 202.905 423.862 202.83 432.962 202.795C442.062 202.825 451.163 202.901 460.263 203.181C469.363 203.439 478.464 203.823 487.564 204.557C478.464 205.292 469.363 205.675 460.263 205.934C451.163 206.214 442.062 206.289 432.962 206.32C423.862 206.285 414.761 206.21 405.661 205.929C396.561 205.669 387.46 205.287 378.36 204.557Z" fill="#020202"/>
<path d="M525.867 209.844L521.29 209.767C517.707 212.865 513.267 214.803 508.559 215.323C505.474 215.588 502.369 215.187 499.453 214.148C496.536 213.108 493.877 211.455 491.655 209.3L381.645 207.556C384.179 210.74 385.698 214.612 386.003 218.669C386.003 218.669 384.181 225.798 370.064 208.412C370.064 208.412 364.445 206.187 363.263 209.58C362.095 212.988 363.138 239.9 345.877 236.382C345.877 236.382 342.982 217.206 350.982 207.074L336.736 206.847V208.984C336.736 210.271 336.483 211.546 335.99 212.735C335.497 213.924 334.776 215.005 333.865 215.915C332.955 216.825 331.875 217.547 330.685 218.04C329.496 218.532 328.222 218.786 326.935 218.786H258.817L259.415 229.222C259.415 228.538 259.446 228.148 259.446 228.148H287.339L265.377 250.235H231.197C228.188 250.232 225.3 249.045 223.159 246.931C221.018 244.816 219.796 241.944 219.757 238.935L219.507 218.786H152.075C150.788 218.786 149.513 218.532 148.324 218.04C147.135 217.547 146.054 216.825 145.144 215.915C144.234 215.005 143.512 213.924 143.02 212.735C142.527 211.546 142.273 210.272 142.273 208.984V203.837H115.583L16 263.169C63.9236 262.749 111.847 262.52 159.77 262.484C207.71 262.313 255.633 262.484 303.557 262.546C351.48 262.562 399.404 262.889 447.343 263.138L519.221 263.589L590.849 264.258L613.822 250.702L637.076 237.067L683.63 209.844L525.867 209.844ZM472.651 243.308L361.737 242.515L368.29 235.635L381.271 220.568H490.161L472.651 243.308Z" fill="black"/>
<path d="M258.825 218.545C265.695 218.308 272.565 218.145 279.436 217.985C286.307 217.822 293.177 217.635 300.048 217.554L320.66 217.238L325.812 217.158C326.229 217.148 326.698 217.153 327.073 217.131C327.431 217.118 327.787 217.081 328.14 217.019C328.843 216.905 329.527 216.698 330.175 216.404C331.461 215.813 332.571 214.898 333.397 213.749C334.222 212.6 334.735 211.255 334.884 209.848L334.674 168.818C334.608 155.077 334.649 141.336 334.798 127.595L335.441 86.3716L335.781 65.7599C335.866 64.581 335.717 63.3969 335.341 62.2763C334.965 61.1556 334.37 60.1207 333.592 59.2316C332.813 58.3424 331.865 57.6166 330.804 57.0962C329.743 56.5759 328.589 56.2713 327.409 56.2002C325.775 56.1319 323.997 56.1506 322.298 56.138C294.816 56.0011 267.333 56.2585 239.851 56.6592C212.369 57.1078 184.887 57.4138 157.404 57.577L152.252 57.6067C150.907 57.5966 149.583 57.9362 148.41 58.5923C147.259 59.2472 146.302 60.193 145.632 61.3347C144.963 62.4765 144.606 63.7742 144.596 65.0976L144.71 85.6867L144.767 126.91L144.526 168.133L144.119 209.288C144.159 210.702 144.569 212.081 145.308 213.286C146.048 214.492 147.091 215.482 148.333 216.158C149.618 216.851 151.061 217.198 152.52 217.165L157.673 217.252L178.285 217.598C192.026 217.842 205.767 218.158 219.508 218.545C219.569 218.547 219.627 218.572 219.669 218.616C219.711 218.659 219.735 218.718 219.735 218.779C219.735 218.839 219.711 218.898 219.669 218.941C219.627 218.985 219.569 219.01 219.508 219.012C205.767 219.4 192.026 219.716 178.285 219.96L157.673 220.306L152.52 220.392C150.528 220.479 148.547 220.059 146.761 219.173C144.941 218.253 143.4 216.864 142.294 215.151C141.189 213.438 140.559 211.461 140.471 209.424L140.026 168.133L139.786 126.91L139.843 85.6866L139.967 65.0525C140.004 62.9236 140.6 60.8418 141.696 59.0163C142.793 57.1909 144.35 55.6861 146.212 54.653C148.063 53.6438 150.143 53.128 152.252 53.1552L157.404 53.1849C184.886 53.3212 212.369 53.6271 239.851 54.1027C267.333 54.5034 294.816 54.7607 322.298 54.6239C324.034 54.6345 325.693 54.5781 327.491 54.6136C329.362 54.6881 331.179 55.2598 332.755 56.2699C334.337 57.2846 335.625 58.6984 336.487 60.3689C336.918 61.2047 337.24 62.0924 337.445 63.0102C337.617 63.9166 337.703 64.8372 337.701 65.7598L338.041 86.3714L338.684 127.595C338.824 141.336 338.865 155.077 338.809 168.818L338.724 189.43L338.641 199.736L338.595 204.889L338.573 207.465L338.562 208.753C338.559 209.175 338.521 209.745 338.482 210.232C338.247 212.256 337.48 214.182 336.259 215.813C335.038 217.445 333.407 218.724 331.531 219.521C330.601 219.909 329.624 220.172 328.625 220.303C328.129 220.373 327.629 220.409 327.128 220.41C326.644 220.421 326.254 220.402 325.812 220.399L320.66 220.32L300.048 220.003C293.177 219.923 286.307 219.735 279.436 219.572C272.565 219.413 265.695 219.25 258.825 219.012C258.764 219.01 258.707 218.985 258.665 218.941C258.622 218.898 258.599 218.839 258.599 218.779C258.599 218.718 258.622 218.66 258.665 218.616C258.707 218.573 258.764 218.547 258.825 218.545V218.545Z" fill="#020202"/>
<path d="M256.351 133.846C256.398 138.917 254.69 143.848 251.516 147.804C249.81 149.82 247.665 151.42 245.246 152.482C242.827 153.544 240.198 154.039 237.559 153.93C232.364 153.59 227.503 151.256 223.991 147.414C220.453 143.739 218.324 138.935 217.977 133.846C217.798 131.222 218.172 128.59 219.075 126.12C219.979 123.65 221.392 121.398 223.222 119.51C225.072 117.578 227.284 116.029 229.731 114.951C232.194 113.873 234.857 113.327 237.546 113.349C240.235 113.371 242.888 113.961 245.333 115.08C247.739 116.182 249.863 117.817 251.543 119.862C254.725 123.822 256.425 128.767 256.351 133.846V133.846ZM255.998 133.846C255.979 131.434 255.402 129.059 254.312 126.907C253.232 124.82 251.73 122.98 249.901 121.504C246.416 118.661 242.056 117.109 237.559 117.112C233.107 117.129 228.826 118.823 225.569 121.856C222.274 125.022 220.259 129.29 219.908 133.846C219.754 136.189 220.097 138.539 220.914 140.74C221.757 142.96 223.085 144.963 224.8 146.605C226.519 148.162 228.536 149.353 230.729 150.108C232.922 150.862 235.246 151.164 237.559 150.994C242.087 150.766 246.422 149.091 249.927 146.215C251.758 144.734 253.26 142.889 254.338 140.796C255.427 138.641 255.995 136.261 255.998 133.846V133.846Z" fill="#020202"/>
<path d="M322.623 204.552C317.233 205.173 311.845 205.487 306.457 205.692C301.07 205.917 295.682 205.96 290.296 205.968C284.909 205.917 279.523 205.828 274.137 205.557C268.752 205.305 263.366 204.944 257.982 204.272C263.372 203.648 268.76 203.332 274.148 203.128C279.535 202.904 284.923 202.861 290.309 202.857C295.696 202.911 301.082 203.001 306.468 203.272C311.853 203.525 317.238 203.885 322.623 204.552Z" fill="#020202"/>
<path d="M219.32 204.101C214.074 204.723 208.828 205.038 203.583 205.245C198.338 205.471 193.094 205.515 187.85 205.524C182.606 205.475 177.362 205.387 172.119 205.117C166.876 204.867 161.634 204.506 156.393 203.836C161.64 203.211 166.885 202.894 172.13 202.688C177.375 202.463 182.619 202.418 187.863 202.413C193.107 202.466 198.351 202.555 203.594 202.825C208.837 203.076 214.079 203.435 219.32 204.101Z" fill="#020202"/>
<path d="M284.199 441.165C286.192 432.226 288.599 423.406 291.174 414.638C293.734 405.865 296.55 397.171 299.503 388.519C302.526 379.892 305.662 371.297 309.241 362.862C311.012 358.639 312.896 354.457 314.953 350.35C316.02 348.314 317.079 346.274 318.295 344.313C319.395 342.279 320.862 340.466 322.621 338.964C321.839 339.786 321.18 340.718 320.665 341.73C320.116 342.72 319.616 343.734 319.157 344.774C318.217 346.837 317.358 348.942 316.534 351.058C314.868 355.287 313.347 359.577 311.806 363.859L307.3 376.753L302.835 389.671C299.824 398.274 296.873 406.901 293.782 415.487C290.718 424.082 287.586 432.658 284.199 441.165Z" fill="#020202"/>
<path d="M313.212 457.631C312.169 450.039 311.473 442.432 310.9 434.82C310.305 427.209 309.916 419.589 309.566 411.968C309.283 404.345 309.044 396.719 309.01 389.085C308.954 381.452 309.023 373.813 309.443 366.16C310.491 373.753 311.188 381.359 311.76 388.971C312.355 396.582 312.744 404.202 313.089 411.823C313.368 419.447 313.607 427.073 313.64 434.707C313.695 442.34 313.627 449.979 313.212 457.631Z" fill="#020202"/>
<path d="M461.69 43.3589C462.376 43.3355 463.026 43.0465 463.503 42.5529C463.98 42.0593 464.246 41.3997 464.246 40.7132C464.246 40.0268 463.98 39.3672 463.503 38.8736C463.026 38.38 462.376 38.0909 461.69 38.0675C461.004 38.0909 460.354 38.38 459.876 38.8736C459.399 39.3672 459.133 40.0268 459.133 40.7132C459.133 41.3997 459.399 42.0593 459.876 42.5529C460.354 43.0465 461.004 43.3355 461.69 43.3589V43.3589Z" fill="#020202"/>
<path d="M477.406 43.3589C478.092 43.3355 478.742 43.0465 479.219 42.5529C479.696 42.0593 479.962 41.3997 479.962 40.7132C479.962 40.0268 479.696 39.3672 479.219 38.8736C478.742 38.38 478.092 38.0909 477.406 38.0675C476.719 38.0909 476.069 38.38 475.592 38.8736C475.115 39.3672 474.849 40.0268 474.849 40.7132C474.849 41.3997 475.115 42.0593 475.592 42.5529C476.069 43.0465 476.719 43.3355 477.406 43.3589V43.3589Z" fill="#020202"/>
<path d="M482.009 34.6811C481.195 34.8117 480.376 34.899 479.553 34.9425C478.808 35.0045 478.112 35.0056 477.413 35.0212C476.715 35.0306 476.019 35.0065 475.274 34.9671C474.443 34.9396 473.617 34.844 472.802 34.6811C473.295 33.9154 474.003 33.3127 474.838 32.949C475.642 32.5751 476.518 32.3797 477.404 32.3763C478.291 32.3729 479.168 32.5616 479.974 32.9294C480.822 33.2806 481.535 33.8946 482.009 34.6811Z" fill="#020202"/>
<path d="M463.753 34.681C463.066 34.8865 462.362 35.0309 461.65 35.1128C461.056 35.1923 460.458 35.2322 459.859 35.2323C459.265 35.2313 458.671 35.1919 458.082 35.1143C457.367 35.038 456.662 34.8929 455.975 34.681C456.356 33.9799 456.954 33.4214 457.68 33.0894C458.358 32.7465 459.109 32.5742 459.868 32.5874C460.623 32.5819 461.369 32.7556 462.044 33.0943C462.773 33.421 463.373 33.9787 463.753 34.681V34.681Z" fill="#020202"/>
<path d="M474.864 46.428C474.865 46.8492 474.778 47.2659 474.609 47.6519C474.441 48.038 474.194 48.385 473.885 48.6714C473.271 49.2706 472.501 49.6851 471.663 49.8675C470.859 50.0377 470.027 50.0317 469.225 49.8499C468.442 49.6711 467.71 49.3151 467.086 48.8092C467.82 48.65 468.564 48.5388 469.313 48.4763C470.001 48.3526 470.665 48.321 471.276 48.1478C472.599 47.8887 473.834 47.2968 474.864 46.428V46.428Z" fill="#020202"/>
<path d="M464.791 57.1468C464.956 56.7592 465.199 56.4097 465.505 56.1203C465.811 55.8309 466.173 55.6078 466.569 55.465C467.369 55.1537 468.24 55.0733 469.083 55.2333C469.89 55.3913 470.653 55.7221 471.32 56.2032C471.971 56.6739 472.505 57.2878 472.881 57.9975C472.143 57.8568 471.415 57.6681 470.701 57.4328C470.02 57.2778 469.397 57.0471 468.766 56.9674C467.447 56.6885 466.079 56.7503 464.791 57.1468V57.1468Z" fill="#020202"/>
<path d="M468.836 33.5017C469.522 33.4782 470.172 33.1892 470.649 32.6956C471.126 32.202 471.393 31.5424 471.393 30.856C471.393 30.1696 471.126 29.5101 470.649 29.0165C470.172 28.5229 469.522 28.2338 468.836 28.2103C468.15 28.2338 467.5 28.5229 467.023 29.0165C466.546 29.5101 466.279 30.1696 466.279 30.856C466.279 31.5424 466.546 32.202 467.023 32.6956C467.5 33.1892 468.15 33.4782 468.836 33.5017V33.5017Z" fill="#B21919"/>
<path d="M425.947 338.274V466.405C425.947 466.405 452.614 476.962 468.99 466.405V338.274" fill="#020202"/>
<path d="M508.421 467.053C508.358 467.709 508.162 468.346 507.844 468.923C507.527 469.501 507.094 470.007 506.574 470.411C505.567 471.26 504.46 471.982 503.276 472.56C500.913 473.718 498.449 474.657 495.914 475.365C490.854 476.811 485.703 477.918 480.495 478.675C470.075 480.247 459.562 481.116 449.026 481.276C438.462 481.515 427.894 481.017 417.4 479.784C412.113 479.144 406.879 478.128 401.736 476.744C399.108 476.03 396.551 475.076 394.098 473.893C392.795 473.267 391.575 472.482 390.467 471.554C389.731 471.056 389.128 470.386 388.711 469.601C388.294 468.816 388.076 467.941 388.076 467.053C388.076 466.164 388.294 465.289 388.71 464.504C389.126 463.719 389.729 463.049 390.465 462.55C391.574 461.623 392.793 460.837 394.096 460.211C396.55 459.028 399.107 458.074 401.735 457.36C406.877 455.971 412.111 454.954 417.399 454.316C427.893 453.08 438.461 452.581 449.026 452.824C459.562 452.984 470.076 453.855 480.495 455.429C485.703 456.187 490.854 457.294 495.914 458.742C498.449 459.45 500.913 460.389 503.276 461.547C504.46 462.125 505.568 462.846 506.575 463.695C507.095 464.1 507.527 464.607 507.844 465.184C508.161 465.761 508.358 466.398 508.421 467.053ZM508.421 467.053C508.353 466.4 508.153 465.767 507.832 465.193C507.511 464.619 507.077 464.117 506.555 463.718C505.544 462.879 504.434 462.167 503.25 461.6C500.883 460.462 498.416 459.543 495.881 458.856C490.81 457.491 485.648 456.491 480.434 455.862C470.012 454.639 459.517 454.147 449.026 454.388C438.563 454.549 428.123 455.413 417.776 456.975C412.641 457.724 407.562 458.814 402.573 460.238C400.131 460.919 397.758 461.822 395.481 462.936C394.416 463.455 393.418 464.102 392.509 464.863C392.11 465.073 391.776 465.388 391.543 465.774C391.31 466.16 391.186 466.603 391.186 467.054C391.186 467.505 391.309 467.948 391.542 468.334C391.774 468.721 392.108 469.036 392.507 469.247C393.416 470.008 394.414 470.655 395.48 471.173C397.756 472.288 400.131 473.191 402.572 473.872C407.56 475.301 412.639 476.393 417.774 477.139C428.121 478.704 438.562 479.569 449.026 479.727C459.517 479.967 470.012 479.473 480.434 478.248C485.648 477.618 490.81 476.617 495.881 475.252C498.416 474.564 500.883 473.645 503.25 472.507C504.434 471.94 505.545 471.229 506.555 470.39C507.077 469.99 507.512 469.488 507.832 468.914C508.153 468.34 508.353 467.707 508.421 467.053V467.053Z" fill="#020202"/>
<path d="M524.932 81.2493L503.562 76.8135V86.6036C503.566 99.239 501.457 111.786 497.321 123.725L492.375 137.987L508.938 168.25C508.938 168.25 543.485 170.902 546.614 170.637C546.614 170.637 552.886 85.1717 524.932 81.2493ZM505.258 149.5C505.041 147.041 504.869 144.582 504.854 142.107C504.784 139.632 504.956 137.156 505.367 134.714C505.523 137.173 505.834 139.601 506.068 142.045L506.815 149.345C507.251 154.232 507.687 159.119 507.749 164.069C506.533 159.287 505.7 154.415 505.258 149.5V149.5ZM512.963 163.835C512.357 163.815 511.783 163.561 511.361 163.125C510.94 162.689 510.704 162.107 510.704 161.501C510.704 160.895 510.94 160.312 511.361 159.876C511.783 159.441 512.357 159.186 512.963 159.166C513.569 159.186 514.144 159.44 514.565 159.876C514.987 160.312 515.223 160.894 515.223 161.501C515.223 162.107 514.987 162.69 514.565 163.125C514.144 163.561 513.569 163.816 512.963 163.835V163.835ZM522.66 165.127C522.055 165.106 521.482 164.85 521.062 164.415C520.641 163.979 520.407 163.398 520.407 162.793C520.407 162.187 520.641 161.606 521.062 161.17C521.482 160.735 522.055 160.479 522.66 160.458C523.265 160.479 523.838 160.735 524.258 161.17C524.678 161.606 524.913 162.187 524.913 162.793C524.913 163.398 524.678 163.98 524.258 164.415C523.838 164.851 523.265 165.106 522.66 165.127V165.127ZM531.75 165.625C531.144 165.605 530.569 165.351 530.148 164.915C529.726 164.479 529.491 163.897 529.491 163.291C529.491 162.684 529.726 162.102 530.148 161.666C530.569 161.231 531.144 160.976 531.75 160.956C532.355 160.976 532.93 161.231 533.351 161.666C533.773 162.102 534.008 162.684 534.008 163.291C534.008 163.897 533.773 164.479 533.351 164.915C532.93 165.351 532.355 165.605 531.75 165.625V165.625ZM540.87 166.404C540.265 166.384 539.69 166.129 539.269 165.693C538.847 165.257 538.612 164.675 538.612 164.069C538.612 163.463 538.847 162.88 539.269 162.445C539.69 162.009 540.265 161.754 540.87 161.734C541.476 161.754 542.051 162.009 542.472 162.445C542.894 162.88 543.129 163.463 543.129 164.069C543.129 164.675 542.894 165.258 542.472 165.693C542.051 166.129 541.476 166.384 540.87 166.404V166.404Z" fill="#020202"/>
<path d="M489.588 71.4355C492.019 72.0475 494.402 72.8401 496.715 73.8065C499.017 74.7443 501.261 75.6889 503.566 76.8206C501.01 76.797 498.484 76.2631 496.137 75.2504C493.767 74.3312 491.557 73.0437 489.588 71.4355V71.4355Z" fill="#020202"/>
<path d="M445.632 112.28C447.417 109.092 449.455 106.053 451.727 103.191C453.943 100.287 456.392 97.567 459.048 95.0588C457.266 98.2485 455.228 101.288 452.954 104.147C450.735 107.05 448.286 109.77 445.632 112.28Z" fill="#020202"/>
<path d="M227.167 409.642C227.772 409.621 228.345 409.366 228.766 408.931C229.187 408.495 229.422 407.913 229.422 407.307C229.422 406.702 229.187 406.12 228.766 405.684C228.345 405.249 227.772 404.994 227.167 404.973C226.561 404.994 225.988 405.249 225.567 405.684C225.146 406.12 224.911 406.702 224.911 407.307C224.911 407.913 225.146 408.495 225.567 408.931C225.988 409.366 226.561 409.621 227.167 409.642V409.642Z" fill="#020202"/>
<path d="M234.731 417.767C235.336 417.746 235.91 417.491 236.331 417.055C236.751 416.62 236.987 416.038 236.987 415.432C236.987 414.827 236.751 414.245 236.331 413.809C235.91 413.374 235.336 413.119 234.731 413.098C234.126 413.119 233.552 413.374 233.132 413.809C232.711 414.245 232.476 414.827 232.476 415.432C232.476 416.038 232.711 416.62 233.132 417.055C233.552 417.491 234.126 417.746 234.731 417.767V417.767Z" fill="#020202"/>
<path d="M243.415 425.892C244.02 425.871 244.593 425.616 245.014 425.18C245.435 424.745 245.67 424.163 245.67 423.557C245.67 422.951 245.435 422.369 245.014 421.934C244.593 421.498 244.02 421.243 243.415 421.222C242.809 421.243 242.236 421.498 241.815 421.934C241.394 422.369 241.159 422.951 241.159 423.557C241.159 424.163 241.394 424.745 241.815 425.18C242.236 425.616 242.809 425.871 243.415 425.892Z" fill="#020202"/>
<path d="M252.941 433.736C253.546 433.715 254.119 433.46 254.54 433.025C254.961 432.589 255.196 432.007 255.196 431.402C255.196 430.796 254.961 430.214 254.54 429.779C254.119 429.343 253.546 429.088 252.941 429.067C252.336 429.088 251.762 429.343 251.341 429.779C250.921 430.214 250.686 430.796 250.686 431.402C250.686 432.007 250.921 432.589 251.341 433.025C251.762 433.46 252.336 433.715 252.941 433.736V433.736Z" fill="#020202"/>
<path d="M263.868 440.74C264.473 440.72 265.047 440.464 265.467 440.029C265.888 439.593 266.123 439.011 266.123 438.406C266.123 437.8 265.888 437.218 265.467 436.783C265.047 436.347 264.473 436.092 263.868 436.071C263.263 436.092 262.689 436.347 262.268 436.783C261.847 437.218 261.612 437.8 261.612 438.406C261.612 439.011 261.847 439.593 262.268 440.029C262.689 440.464 263.263 440.72 263.868 440.74V440.74Z" fill="#020202"/>
<path d="M275.916 442.702C276.521 442.681 277.094 442.426 277.515 441.99C277.936 441.554 278.171 440.973 278.171 440.367C278.171 439.761 277.936 439.179 277.515 438.744C277.094 438.308 276.521 438.053 275.916 438.032C275.31 438.053 274.737 438.308 274.316 438.744C273.895 439.179 273.66 439.761 273.66 440.367C273.66 440.973 273.895 441.554 274.316 441.99C274.737 442.426 275.31 442.681 275.916 442.702V442.702Z" fill="#020202"/>
<path d="M288.243 437.379C288.848 437.358 289.422 437.103 289.842 436.667C290.263 436.231 290.498 435.65 290.498 435.044C290.498 434.438 290.263 433.856 289.842 433.421C289.422 432.985 288.848 432.73 288.243 432.709C287.638 432.73 287.064 432.985 286.643 433.421C286.222 433.856 285.987 434.438 285.987 435.044C285.987 435.65 286.222 436.231 286.643 436.667C287.064 437.103 287.638 437.358 288.243 437.379V437.379Z" fill="#020202"/>
<path d="M298.889 439.9C299.495 439.879 300.068 439.624 300.489 439.188C300.91 438.753 301.145 438.171 301.145 437.565C301.145 436.96 300.91 436.378 300.489 435.942C300.068 435.506 299.495 435.251 298.889 435.23C298.284 435.251 297.711 435.506 297.29 435.942C296.869 436.378 296.634 436.96 296.634 437.565C296.634 438.171 296.869 438.753 297.29 439.188C297.711 439.624 298.284 439.879 298.889 439.9V439.9Z" fill="#020202"/>
<path d="M308.415 445.223C309.02 445.202 309.593 444.947 310.014 444.511C310.435 444.076 310.67 443.494 310.67 442.888C310.67 442.283 310.435 441.701 310.014 441.265C309.593 440.83 309.02 440.575 308.415 440.554C307.809 440.575 307.236 440.83 306.815 441.265C306.394 441.701 306.159 442.283 306.159 442.888C306.159 443.494 306.394 444.076 306.815 444.511C307.236 444.947 307.809 445.202 308.415 445.223V445.223Z" fill="#020202"/>
<path d="M317.379 455.029C317.985 455.008 318.558 454.753 318.979 454.317C319.4 453.882 319.635 453.3 319.635 452.694C319.635 452.088 319.4 451.507 318.979 451.071C318.558 450.635 317.985 450.38 317.379 450.359C316.774 450.38 316.201 450.635 315.78 451.071C315.359 451.507 315.124 452.088 315.124 452.694C315.124 453.3 315.359 453.882 315.78 454.317C316.201 454.753 316.774 455.008 317.379 455.029V455.029Z" fill="#020202"/>
<path d="M328.866 453.348C329.471 453.327 330.045 453.072 330.465 452.636C330.886 452.201 331.121 451.619 331.121 451.013C331.121 450.408 330.886 449.826 330.465 449.39C330.045 448.954 329.471 448.699 328.866 448.678C328.261 448.699 327.687 448.954 327.266 449.39C326.846 449.826 326.61 450.408 326.61 451.013C326.61 451.619 326.846 452.201 327.266 452.636C327.687 453.072 328.261 453.327 328.866 453.348V453.348Z" fill="#020202"/>
<path d="M340.354 450.266C340.959 450.245 341.533 449.99 341.954 449.555C342.374 449.119 342.61 448.537 342.61 447.931C342.61 447.326 342.374 446.744 341.954 446.308C341.533 445.873 340.959 445.618 340.354 445.597C339.749 445.618 339.175 445.873 338.755 446.308C338.334 446.744 338.099 447.326 338.099 447.931C338.099 448.537 338.334 449.119 338.755 449.555C339.175 449.99 339.749 450.245 340.354 450.266V450.266Z" fill="#020202"/>
<path d="M349.597 446.064C350.203 446.043 350.776 445.788 351.197 445.352C351.618 444.917 351.853 444.335 351.853 443.729C351.853 443.123 351.618 442.541 351.197 442.106C350.776 441.67 350.203 441.415 349.597 441.394C348.992 441.415 348.419 441.67 347.998 442.106C347.577 442.541 347.342 443.123 347.342 443.729C347.342 444.335 347.577 444.917 347.998 445.352C348.419 445.788 348.992 446.043 349.597 446.064V446.064Z" fill="#020202"/>
<path d="M359.684 439.06C360.289 439.039 360.863 438.783 361.283 438.348C361.704 437.912 361.939 437.33 361.939 436.725C361.939 436.119 361.704 435.537 361.283 435.102C360.863 434.666 360.289 434.411 359.684 434.39C359.079 434.411 358.505 434.666 358.085 435.102C357.664 435.537 357.429 436.119 357.429 436.725C357.429 437.33 357.664 437.912 358.085 438.348C358.505 438.783 359.079 439.039 359.684 439.06V439.06Z" fill="#020202"/>
<path d="M368.37 430.655C368.975 430.634 369.548 430.379 369.969 429.943C370.39 429.507 370.625 428.925 370.625 428.32C370.625 427.714 370.39 427.132 369.969 426.697C369.548 426.261 368.975 426.006 368.37 425.985C367.764 426.006 367.191 426.261 366.77 426.697C366.349 427.132 366.114 427.714 366.114 428.32C366.114 428.925 366.349 429.507 366.77 429.943C367.191 430.379 367.764 430.634 368.37 430.655V430.655Z" fill="#020202"/>
<path d="M375.373 422.25C375.978 422.229 376.551 421.974 376.972 421.538C377.393 421.103 377.628 420.521 377.628 419.915C377.628 419.309 377.393 418.727 376.972 418.292C376.551 417.856 375.978 417.601 375.373 417.58C374.767 417.601 374.194 417.856 373.773 418.292C373.352 418.727 373.117 419.309 373.117 419.915C373.117 420.521 373.352 421.103 373.773 421.538C374.194 421.974 374.767 422.229 375.373 422.25V422.25Z" fill="#020202"/>
<path d="M541.57 170.354C540.667 174.665 539.548 178.929 538.218 183.128C536.915 187.363 535.282 191.489 533.333 195.468C531.395 199.512 528.968 203.303 526.106 206.757C523.192 210.329 519.484 213.172 515.276 215.058C510.935 216.947 506.102 217.395 501.487 216.336C496.895 215.243 492.73 212.813 489.519 209.353L488.314 208.073L487.282 206.748C486.601 205.86 485.886 204.994 485.263 204.069L483.343 201.328L481.549 198.512C479.222 194.732 477.109 190.824 475.221 186.806C471.437 178.816 468.287 170.541 465.801 162.057C463.292 153.608 461.324 145.008 459.91 136.309C458.519 127.608 457.709 118.824 457.485 110.014C457.345 105.591 457.477 101.163 457.882 96.7564C458.132 94.549 458.391 92.3364 458.859 90.1408C459.269 87.8638 459.954 85.645 460.899 83.5332L460.803 83.7433C461.341 82.2334 462.006 80.7718 462.791 79.3742C463.566 77.9772 464.461 76.6505 465.467 75.4094C466.486 74.1468 467.638 72.9983 468.905 71.984C470.202 70.9571 471.625 70.1009 473.14 69.4364L472.765 69.6602C474.037 68.5367 475.214 67.3105 476.285 65.994C477.337 64.7226 478.221 63.3213 478.916 61.8245C479.229 61.1352 479.451 60.4081 479.576 59.6615C479.646 58.7207 479.765 57.7842 479.933 56.8559L480.212 55.995C480.351 55.676 480.518 55.3697 480.711 55.0798C480.964 54.7098 481.291 54.3958 481.671 54.1574C482.05 53.919 482.475 53.7613 482.919 53.694C483.756 53.5936 484.602 53.7928 485.307 54.2564C485.64 54.4664 485.94 54.7263 486.194 55.0271C486.604 55.4858 486.842 56.0731 486.865 56.6879L483.528 56.5946C483.573 55.9295 483.703 55.273 483.915 54.6408C484.144 53.9147 484.528 53.2473 485.041 52.6851C485.693 52.0023 486.58 51.593 487.523 51.54C488.303 51.5098 489.079 51.6564 489.794 51.969L487.432 53.2308C487.526 52.7417 487.663 52.2617 487.84 51.7962C488.044 51.2325 488.346 50.7096 488.733 50.252C489.039 49.8958 489.427 49.6197 489.864 49.4477C490.394 49.24 490.978 49.2139 491.525 49.3734C492.218 49.5949 492.834 50.0068 493.304 50.5622L491.022 50.2717C491.6 49.8878 492.241 49.6105 492.916 49.4528C493.365 49.3527 493.829 49.3395 494.282 49.4138C494.867 49.51 495.407 49.7828 495.832 50.1954C496.436 50.8386 496.8 51.6704 496.863 52.5507C496.893 52.8665 496.906 53.1837 496.903 53.501L496.873 54.239C496.775 56.1755 496.573 58.1053 496.268 60.0202C495.803 64.0583 494.387 67.9287 492.138 71.3141C491.422 72.2586 490.859 72.8131 490.224 73.5547L488.366 75.6557L484.651 79.8578L477.173 88.2214L477.603 86.6869C480.105 101.7 484.357 116.368 490.272 130.392C493.239 137.393 496.651 144.25 500.174 151.044L505.504 161.223L510.991 171.431C511.009 171.464 511.013 171.503 511.003 171.539C510.994 171.576 510.97 171.607 510.938 171.627C510.906 171.646 510.867 171.652 510.83 171.644C510.793 171.636 510.761 171.614 510.74 171.583L510.638 171.431C508.603 168.389 506.544 164.999 504.562 161.76C502.574 158.478 500.58 155.197 498.678 151.861C494.864 145.197 491.136 138.469 487.841 131.474C484.611 124.449 481.837 117.223 479.538 109.841C478.386 106.15 477.34 102.428 476.4 98.6749C475.497 94.9146 474.693 91.1331 473.986 87.3304C473.936 87.0635 473.946 86.7886 474.017 86.5265C474.088 86.2643 474.218 86.0217 474.396 85.8168L474.415 85.7953L481.83 77.347L485.561 73.143L487.426 71.0411C488.011 70.3643 488.763 69.5794 489.163 69.0192C491.019 66.1131 492.213 62.8343 492.66 59.4154C492.969 57.637 493.183 55.8434 493.301 54.0421L493.338 53.3781C493.352 53.1958 493.322 53.0799 493.326 52.9266C493.311 52.6801 493.195 52.5119 493.355 52.721C493.444 52.8037 493.554 52.8612 493.672 52.8877C493.756 52.8877 493.708 52.8883 493.645 52.8936C493.409 52.9547 493.182 53.0494 492.972 53.1748L492.918 53.209C492.569 53.4295 492.152 53.5179 491.744 53.4584C491.335 53.3988 490.961 53.1952 490.69 52.8843C490.565 52.7419 490.354 52.6129 490.591 52.7256C490.765 52.7587 490.944 52.7455 491.111 52.6873C491.184 52.6594 491.252 52.6183 491.31 52.5662C491.201 52.7129 491.114 52.8746 491.052 53.0464C490.948 53.31 490.865 53.5813 490.804 53.8578C490.75 54.1017 490.645 54.3313 490.495 54.5315C490.346 54.7317 490.155 54.8979 489.937 55.019C489.718 55.1402 489.477 55.2135 489.228 55.2341C488.979 55.2548 488.728 55.2223 488.493 55.1388L488.441 55.1197C488.216 55.0154 487.973 54.9548 487.726 54.9411C487.593 54.9529 487.6 54.934 487.48 55.0328C487.306 55.2368 487.175 55.4744 487.097 55.731C486.979 56.0714 486.901 56.424 486.863 56.782L483.525 56.6887C483.542 57.1775 483.679 57.1657 483.633 57.1567C483.598 57.1155 483.557 57.0798 483.512 57.0507C483.392 56.9665 483.292 56.9692 483.356 56.9668C483.425 56.9703 483.479 56.87 483.38 56.9909C483.339 57.0461 483.291 57.1587 483.235 57.2496L483.095 57.6641C482.923 58.3416 482.934 58.9795 482.759 60.1802C482.577 61.1989 482.262 62.1896 481.824 63.127C480.981 64.8691 479.91 66.4908 478.638 67.9493C477.412 69.3829 476.069 70.7111 474.621 71.9197C474.523 72.0018 474.414 72.0697 474.297 72.1216L474.245 72.1438C472.956 72.6746 471.741 73.3667 470.626 74.2035C469.493 75.0662 468.457 76.0492 467.535 77.1353C466.601 78.242 465.752 79.4184 464.996 80.6543C464.242 81.8853 463.591 83.1764 463.049 84.5143C463.022 84.5846 462.987 84.6594 462.953 84.725C462.059 86.6025 461.38 88.5755 460.93 90.606C460.428 92.7066 460.033 94.8317 459.748 96.9728C459.207 101.295 458.933 105.647 458.926 110.003C458.947 118.754 459.628 127.492 460.965 136.14C462.387 144.776 464.535 153.276 467.387 161.55C470.187 169.815 473.624 177.851 477.666 185.586C479.672 189.447 481.839 193.205 484.169 196.862L485.943 199.579L487.812 202.221C488.419 203.116 489.108 203.939 489.767 204.79L490.762 206.058L491.817 207.171C494.581 210.225 498.191 212.388 502.188 213.384C506.191 214.343 510.394 214.024 514.207 212.473C518.068 210.805 521.514 208.308 524.3 205.158C527.169 201.948 529.635 198.4 531.642 194.591C533.684 190.747 535.489 186.781 537.046 182.716C538.613 178.638 539.956 174.467 541.228 170.267C541.235 170.245 541.246 170.224 541.26 170.206C541.275 170.188 541.293 170.173 541.313 170.162C541.333 170.151 541.356 170.144 541.379 170.142C541.402 170.139 541.425 170.141 541.447 170.148C541.49 170.161 541.526 170.189 541.548 170.227C541.571 170.265 541.579 170.31 541.57 170.354V170.354Z" fill="#020202"/>
<path d="M233.452 422.646C231.45 430.744 227.728 438.317 222.54 444.85C219.869 448.164 216.622 450.968 212.954 453.128C211.093 454.256 209.352 455.054 207.573 456.115L202.285 459.182C195.267 463.353 188.195 467.505 181.2 471.782C174.173 476.011 167.311 480.511 160.6 485.218L160.804 484.907C160.464 487.207 160.786 489.556 161.732 491.68C162.709 493.742 164.379 495.397 166.45 496.356C166.955 496.617 167.482 496.835 168.024 497.008L169.687 497.455C170.828 497.656 171.979 497.795 173.135 497.871C174.311 497.841 175.475 497.901 176.647 497.805L180.163 497.431L179.778 497.548C186.76 493.867 193.801 490.311 200.901 486.879C208.002 483.431 215.119 480.029 222.511 477.093C224.353 476.353 226.241 475.676 228.158 475.03L229.654 474.601C230.179 474.428 230.719 474.305 231.267 474.234L232.168 474.114L232.615 474.062L232.936 474.048C233.373 474.051 233.809 474.024 234.242 473.967C237.952 473.43 241.511 472.137 244.7 470.167C247.968 468.214 250.879 465.717 253.306 462.784C255.712 459.778 257.563 456.367 258.773 452.711L258.792 452.656L258.807 452.62C259.519 451.256 260.205 449.863 260.849 448.46C261.524 447.08 262.074 445.642 262.491 444.163L262.494 444.15C262.503 444.112 262.526 444.078 262.559 444.056C262.593 444.034 262.633 444.026 262.672 444.033C262.711 444.039 262.746 444.061 262.77 444.093C262.794 444.125 262.804 444.165 262.799 444.204C262.551 445.759 262.14 447.284 261.572 448.752C261.046 450.226 260.483 451.678 259.88 453.127L259.914 453.037C257.961 461.022 253.001 467.947 246.07 472.367C244.355 473.494 242.537 474.458 240.642 475.245C238.72 476.075 236.703 476.663 234.637 476.995C234.096 477.086 233.55 477.141 233.002 477.159L232.586 477.181L232.302 477.237L231.744 477.336C231.316 477.4 230.896 477.507 230.49 477.655L229.153 478.063C227.35 478.709 225.541 479.391 223.741 480.153C220.14 481.641 216.535 483.193 212.959 484.809C209.373 486.407 205.782 488.004 202.214 489.655L180.842 499.665L180.749 499.708C180.656 499.751 180.557 499.776 180.456 499.782L176.734 499.983C175.492 500.012 174.233 499.881 172.99 499.835C171.739 499.682 170.497 499.457 169.272 499.163L167.458 498.568C166.858 498.342 166.278 498.067 165.724 497.746C163.428 496.533 161.627 494.558 160.63 492.16C159.678 489.801 159.402 487.222 159.832 484.714C159.842 484.653 159.864 484.595 159.897 484.542C159.93 484.49 159.974 484.445 160.025 484.411L160.037 484.403C166.849 479.821 173.605 475.157 180.304 470.413C187.048 465.726 193.777 460.997 200.865 456.79C204.335 454.631 208.136 452.728 211.658 450.81C215.119 448.876 218.225 446.366 220.844 443.389C223.523 440.372 225.88 437.083 227.874 433.575C229.934 430.055 231.7 426.371 233.153 422.56L233.156 422.55C233.171 422.513 233.199 422.483 233.234 422.466C233.27 422.449 233.311 422.446 233.349 422.458C233.387 422.47 233.419 422.496 233.438 422.531C233.457 422.566 233.462 422.607 233.452 422.646L233.452 422.646Z" fill="#020202"/>
<path d="M160.318 484.81C160.318 484.81 148.421 503.388 173.532 511.264C173.532 511.264 188.315 515.182 212.103 491.341C212.103 491.341 222.968 480.967 225.889 481.348L222.34 490.979L235.108 495.378L250.602 488.229L258.326 455.882C256.001 461.042 252.433 465.545 247.943 468.99C243.452 472.434 238.178 474.713 232.592 475.622C212.892 479.231 197.525 491.228 180.31 498.607C180.31 498.607 158.083 502.509 160.318 484.81Z" fill="#020202"/>
<path d="M176.135 474.137C176.135 474.137 191.119 475.229 193.633 492.056L207.927 485.285C207.927 485.285 205.291 464.657 187.022 467.026C187.022 467.026 180.921 465.981 176.135 474.137Z" fill="#020202"/>
<path d="M331.094 442.1C333.325 450.138 333.808 458.561 332.511 466.801C331.81 470.997 330.359 475.034 328.228 478.717C327.11 480.581 326.036 482.164 325.002 483.959L321.915 489.236C317.852 496.319 313.734 503.41 309.745 510.574C305.715 517.716 301.918 524.993 298.436 532.415L298.462 532.023C299.291 534.193 300.712 536.088 302.564 537.492C304.425 538.824 306.699 539.451 308.979 539.26C311.282 539.047 313.517 538.368 315.548 537.265C317.627 536.162 319.602 534.875 321.45 533.42L321.172 533.712C326.877 524.838 332.806 516.128 338.883 507.495C341.944 503.193 345.066 498.933 348.402 494.794C350.078 492.671 351.877 490.648 353.791 488.737C354.357 488.183 354.983 487.695 355.657 487.28C356.163 487.001 356.649 486.688 357.112 486.343C358.083 485.595 358.986 484.762 359.811 483.855C363.185 480.054 365.635 475.524 366.968 470.62C368.366 465.648 368.664 460.431 367.841 455.333C366.213 444.9 364.926 434.459 363.646 424.002C363.641 423.961 363.652 423.92 363.677 423.888C363.702 423.855 363.738 423.834 363.779 423.829C363.82 423.823 363.861 423.834 363.894 423.858C363.926 423.883 363.948 423.919 363.954 423.96C365.588 434.357 367.108 444.793 368.997 455.124C370.236 460.394 370.28 465.873 369.127 471.162C367.936 476.528 365.485 481.533 361.976 485.763C361.07 486.841 360.07 487.836 358.987 488.736C358.413 489.203 357.805 489.626 357.169 490.003C356.738 490.303 356.335 490.642 355.966 491.016C354.191 492.862 352.525 494.81 350.975 496.849C347.75 500.947 344.636 505.176 341.516 509.398C335.276 517.846 329.224 526.458 323.143 535.035L323.109 535.083C323.041 535.177 322.959 535.26 322.864 535.327C320.833 536.778 318.666 538.026 316.392 539.053C314.082 540.127 311.582 540.732 309.036 540.833C306.431 540.915 303.881 540.073 301.837 538.455C299.848 536.86 298.338 534.748 297.469 532.351C297.447 532.287 297.438 532.219 297.443 532.152C297.447 532.084 297.465 532.018 297.496 531.958C301.225 524.642 304.793 517.257 308.295 509.824C311.864 502.427 315.399 495 319.503 487.851C321.47 484.269 323.831 480.735 326.024 477.377C328.066 473.974 329.521 470.251 330.326 466.365C331.201 462.424 331.634 458.398 331.619 454.361C331.68 450.282 331.404 446.206 330.792 442.173L330.79 442.164C330.784 442.125 330.794 442.085 330.816 442.052C330.839 442.019 330.873 441.997 330.912 441.989C330.951 441.98 330.992 441.987 331.026 442.008C331.059 442.029 331.084 442.062 331.094 442.1L331.094 442.1Z" fill="#020202"/>
<path d="M297.965 532.187C297.965 532.187 296.737 554.214 322.477 548.728C322.477 548.728 337.276 544.873 346.271 512.418C346.271 512.418 350.633 498.043 353.364 496.939L355.008 507.071L368.29 504.625L378.268 490.782L369.093 458.816C369.605 464.453 368.712 470.128 366.494 475.336C364.277 480.543 360.804 485.12 356.386 488.657C341.005 501.484 333.521 519.486 322.157 534.374C322.157 534.374 304.719 548.699 297.965 532.187Z" fill="#020202"/>
<path d="M306.494 515.116C306.494 515.116 320.08 508.702 330.541 522.119L339.66 509.196C339.66 509.196 327.224 492.528 312.48 503.572C312.48 503.572 306.653 505.661 306.494 515.116Z" fill="#020202"/>
<path d="M263.687 247.71C263.729 247.756 263.767 247.804 263.801 247.856L263.81 247.868L263.824 247.884L265.675 249.985C265.722 250.039 265.754 250.105 265.765 250.176C265.777 250.247 265.769 250.32 265.741 250.387C265.713 250.453 265.667 250.51 265.609 250.552C265.55 250.594 265.481 250.618 265.409 250.622L265.376 250.624C256.598 251.144 247.82 251.461 239.042 251.627L232.458 251.741C231.272 251.794 230.083 251.733 228.908 251.559C227.056 251.245 225.296 250.527 223.753 249.457C222.21 248.387 220.921 246.99 219.979 245.365C218.744 243.218 218.152 240.762 218.271 238.288C218.4 229.508 218.729 220.725 218.812 211.946C218.851 203.166 218.665 194.39 218.253 185.616C218.162 184.469 218.183 183.315 218.315 182.172C218.466 180.987 218.791 179.831 219.279 178.741C220.255 176.513 221.853 174.615 223.881 173.275C225.938 171.915 228.342 171.172 230.808 171.136L237.392 171.013L243.975 170.928C247.763 170.884 251.421 172.312 254.177 174.911C256.933 177.51 258.574 181.077 258.752 184.861C259.78 202.387 260.418 219.935 260.668 237.505L260.669 237.564L260.667 237.604C260.616 238.455 260.663 239.309 260.807 240.149C260.951 241.028 261.158 241.895 261.427 242.743C261.997 244.462 262.749 246.116 263.669 247.676C263.681 247.696 263.69 247.718 263.693 247.741C263.697 247.764 263.696 247.787 263.69 247.81C263.685 247.832 263.675 247.854 263.662 247.872C263.648 247.891 263.631 247.907 263.611 247.919C263.573 247.941 263.529 247.949 263.486 247.941C263.443 247.933 263.405 247.909 263.378 247.875C262.811 247.139 262.283 246.374 261.795 245.584C261.313 244.781 260.882 243.948 260.506 243.09C260.13 242.22 259.817 241.325 259.571 240.41C259.306 239.46 259.157 238.482 259.127 237.496L259.126 237.594C257.352 220.112 255.976 202.606 254.998 185.076C254.912 183.182 254.367 181.338 253.411 179.701C252.44 178.069 251.066 176.715 249.421 175.767C247.763 174.811 245.888 174.296 243.975 174.268L237.391 174.184L230.808 174.061C228.84 173.991 226.892 174.479 225.189 175.468C223.485 176.458 222.096 177.908 221.181 179.651C220.706 180.536 220.369 181.489 220.182 182.475C220.003 183.505 219.926 184.551 219.951 185.596C219.745 194.377 219.772 203.155 220.032 211.931C220.332 220.705 220.878 229.477 221.224 238.252C221.2 240.191 221.706 242.101 222.687 243.774C223.667 245.407 225.081 246.735 226.772 247.611C227.613 248.049 228.515 248.361 229.448 248.534C230.443 248.697 231.451 248.762 232.458 248.729L239.042 248.842C247.819 249.009 256.598 249.326 265.376 249.845L265.077 250.485L263.503 248.103L263.526 248.131C263.465 248.036 263.409 247.938 263.36 247.841C263.341 247.805 263.336 247.763 263.346 247.723C263.356 247.684 263.38 247.649 263.414 247.626C263.448 247.602 263.489 247.592 263.529 247.597C263.57 247.602 263.607 247.621 263.635 247.652L263.687 247.71Z" fill="#020202"/>
<path d="M306.433 290.089C307.143 291.221 307.686 292.448 308.047 293.734C308.403 294.955 308.649 296.206 308.784 297.472C308.922 298.736 308.946 300.011 308.855 301.28C308.774 302.614 308.499 303.929 308.039 305.183C307.326 304.054 306.781 302.826 306.421 301.539C306.065 300.318 305.82 299.067 305.689 297.801C305.554 296.536 305.531 295.261 305.622 293.992C305.704 292.659 305.977 291.345 306.433 290.089V290.089Z" fill="white"/>
</svg>
