<svg width="700" height="550" viewBox="0 0 700 550" fill="none" xmlns="http://www.w3.org/2000/svg">
<g clip-path="url(#clip0)">
<path d="M223.63 437.08C223.558 437.08 223.487 437.066 223.42 437.039C223.353 437.011 223.293 436.971 223.242 436.92C223.191 436.869 223.15 436.809 223.123 436.742C223.095 436.676 223.081 436.604 223.081 436.532V384.581C223.083 384.436 223.142 384.299 223.245 384.198C223.347 384.097 223.486 384.04 223.63 384.04C223.774 384.04 223.912 384.097 224.015 384.198C224.118 384.299 224.177 384.436 224.179 384.581V436.532C224.179 436.604 224.165 436.676 224.137 436.742C224.11 436.809 224.069 436.869 224.018 436.92C223.967 436.971 223.907 437.011 223.84 437.039C223.773 437.066 223.702 437.08 223.63 437.08V437.08Z" fill="black"/>
<path d="M278.334 343.383C277.152 345.391 275.762 347.268 274.184 348.982C272.67 350.749 271.011 352.372 269.38 354.027C266.016 357.227 262.563 360.341 258.93 363.236C251.684 369.065 244.006 374.335 235.962 379.001C227.925 383.731 219.432 387.636 210.61 390.658C206.183 392.165 201.651 393.345 197.051 394.189C194.722 394.469 192.4 394.924 190.061 395.054C187.72 395.121 185.376 395.228 183.035 395.259C173.699 394.944 164.423 393.63 155.367 391.339C146.327 389.152 137.428 386.417 128.72 383.151C120.003 379.947 111.445 376.346 102.928 372.708C100.799 371.81 98.6632 370.894 96.5181 370.111C95.4681 369.742 94.3366 369.358 93.2128 368.893C92.6926 368.589 92.1471 368.323 91.6511 367.985C91.1632 367.633 90.697 367.252 90.255 366.844C88.564 365.151 87.2943 363.085 86.5482 360.812C85.7894 358.573 85.3699 356.232 85.3036 353.869L85.3096 353.937C79.7295 323.349 72.565 293.071 63.8452 263.226C59.6014 248.276 54.8613 233.473 49.9909 218.722C45.1116 203.972 39.9102 189.336 34.3867 174.813C31.5996 167.564 28.8074 160.318 25.8804 153.127C24.4638 149.52 22.8026 146.015 21.5768 142.198C20.3619 138.414 19.5681 134.508 19.2097 130.55C19.0091 128.545 18.9523 126.528 19.0398 124.515C19.2621 122.335 20.162 120.28 21.6129 118.638C23.0637 116.997 24.9926 115.851 27.1284 115.362C29.0675 114.877 31.0433 114.551 33.0358 114.389C37.0624 114.119 41.1016 114.672 44.9072 116.015L55.9885 119.652L100.315 134.197C102.212 134.741 104.063 135.435 105.851 136.271C107.64 137.172 109.279 138.342 110.713 139.74C113.61 142.534 115.501 146.208 116.09 150.19L119.379 173.288C119.383 173.316 119.376 173.345 119.358 173.368C119.341 173.391 119.316 173.406 119.287 173.411C119.259 173.415 119.23 173.408 119.207 173.391C119.183 173.375 119.168 173.349 119.163 173.321L115.291 150.321C114.625 146.561 112.763 143.117 109.982 140.5C108.61 139.197 107.046 138.112 105.345 137.284C103.599 136.499 101.793 135.853 99.945 135.351L55.4255 121.408L44.2956 117.923C40.7295 116.711 36.9531 116.241 33.1989 116.544C31.3176 116.728 29.4525 117.051 27.6188 117.51C25.9368 117.899 24.4188 118.805 23.2781 120.101C22.1373 121.397 21.431 123.017 21.2584 124.735C21.1931 126.607 21.2549 128.481 21.4432 130.344C21.7953 134.137 22.5648 137.879 23.7378 141.503C24.8936 145.094 26.5714 148.636 28.0067 152.259C30.9539 159.466 33.7929 166.715 36.5238 174.005C47.445 203.163 57.0124 232.774 65.226 262.837C69.329 277.847 73.1566 292.932 76.5502 308.115C80.1329 323.256 83.0744 338.534 86.0643 353.8L86.0689 353.839L86.0702 353.869C86.0555 358.438 87.7604 362.847 90.8462 366.217C91.2577 366.591 91.6909 366.941 92.1438 367.263C92.6018 367.575 93.113 367.804 93.5932 368.08C94.6146 368.478 95.685 368.829 96.8272 369.204C99.0456 369.971 101.186 370.849 103.339 371.713C111.925 375.206 120.513 378.647 129.243 381.695C137.952 384.761 146.816 387.372 155.796 389.519C164.739 391.694 173.876 392.973 183.072 393.335C185.36 393.319 187.647 393.228 189.936 393.18C192.219 393.069 194.467 392.637 196.736 392.383C201.254 391.584 205.709 390.454 210.062 389.004C218.79 386.045 227.222 382.276 235.247 377.745C243.305 373.227 251.019 368.123 258.329 362.474C262.02 359.693 265.536 356.689 268.97 353.596C270.634 351.995 272.332 350.423 273.881 348.71C275.488 347.056 276.915 345.236 278.138 343.282L278.145 343.271C278.16 343.246 278.184 343.228 278.213 343.221C278.241 343.214 278.271 343.218 278.296 343.233C278.32 343.248 278.339 343.272 278.346 343.3C278.353 343.328 278.348 343.358 278.334 343.383L278.334 343.383Z" fill="black"/>
<path d="M28.0391 125.393L44.8524 131.295L61.624 137.307L78.3755 143.374L95.097 149.52C95.239 149.573 95.3658 149.659 95.4663 149.772C95.5669 149.885 95.6379 150.021 95.6732 150.167L95.6767 150.184C99.0207 164.489 102.234 178.823 105.317 193.188C108.428 207.546 111.411 221.933 114.644 236.263C121.009 264.947 127.962 293.497 134.68 322.1C136.284 329.16 139.212 335.851 143.308 341.819C147.398 347.758 152.748 352.72 158.976 356.353C165.224 359.907 172.268 361.824 179.455 361.926C183.083 361.902 186.708 361.69 190.314 361.29C193.945 360.9 197.575 360.493 201.171 359.896C208.372 358.796 215.456 357.029 222.33 354.617C229.187 352.106 235.848 349.086 242.256 345.582C248.719 342.145 255.03 338.395 261.282 334.55C267.565 330.753 273.789 326.85 280.019 322.958C280.044 322.943 280.073 322.938 280.102 322.944C280.13 322.95 280.154 322.967 280.17 322.991C280.186 323.015 280.191 323.045 280.186 323.073C280.18 323.101 280.163 323.126 280.139 323.142C267.958 331.354 255.836 339.679 242.997 346.934C236.586 350.616 229.894 353.787 222.985 356.416C216.032 358.993 208.845 360.887 201.526 362.073C197.876 362.691 194.206 363.115 190.535 363.521C186.842 363.942 183.13 364.17 179.413 364.203C171.834 364.143 164.4 362.122 157.834 358.337C151.424 354.414 145.897 349.205 141.601 343.038C137.305 336.872 134.333 329.882 132.874 322.51C126.591 293.808 120.543 265.053 113.907 236.43C110.639 222.108 107.122 207.842 103.732 193.547C100.33 179.255 97.0425 164.937 93.8708 150.593L94.4504 151.256L77.7855 144.956L61.1501 138.578L44.5356 132.144L27.9621 125.599C27.9353 125.589 27.9138 125.568 27.9021 125.542C27.8904 125.515 27.8894 125.486 27.8995 125.459C27.9096 125.432 27.9298 125.41 27.9559 125.398C27.982 125.385 28.0118 125.384 28.0389 125.393L28.0391 125.393Z" fill="black"/>
<path d="M222.241 40.6838C217.635 37.8873 216.474 29.4614 220.025 23.8217C224.503 16.7098 229.507 29.6166 229.507 29.6166C237.673 41.7333 254.267 9.33443 254.267 9.33443C254.267 9.33443 241.097 -7.26011 211.069 3.80292C181.041 14.8659 201.586 52.5329 201.586 52.5329C201.586 52.5329 170.241 67.2836 180.777 106.531C180.777 106.531 208.787 100.013 207.118 53.2655C207.118 53.2655 218.839 48.6477 222.241 40.6838" fill="black"/>
<path d="M225.524 41.5193C223.849 41.9329 222.079 41.6793 220.588 40.812C220.526 40.7743 220.472 40.7247 220.429 40.666C220.386 40.6074 220.355 40.5409 220.338 40.4703C220.321 40.3997 220.318 40.3264 220.329 40.2546C220.34 40.1828 220.365 40.1139 220.403 40.0518C220.441 39.9897 220.49 39.9356 220.549 39.8927C220.607 39.8498 220.674 39.8188 220.745 39.8016C220.815 39.7844 220.888 39.7813 220.96 39.7924C221.032 39.8035 221.101 39.8287 221.163 39.8664C221.203 39.8918 221.24 39.9213 221.273 39.9546C222.437 41.0019 223.959 41.5621 225.524 41.5193V41.5193Z" fill="black"/>
<path d="M253.412 11.029C255.201 13.8914 256.6 16.9796 257.573 20.2118C258.615 23.4869 259.008 26.9339 258.73 30.3595L258.52 29.7371C259.522 30.7898 260.498 31.8662 261.463 32.9544L264.354 36.2792C264.607 36.6151 264.789 36.999 264.888 37.4076C264.988 37.8162 265.004 38.2409 264.934 38.6556C264.863 39.0704 264.71 39.4664 264.481 39.8196C264.253 40.1728 263.955 40.4757 263.605 40.7097C263.011 41.1644 262.377 41.563 261.709 41.9003C261.365 42.1155 260.977 42.2511 260.574 42.2969C260.17 42.3427 259.762 42.2977 259.378 42.1651L259.76 41.9349C259.716 46.6747 259.219 51.3994 258.273 56.0442C257.778 58.4681 256.75 60.7515 255.263 62.7285C254.392 63.8097 253.163 64.5443 251.799 64.7998C251.112 64.8791 250.418 64.8511 249.74 64.7168L248.049 64.4259C245.849 64.0311 243.595 64.0318 241.394 64.428C239.231 64.877 237.229 65.9025 235.6 67.3961C232.426 70.7634 229.977 74.7463 228.404 79.0982C228.396 79.1198 228.379 79.1372 228.358 79.1466C228.336 79.156 228.312 79.1566 228.29 79.1483C228.271 79.14 228.254 79.1248 228.245 79.1056C228.235 79.0864 228.233 79.0644 228.238 79.0435C228.806 76.7409 229.588 74.4966 230.574 72.34C231.541 70.114 232.892 68.0754 234.566 66.3174C236.314 64.505 238.548 63.2364 241 62.6643C243.419 62.1524 245.917 62.1283 248.345 62.5933L250.117 62.9534C250.589 63.062 251.075 63.1002 251.559 63.0665C252.527 62.8997 253.404 62.3939 254.033 61.6395C255.415 59.8785 256.425 57.8542 256.999 55.6902C258.349 51.2212 259.101 46.5932 259.234 41.9268C259.237 41.8561 259.267 41.7893 259.319 41.7412C259.371 41.6931 259.44 41.6675 259.511 41.67C259.547 41.672 259.583 41.6809 259.617 41.6963C259.927 41.7804 260.252 41.797 260.569 41.745C260.887 41.6929 261.189 41.5734 261.456 41.3945C262.076 41.0553 262.658 40.6505 263.192 40.1871C263.441 40.0044 263.649 39.7722 263.804 39.5049C263.959 39.2376 264.056 38.9411 264.09 38.6342C264.125 38.3273 264.095 38.0166 264.003 37.7218C263.911 37.427 263.759 37.1545 263.556 36.9215L260.455 33.9132C259.416 32.8954 258.39 31.8662 257.389 30.813C257.314 30.7345 257.256 30.6412 257.219 30.5392C257.183 30.4371 257.168 30.3285 257.176 30.2204L257.178 30.1903C257.317 28.584 257.313 26.9686 257.166 25.363C256.997 23.738 256.729 22.1248 256.363 20.5326C255.596 17.3108 254.558 14.1598 253.259 11.1133C253.254 11.1029 253.251 11.0916 253.251 11.0801C253.25 11.0686 253.252 11.0571 253.256 11.0462C253.26 11.0354 253.265 11.0254 253.273 11.0168C253.281 11.0083 253.29 11.0013 253.301 10.9964C253.32 10.9881 253.342 10.9869 253.362 10.9928C253.382 10.9988 253.4 11.0115 253.412 11.029V11.029Z" fill="black"/>
<path d="M248.669 23.9534C249.66 22.9541 250.986 22.3579 252.391 22.2801C253.779 22.1459 255.173 22.4551 256.374 23.1632C254.988 23.2693 253.741 23.2601 252.486 23.373C251.203 23.4859 249.928 23.6797 248.669 23.9534Z" fill="black"/>
<path d="M252.028 30.7362C252.454 30.7214 252.859 30.5415 253.156 30.2344C253.452 29.9272 253.618 29.5169 253.618 29.0899C253.618 28.6629 253.452 28.2526 253.156 27.9454C252.859 27.6383 252.454 27.4584 252.028 27.4436C251.601 27.4584 251.197 27.6383 250.9 27.9454C250.603 28.2526 250.438 28.6629 250.438 29.0899C250.438 29.5169 250.603 29.9272 250.9 30.2344C251.197 30.5415 251.601 30.7214 252.028 30.7362V30.7362Z" fill="black"/>
<path d="M230.691 49.6356C232.227 51.5014 233.624 53.3884 235.117 55.1985C236.584 57.0397 238.21 58.748 239.977 60.3033C237.721 59.3594 235.752 57.8389 234.269 55.8943C232.724 54.0304 231.514 51.9129 230.691 49.6356V49.6356Z" fill="black"/>
<path d="M117.998 166.163C119.088 161.099 120.413 156.183 121.842 151.245C123.29 146.326 124.801 141.418 126.551 136.591C129.953 126.877 134.019 117.409 138.721 108.254C141.118 103.675 143.767 99.2324 146.656 94.9469C149.524 90.6053 152.771 86.5262 156.359 82.7576C159.949 78.8943 164.092 75.5849 168.653 72.9375C173.307 70.2513 178.518 68.6773 183.88 68.3384L183.894 68.3378C183.985 68.3336 184.077 68.3378 184.167 68.3503C189.355 69.1067 194.494 69.9995 199.625 71.0115C204.756 72.0122 209.873 73.0948 214.959 74.3515C220.113 75.4976 225.147 77.1255 229.997 79.2138C232.399 80.4056 234.579 81.6662 236.946 82.7945L244 86.1697C246.381 87.296 248.685 88.5769 250.899 90.004C253.174 91.4314 255.142 93.2977 256.687 95.4938C259.723 99.6444 263.289 103.502 266.701 107.417C273.603 115.215 280.639 122.896 287.808 130.461C287.929 130.589 288.006 130.752 288.027 130.926C288.048 131.101 288.013 131.278 287.926 131.431L287.919 131.443C285.261 136.126 282.392 140.637 279.378 145.08C276.359 149.513 273.155 153.83 269.716 157.976C266.269 162.152 262.488 166.04 258.41 169.603C254.283 173.343 249.435 176.199 244.163 177.996L244.866 177.579C241.056 181.452 237.159 185.171 233.05 188.738C230.991 190.514 228.884 192.245 226.631 193.859C225.488 194.69 224.297 195.452 223.063 196.139C221.638 197.029 220.005 197.53 218.326 197.59L220.171 195.446C221.044 199.277 221.952 203.116 222.903 206.928L224.373 212.62C224.621 213.563 224.883 214.501 225.156 215.416C225.395 216.266 225.682 217.101 226.017 217.918L226.056 218.007C226.154 218.226 226.208 218.463 226.215 218.703C226.221 218.943 226.18 219.182 226.094 219.406C226.008 219.631 225.879 219.836 225.714 220.01C225.549 220.185 225.351 220.325 225.131 220.423C224.949 220.503 224.755 220.554 224.557 220.573C212.32 221.722 200.102 222.507 187.834 222.935C175.545 223.436 163.235 223.154 150.981 222.089C147.91 221.769 144.839 221.382 141.781 220.794C138.674 220.262 135.633 219.398 132.71 218.215C131.177 217.589 129.746 216.739 128.462 215.692C127.783 215.11 127.203 214.422 126.746 213.653C126.307 212.879 126.066 212.203 125.718 211.474C124.484 208.616 123.475 205.666 122.7 202.652C121.176 196.689 120.07 190.627 119.393 184.51C118.678 178.407 118.206 172.333 117.998 166.163ZM118.346 166.196C119.254 178.344 121.329 190.378 124.542 202.129C125.382 205.014 126.446 207.828 127.724 210.547C128.053 211.185 128.371 211.942 128.707 212.483C129.054 213.017 129.484 213.492 129.982 213.89C131.106 214.735 132.347 215.412 133.666 215.899C139.355 217.767 145.267 218.873 151.247 219.189C163.387 219.951 175.56 220.025 187.708 219.41C199.88 218.935 212.076 218.099 224.182 216.91L222.723 219.565C222.285 218.565 221.916 217.536 221.619 216.485C221.323 215.511 221.051 214.548 220.793 213.583C220.261 211.657 219.804 209.726 219.339 207.798C218.421 203.938 217.554 200.082 216.716 196.206C216.666 195.978 216.662 195.743 216.704 195.514C216.745 195.285 216.832 195.066 216.958 194.87C217.084 194.674 217.247 194.505 217.439 194.373C217.63 194.24 217.846 194.147 218.074 194.097C218.234 194.064 218.398 194.051 218.561 194.061C219.57 193.935 220.54 193.595 221.406 193.063C222.525 192.454 223.606 191.779 224.643 191.04C226.774 189.55 228.841 187.893 230.867 186.184C234.909 182.754 238.83 179.094 242.593 175.352L242.606 175.34C242.799 175.149 243.036 175.01 243.297 174.934C248.172 173.32 252.676 170.752 256.549 167.38C260.573 163.989 264.322 160.284 267.758 156.299C271.25 152.331 274.539 148.164 277.653 143.867C280.765 139.573 283.74 135.144 286.464 130.613L286.575 131.594C279.653 123.793 272.705 116.025 265.837 108.176C262.427 104.217 258.997 100.327 255.782 96.1351C252.861 91.9468 248.051 89.5898 243.432 87.3458C238.754 85.1567 233.905 83.007 229.281 80.7159C224.488 78.8389 219.529 77.4124 214.471 76.4546C204.335 74.2634 194.015 72.7892 183.757 71.2751L184.043 71.287C179.147 71.6491 174.401 73.1391 170.176 75.6405C165.897 78.1773 161.979 81.2772 158.526 84.8571C155.008 88.4647 151.818 92.3772 148.992 96.5485C146.108 100.718 143.457 105.044 141.053 109.507C136.182 118.455 131.898 127.712 128.23 137.217C124.499 146.704 121.171 156.418 118.346 166.196L118.346 166.196Z" fill="black"/>
<path d="M243.731 176.465C242.484 173.624 241.311 170.76 240.125 167.903C238.935 165.048 237.814 162.167 236.58 159.335C235.433 156.467 234.203 153.634 232.925 150.83C232.307 149.417 231.633 148.033 230.904 146.678C230.564 145.989 230.182 145.322 229.759 144.68C229.558 144.353 229.34 144.036 229.106 143.732L228.322 142.881C230.589 145.031 232.411 147.606 233.684 150.459C235.132 153.214 236.361 156.067 237.592 158.914C238.747 161.793 239.886 164.677 240.911 167.603C241.935 170.528 242.91 173.472 243.731 176.465Z" fill="black"/>
<path d="M226.345 231.145C226.241 231.145 226.139 231.115 226.051 231.059C225.963 231.004 225.893 230.924 225.848 230.83L220.418 219.302C220.387 219.237 220.369 219.166 220.365 219.094C220.361 219.022 220.372 218.949 220.396 218.881C220.421 218.813 220.458 218.751 220.507 218.697C220.555 218.643 220.614 218.6 220.68 218.569C220.745 218.538 220.816 218.521 220.888 218.518C220.96 218.514 221.033 218.525 221.101 218.55C221.169 218.574 221.231 218.612 221.284 218.661C221.338 218.71 221.381 218.769 221.411 218.834L226.842 230.362C226.881 230.446 226.899 230.538 226.893 230.63C226.887 230.722 226.858 230.812 226.808 230.89C226.759 230.968 226.69 231.032 226.61 231.077C226.529 231.122 226.438 231.145 226.345 231.145V231.145Z" fill="black"/>
<path d="M127.777 213.605L134.406 238.003C130.938 225.766 128.48 216.316 127.777 213.605Z" fill="black"/>
<path d="M361.866 366.914C358.16 373.435 359.873 386.844 359.104 391.407C358.06 397.858 355.606 404 351.919 409.396C350.922 401.721 349.751 394.064 348.545 386.407C347.339 378.767 345.975 371.145 344.716 363.505C343.3 355.9 341.971 348.261 340.486 340.673L338.231 329.275C337.409 325.482 336.657 321.688 335.783 317.912C336.272 321.758 336.849 325.586 337.391 329.433L339.157 340.901C340.363 348.558 341.709 356.18 342.986 363.802C344.401 371.425 345.73 379.047 347.216 386.652C348.702 394.239 350.206 401.844 351.919 409.396C343.632 421.546 329.681 429.221 314.123 435.077C302.464 439.439 290.458 442.808 278.232 445.147C269.281 366.512 283.249 311.198 283.249 311.198C283.249 311.198 281.658 309.223 276.134 309.223C270.592 309.223 255.19 318.314 255.19 318.314C196.712 353.873 178.53 334.118 164.702 319.1C155.629 309.241 142.43 266.409 134.458 238.228C188.198 257.983 218.04 230.588 223.635 230.588C225.4 230.588 234.054 229.679 246.117 228.525C247.537 229.976 248.643 231.705 249.365 233.603C250.087 235.501 250.41 237.528 250.313 239.557C255.312 246.654 261.379 234.801 258.739 230.588C258.147 229.623 257.689 228.582 257.375 227.494C259.77 227.284 262.253 227.057 264.788 226.847C269.001 232.616 273.879 241.148 278.232 245.343C285.871 252.721 287.2 240.868 287.2 240.868C296.675 247.721 296.675 235.606 296.675 235.606C305.102 240.606 302.2 228.525 302.2 228.525C302.778 228.022 303.205 227.369 303.433 226.637C303.662 225.905 303.682 225.125 303.493 224.382C314.255 223.847 325.04 223.999 335.783 224.837C368.579 228.158 399.803 323.838 399.803 323.838C400.991 340.831 375.293 343.208 361.866 366.914Z" fill="black"/>
<path d="M174.264 393.723C175.487 401.35 176.241 409.013 177.036 416.673C177.775 424.337 178.127 432.031 178.604 439.715L180.063 462.766L181.413 485.826C181.414 485.855 181.405 485.883 181.386 485.905C181.367 485.926 181.34 485.94 181.312 485.942C181.283 485.944 181.255 485.935 181.232 485.916C181.21 485.898 181.197 485.871 181.194 485.843L178.969 462.851L176.854 439.851C176.14 432.185 175.3 424.529 174.848 416.842C174.452 409.152 174.014 401.464 174.046 393.74C174.046 393.713 174.056 393.686 174.075 393.666C174.094 393.645 174.119 393.633 174.147 393.63C174.175 393.628 174.202 393.637 174.224 393.654C174.246 393.671 174.26 393.696 174.265 393.723H174.264Z" fill="black"/>
<path d="M198.271 393.114C199.043 400.829 199.344 408.553 199.687 416.275C199.973 423.999 199.871 431.73 199.895 439.459L199.994 462.645L199.983 485.833C199.983 485.862 199.972 485.889 199.952 485.91C199.932 485.931 199.904 485.942 199.875 485.943C199.846 485.943 199.819 485.933 199.798 485.913C199.777 485.893 199.765 485.865 199.764 485.837L198.897 462.665L198.14 439.492C197.878 431.767 197.491 424.045 197.492 416.316C197.549 408.585 197.565 400.856 198.052 393.118C198.054 393.09 198.066 393.065 198.086 393.046C198.106 393.027 198.132 393.016 198.16 393.015C198.187 393.015 198.214 393.025 198.235 393.043C198.255 393.061 198.268 393.087 198.271 393.114V393.114Z" fill="black"/>
<path d="M190.313 504.329C220.208 504.329 244.443 494.511 244.443 482.4C244.443 470.29 220.208 460.472 190.313 460.472C160.418 460.472 136.184 470.29 136.184 482.4C136.184 494.511 160.418 504.329 190.313 504.329Z" fill="black"/>
<path d="M218.444 195.825C217.298 196.64 215.967 197.158 214.571 197.332C213.853 197.433 213.124 197.406 212.416 197.252C212.036 197.2 211.681 197.036 211.395 196.782C211.109 196.528 210.904 196.195 210.806 195.825C211.038 196.035 211.312 196.195 211.609 196.295C211.907 196.394 212.221 196.432 212.534 196.404C213.169 196.388 213.803 196.335 214.432 196.244C215.761 196.034 217.1 195.894 218.444 195.825V195.825Z" fill="black"/>
<path d="M242.543 177.627C248.321 181.372 254.082 185.147 259.91 188.775C261.371 189.672 262.838 190.566 264.325 191.391C265.062 191.824 265.819 192.189 266.556 192.579C266.907 192.725 267.321 192.94 267.618 193.033C267.75 193.064 267.881 193.103 268.008 193.15C268.3 193.204 268.597 193.273 268.887 193.354C270.529 194.045 272.117 194.857 273.639 195.783C275.139 196.66 276.618 197.565 278.073 198.501C283.947 202.186 289.507 206.35 294.697 210.949C297.361 213.25 299.711 215.891 301.686 218.805L302.354 219.993L302.89 221.158C303.29 221.958 303.632 222.785 303.915 223.633C304.196 224.552 304.236 225.528 304.03 226.467C303.797 227.411 303.271 228.258 302.529 228.886L302.673 228.42C302.894 229.536 303.033 230.668 303.089 231.805C303.175 232.97 303.036 234.141 302.678 235.254C302.585 235.551 302.439 235.829 302.247 236.075L301.961 236.457L301.559 236.748C301.295 236.942 300.987 237.065 300.662 237.107C300.358 237.182 300.042 237.191 299.734 237.135C299.145 237.067 298.568 236.916 298.021 236.686L296.499 235.895L297.019 235.6C296.98 236.887 296.78 238.164 296.425 239.401C296.107 240.705 295.354 241.862 294.29 242.681C293.704 243.033 293.046 243.247 292.366 243.305C291.685 243.363 291.001 243.265 290.364 243.017C289.754 242.789 289.158 242.526 288.579 242.23L286.951 241.202L287.603 240.913C287.433 242.984 286.743 244.979 285.597 246.711C285.262 247.178 284.827 247.563 284.324 247.839C283.82 248.115 283.261 248.274 282.687 248.304L281.821 248.237C281.55 248.171 281.296 248.065 281.032 247.978C280.526 247.793 280.046 247.545 279.603 247.239C277.938 246.047 276.446 244.63 275.17 243.028C273.882 241.485 272.678 239.89 271.529 238.264C269.227 235.017 267.069 231.691 264.773 228.511C263.669 226.926 262.462 225.415 261.16 223.987C260.568 223.329 259.884 222.76 259.13 222.296C258.861 222.121 258.551 222.019 258.231 222.002C258.005 222.005 257.789 222.096 257.628 222.254L257.962 221.633C257.735 223.739 257.98 225.869 258.677 227.869C258.856 228.359 259.068 228.836 259.312 229.296C259.434 229.525 259.564 229.749 259.701 229.967C259.861 230.276 260.024 230.634 260.172 230.971C260.56 232.261 260.636 233.624 260.395 234.949C259.986 237.504 258.747 239.852 256.87 241.633C256.315 242.152 255.641 242.528 254.907 242.728C254.173 242.928 253.402 242.947 252.659 242.782C251.305 242.322 250.146 241.417 249.372 240.215C249.225 240.039 249.15 239.815 249.16 239.587L249.166 239.453C249.277 236.836 248.667 234.239 247.4 231.946C247.077 231.384 246.711 230.847 246.307 230.34C245.887 229.809 245.488 229.433 244.934 228.823C243.899 227.705 243.04 226.436 242.388 225.059C241.185 222.36 240.471 219.469 240.278 216.521C240.054 213.649 240.079 210.762 240.351 207.894L240.4 208.212C239.525 206.543 238.222 205.136 236.626 204.135C234.981 203.051 233.18 202.226 231.285 201.69C229.375 201.108 227.415 200.703 225.43 200.48C224.431 200.403 223.43 200.3 222.426 200.246L219.403 200.171C219.374 200.172 219.346 200.162 219.324 200.142C219.303 200.122 219.29 200.095 219.289 200.066C219.29 200.037 219.301 200.01 219.32 199.989C219.339 199.968 219.365 199.955 219.394 199.952L222.433 199.807C223.447 199.799 224.464 199.847 225.483 199.865C227.527 199.976 229.557 200.274 231.548 200.756C233.573 201.232 235.512 202.022 237.294 203.096C238.2 203.645 239.042 204.293 239.804 205.027C240.623 205.78 241.297 206.676 241.792 207.671C241.829 207.747 241.847 207.831 241.844 207.915L241.842 207.99C241.704 210.777 241.771 213.569 242.044 216.346C242.289 219.061 243.011 221.712 244.178 224.176C244.772 225.349 245.54 226.426 246.458 227.367C246.861 227.801 247.507 228.391 247.976 228.963C248.473 229.55 248.919 230.177 249.309 230.84C250.841 233.515 251.588 236.567 251.465 239.648L251.259 238.887C251.879 239.617 252.552 240.407 253.253 240.51C253.631 240.578 254.02 240.553 254.387 240.436C254.753 240.32 255.085 240.116 255.355 239.842C256.806 238.416 257.766 236.564 258.094 234.556C258.266 233.619 258.234 232.656 258.001 231.732L257.757 231.173C257.592 230.903 257.438 230.628 257.295 230.349C257.01 229.792 256.763 229.216 256.558 228.625C255.764 226.268 255.518 223.761 255.839 221.294C255.867 221.066 255.976 220.855 256.145 220.699L256.173 220.672C256.743 220.151 257.491 219.865 258.263 219.874C258.936 219.901 259.59 220.104 260.162 220.461C261.095 221.037 261.937 221.749 262.662 222.572C264.008 224.089 265.253 225.692 266.388 227.372C268.644 230.671 270.711 234.045 272.907 237.314C274.007 238.945 275.109 240.57 276.305 242.11C277.438 243.654 278.777 245.035 280.285 246.216C280.644 246.489 281.038 246.713 281.456 246.881C281.659 246.954 281.861 247.052 282.065 247.113L282.677 247.179C283.091 247.166 283.497 247.059 283.864 246.867C284.231 246.675 284.55 246.402 284.796 246.069C285.881 244.511 286.563 242.708 286.782 240.822C286.8 240.711 286.861 240.611 286.953 240.545C287.044 240.479 287.158 240.452 287.27 240.47C287.328 240.48 287.384 240.501 287.434 240.533L288.969 241.532C289.501 241.811 290.047 242.06 290.605 242.279C291.131 242.498 291.701 242.594 292.269 242.558C292.838 242.522 293.391 242.357 293.886 242.073C294.821 241.355 295.486 240.342 295.773 239.199C296.134 238.033 296.322 236.82 296.331 235.6C296.332 235.541 296.347 235.484 296.376 235.433C296.405 235.382 296.446 235.34 296.496 235.309C296.546 235.279 296.602 235.261 296.661 235.258C296.719 235.256 296.777 235.268 296.83 235.293L296.851 235.304L298.296 236.025C298.775 236.217 299.279 236.341 299.793 236.394C300.262 236.465 300.741 236.359 301.136 236.096C301.532 235.833 301.815 235.433 301.931 234.972C302.23 233.96 302.333 232.9 302.236 231.849C302.169 230.767 302.003 229.695 301.741 228.644C301.72 228.56 301.723 228.472 301.748 228.39C301.774 228.308 301.821 228.234 301.885 228.176C302.441 227.649 302.826 226.965 302.987 226.216C303.149 225.466 303.08 224.685 302.791 223.975C302.493 223.203 302.143 222.452 301.741 221.729L301.149 220.573L300.505 219.537C298.493 216.833 296.139 214.402 293.501 212.304C288.258 207.913 282.77 203.824 277.062 200.057C274.291 198.141 271.379 196.436 268.351 194.958C268.224 194.928 268.101 194.885 267.983 194.83C267.74 194.777 267.402 194.71 267.122 194.629C266.605 194.452 266.258 194.247 265.82 194.056C265.039 193.636 264.27 193.203 263.537 192.74C262.048 191.836 260.61 190.88 259.174 189.92C253.44 186.073 247.882 182.003 242.416 177.806C242.393 177.789 242.378 177.763 242.374 177.735C242.37 177.707 242.377 177.678 242.393 177.655C242.41 177.632 242.434 177.616 242.462 177.611C242.49 177.605 242.519 177.611 242.543 177.627L242.543 177.627Z" fill="black"/>
<path d="M267.174 216.898C270.999 220.453 274.626 224.215 278.04 228.168C281.481 232.111 284.691 236.251 287.652 240.567C287.731 240.687 287.761 240.834 287.733 240.975C287.706 241.117 287.624 241.242 287.505 241.323C287.386 241.405 287.24 241.436 287.098 241.411C286.956 241.386 286.83 241.306 286.747 241.189L286.733 241.168C283.943 236.779 280.9 232.556 277.619 228.52C274.352 224.458 270.865 220.578 267.174 216.898Z" fill="black"/>
<path d="M278.236 214.527C284.871 221.118 291.17 228.039 297.108 235.264C297.199 235.377 297.241 235.521 297.225 235.665C297.21 235.809 297.138 235.941 297.026 236.032C296.913 236.123 296.77 236.166 296.626 236.152C296.482 236.138 296.349 236.068 296.257 235.956L296.241 235.936C290.603 228.502 284.594 221.356 278.236 214.527V214.527Z" fill="black"/>
<path d="M286.14 212.815C288.96 215.285 291.757 217.782 294.532 220.307L298.656 224.14C300.013 225.446 301.366 226.731 302.637 228.19C302.732 228.3 302.781 228.443 302.771 228.588C302.761 228.734 302.693 228.869 302.583 228.965C302.474 229.06 302.33 229.108 302.185 229.098C302.04 229.088 301.904 229.021 301.809 228.911L301.793 228.892L301.778 228.873C300.654 227.447 299.353 226.077 298.074 224.722L294.152 220.703C291.509 218.048 288.838 215.419 286.14 212.815Z" fill="black"/>
<path d="M253.565 171.532C254.98 173.29 256.553 174.914 258.265 176.384C259.948 177.911 261.654 179.413 263.383 180.89L273.846 189.659C280.836 195.488 287.982 201.144 295.045 206.877L295.143 206.965L295.165 206.988C298.245 210.204 301.742 212.993 305.563 215.28C309.385 217.51 313.535 219.125 317.86 220.065C326.563 221.963 335.636 221.2 343.9 217.873C347.946 216.219 352.035 213.856 356.204 211.968C360.345 209.966 364.589 208.173 368.849 206.441C373.136 204.767 377.476 203.232 381.882 201.896C386.294 200.49 390.83 199.512 395.43 198.975C395.485 198.97 395.541 198.976 395.594 198.992L395.614 198.999C399.637 200.336 403.841 201.047 408.08 201.107C412.287 201.193 416.454 200.276 420.237 198.433C422.109 197.428 423.909 196.292 425.622 195.035C427.716 194.022 430.072 193.677 432.369 194.049C434.555 194.281 436.716 194.71 438.825 195.33C439.284 195.487 439.755 195.604 440.234 195.679C440.647 195.729 441.065 195.703 441.468 195.602C442.237 195.385 442.907 194.909 443.366 194.256L443.806 193.845C443.723 193.886 443.647 193.939 443.58 194.002C443.413 194.154 443.302 194.357 443.263 194.58C443.234 194.745 443.244 194.915 443.293 195.076C443.342 195.237 443.429 195.384 443.546 195.505L443.39 194.219C443.663 193.679 443.77 193.07 443.698 192.469C443.664 192.132 443.599 191.799 443.506 191.474C443.415 191.155 443.297 190.844 443.154 190.545C443.085 190.409 443.044 190.26 443.034 190.108C443.024 189.956 443.045 189.803 443.096 189.659L443.121 189.588C443.419 188.221 443.328 186.798 442.859 185.48C442.424 183.984 441.855 182.531 441.158 181.139C441.079 180.978 441.033 180.804 441.023 180.626C441.013 180.448 441.039 180.27 441.099 180.102L441.129 180.019C441.338 179.471 441.433 178.887 441.409 178.302C441.346 177.674 441.183 177.06 440.926 176.484C440.642 175.86 440.288 175.27 439.871 174.725C439.458 174.172 438.996 173.658 438.489 173.19C438.27 172.993 438.116 172.733 438.049 172.446C437.982 172.159 438.005 171.858 438.115 171.584L438.149 171.501C438.599 170.425 438.623 169.217 438.215 168.124C437.653 167.072 436.711 166.275 435.581 165.895C432.837 165.034 429.926 164.847 427.094 165.35C421.001 166.198 415 167.609 409.168 169.564L409.154 169.568C408.959 169.63 408.754 169.658 408.55 169.65C403.109 169.422 397.605 171.828 391.928 173.601C389.058 174.494 386.349 175.498 383.188 176.163C380.157 176.796 377.182 177.117 374.193 177.462C362.259 178.573 350.37 178.958 338.469 179.098L334.008 179.141L331.777 179.153L330.662 179.158C330.273 179.16 329.821 179.146 329.404 179.108C326.842 178.868 324.436 177.771 322.574 175.994C321.948 175.375 321.522 174.893 320.987 174.336L308.82 161.322C300.716 152.639 292.671 143.898 284.685 135.1C284.655 135.067 284.638 135.023 284.64 134.977C284.641 134.932 284.66 134.889 284.693 134.857C284.726 134.825 284.769 134.808 284.815 134.808C284.86 134.808 284.904 134.826 284.937 134.857C293.479 143.116 301.953 151.442 310.356 159.835L322.967 172.42C323.472 172.922 324.053 173.531 324.495 173.944C325.917 175.236 327.732 176.013 329.649 176.147C330.24 176.192 330.967 176.145 331.727 176.129L333.949 176.063L338.392 175.913C350.229 175.423 362.097 174.959 373.803 173.736C376.71 173.406 379.648 173.089 382.433 172.508C385.093 171.969 387.983 170.937 390.778 170.065C393.598 169.162 396.409 168.219 399.354 167.401C402.379 166.481 405.534 166.062 408.695 166.159L408.077 166.245C411.147 165.289 414.185 164.475 417.292 163.763C420.409 163.028 423.568 162.482 426.751 162.128C428.387 161.953 430.034 161.893 431.678 161.949C433.436 162.007 435.168 162.382 436.793 163.056C438.633 163.774 440.125 165.174 440.956 166.966C441.332 167.901 441.492 168.909 441.423 169.914C441.368 170.889 441.134 171.846 440.733 172.737L440.393 171.049C441.038 171.664 441.623 172.34 442.139 173.068C442.665 173.794 443.107 174.577 443.457 175.402C443.823 176.281 444.041 177.215 444.102 178.165C444.128 179.164 443.939 180.157 443.548 181.077L443.519 179.958C444.259 181.531 444.841 183.173 445.257 184.86C445.479 185.732 445.617 186.624 445.667 187.522C445.749 188.525 445.604 189.533 445.244 190.473L445.211 189.517C445.608 190.402 445.843 191.351 445.905 192.319C445.978 193.36 445.738 194.399 445.216 195.303L445.06 194.017C445.18 194.141 445.269 194.291 445.319 194.455C445.37 194.62 445.381 194.794 445.351 194.963C445.311 195.193 445.195 195.403 445.021 195.56C444.943 195.634 444.853 195.695 444.756 195.742L445.195 195.332C444.835 195.927 444.331 196.421 443.729 196.771C443.173 197.122 442.566 197.386 441.931 197.554C441.287 197.693 440.623 197.712 439.972 197.61C439.395 197.503 438.829 197.347 438.278 197.143C436.293 196.491 434.254 196.019 432.184 195.733C430.237 195.345 428.219 195.549 426.388 196.317C424.604 197.536 422.74 198.633 420.809 199.603C416.833 201.486 412.466 202.398 408.068 202.262C403.725 202.124 399.423 201.372 395.291 200.028L395.474 200.052C390.974 200.6 386.544 201.626 382.26 203.111C377.925 204.508 373.69 206.211 369.514 208.032C365.36 209.911 361.235 211.85 357.206 213.987C353.104 216.03 349.333 218.434 344.975 220.423C336.238 224.275 326.494 225.22 317.18 223.118C312.551 222.066 308.117 220.291 304.04 217.86C300.018 215.395 296.363 212.377 293.181 208.896L293.301 209.007C286.289 203.164 279.448 197.135 272.625 191.078C269.207 188.058 265.854 184.963 262.565 181.792C260.912 180.218 259.285 178.614 257.684 176.981C256.901 176.144 256.094 175.339 255.353 174.459L254.24 173.143C253.893 172.678 253.582 172.174 253.257 171.697C253.231 171.659 253.222 171.612 253.231 171.568C253.239 171.523 253.265 171.483 253.302 171.458C253.34 171.432 253.386 171.421 253.431 171.429C253.476 171.437 253.516 171.462 253.542 171.499L253.565 171.532Z" fill="black"/>
<path d="M417.051 172.382C420.717 171.21 424.487 170.394 428.309 169.946C430.238 169.711 432.186 169.675 434.122 169.839C436.139 169.935 438.093 170.573 439.778 171.687C439.896 171.773 439.974 171.902 439.996 172.046C440.019 172.19 439.983 172.337 439.897 172.454C439.811 172.572 439.682 172.65 439.538 172.672C439.394 172.695 439.247 172.659 439.13 172.573L439.102 172.551C437.608 171.479 435.855 170.825 434.024 170.657C432.145 170.407 430.245 170.353 428.355 170.493C424.535 170.758 420.749 171.391 417.051 172.382V172.382Z" fill="black"/>
<path d="M422.055 178.825C425.492 178.079 428.988 177.634 432.502 177.495C434.279 177.436 436.058 177.545 437.815 177.82C439.691 178.025 441.439 178.868 442.768 180.208C442.864 180.317 442.914 180.46 442.905 180.605C442.896 180.751 442.83 180.887 442.721 180.983C442.667 181.031 442.604 181.068 442.536 181.091C442.468 181.115 442.395 181.125 442.323 181.12C442.178 181.112 442.042 181.045 441.945 180.936L441.925 180.912L441.906 180.888C440.781 179.677 439.281 178.88 437.648 178.626C435.955 178.271 434.233 178.076 432.503 178.044C429.004 178 425.508 178.262 422.055 178.825V178.825Z" fill="black"/>
<path d="M423.898 185.816C427.464 185.171 431.098 184.994 434.709 185.289C436.541 185.423 438.345 185.818 440.066 186.462C441.863 187.098 443.445 188.226 444.632 189.718C444.676 189.776 444.707 189.841 444.726 189.912C444.744 189.982 444.748 190.055 444.738 190.126C444.728 190.198 444.704 190.267 444.667 190.329C444.63 190.391 444.582 190.446 444.524 190.489C444.466 190.533 444.4 190.564 444.33 190.582C444.259 190.6 444.186 190.604 444.115 190.593C444.043 190.583 443.974 190.558 443.912 190.521C443.85 190.484 443.796 190.435 443.753 190.377L443.738 190.356L443.73 190.343C442.72 188.952 441.342 187.872 439.75 187.222C438.123 186.518 436.403 186.051 434.643 185.834C431.077 185.361 427.466 185.355 423.898 185.816Z" fill="black"/>
<path d="M367.183 10.0653V115.954L514.163 128.993V10.0653H367.183ZM497.963 113.188L382.197 103.706V24.2892L497.963 23.1037V113.188Z" fill="black"/>
<path d="M390.928 32.8526C391.082 36.0932 391.217 39.2039 391.288 42.2638C391.366 45.3279 391.415 48.3409 391.298 51.3837L390.89 50.975C393.502 51.0627 396.114 51.1927 398.726 51.2046C401.338 51.2307 403.95 51.1703 406.562 51.0834L406.262 51.3837C406.147 48.2887 406.065 45.1936 406.036 42.0989C405.976 39.0039 405.973 35.9088 406.003 32.8141L406.562 33.3726C404.02 33.3837 401.466 33.2573 398.883 33.1946L390.928 32.8526ZM390.851 32.7749L398.568 32.4328C401.209 32.3703 403.88 32.244 406.562 32.2551C406.71 32.2565 406.851 32.3159 406.955 32.4204C407.06 32.5249 407.119 32.6662 407.121 32.814C407.151 35.9088 407.147 39.0038 407.088 42.0988C407.059 45.1936 406.976 48.2886 406.862 51.3836L406.862 51.4045C406.86 51.4426 406.852 51.48 406.836 51.5147C406.82 51.5494 406.798 51.5806 406.77 51.6066C406.742 51.6325 406.709 51.6528 406.674 51.6661C406.638 51.6794 406.6 51.6855 406.562 51.6841C403.95 51.5972 401.338 51.5368 398.726 51.5631C396.114 51.5748 393.502 51.7048 390.89 51.7925C390.838 51.7942 390.786 51.7857 390.738 51.7675C390.689 51.7492 390.644 51.7216 390.607 51.6862C390.569 51.6508 390.538 51.6082 390.517 51.561C390.495 51.5138 390.483 51.4628 390.482 51.4109L390.481 51.3836C390.364 48.2361 390.413 45.0593 390.491 41.9336C390.561 38.8034 390.697 35.7244 390.85 32.7749H390.851Z" fill="black"/>
<path d="M466.099 31.2146C466.37 37.5201 466.553 43.6595 466.714 49.7506C466.902 55.8565 466.985 61.8556 467.055 67.8508C467.124 73.8417 467.031 79.7659 466.834 85.7216C466.669 91.6784 466.424 97.6813 466.407 103.711L466.009 103.313C469.579 103.363 473.148 103.27 476.717 103.255C480.286 103.229 483.856 103.093 487.425 103.017L486.731 103.711C486.533 97.6618 486.389 91.6129 486.296 85.5643L486.092 67.4179C486.046 61.369 486.062 55.3201 486.139 49.2714L486.474 31.1249L487.425 32.0756L476.95 31.6868L466.099 31.2146ZM465.92 31.0351L476.484 30.5631L487.425 30.174C487.545 30.1698 487.665 30.1893 487.778 30.2314C487.891 30.2735 487.995 30.3375 488.083 30.4196C488.171 30.5018 488.242 30.6005 488.292 30.7101C488.342 30.8198 488.37 30.9382 488.374 31.0586L488.375 31.0693L488.376 31.125L488.711 49.2715C488.782 55.3203 488.798 61.3691 488.758 67.4181L488.554 85.5644C488.455 91.6131 488.31 97.662 488.119 103.711L488.118 103.748C488.112 103.927 488.036 104.096 487.906 104.219C487.776 104.342 487.603 104.409 487.425 104.405C483.856 104.329 480.286 104.193 476.717 104.167C473.148 104.152 469.579 104.059 466.009 104.108C465.958 104.109 465.907 104.1 465.859 104.081C465.811 104.062 465.767 104.033 465.731 103.997C465.694 103.962 465.664 103.919 465.644 103.871C465.623 103.824 465.613 103.773 465.612 103.722L465.612 103.711C465.595 97.6427 465.349 91.5478 465.185 85.407C464.988 79.265 464.895 73.0914 464.964 66.985C465.034 60.8824 465.117 54.7837 465.304 48.7921C465.466 42.7855 465.649 36.8274 465.92 31.0351Z" fill="black"/>
<path d="M450.525 133.709V123.347L434.327 121.91V132.084C424.489 132.349 417.16 135.048 416.774 139.029C416.289 144.024 426.914 149.143 440.506 150.462C454.097 151.781 465.508 148.8 465.992 143.805C466.373 139.882 459.902 135.884 450.525 133.709Z" fill="black"/>
<path d="M298.969 149.585C307.008 144.461 315.141 139.492 323.3 134.57C323.396 134.514 323.508 134.492 323.617 134.509C331.167 135.669 338.689 137 346.208 138.349C353.725 139.718 361.267 140.927 368.82 142.061L391.48 145.48C399.025 146.672 406.579 147.806 414.112 149.07C414.261 149.095 414.394 149.177 414.483 149.3C414.571 149.422 414.607 149.575 414.582 149.724C414.558 149.869 414.479 149.999 414.362 150.087C408.769 154.287 403.136 158.434 397.464 162.528L388.985 168.709L380.453 174.818C380.441 174.826 380.427 174.83 380.413 174.827C380.398 174.825 380.386 174.817 380.377 174.806C380.368 174.795 380.365 174.78 380.367 174.766C380.368 174.752 380.376 174.739 380.387 174.73L388.655 168.268L396.977 161.878C402.516 157.605 408.084 153.372 413.68 149.176L413.93 150.193C406.383 149.015 398.858 147.705 391.322 146.455L368.742 142.544C361.216 141.236 353.679 140.002 346.115 138.927C338.554 137.834 330.996 136.721 323.466 135.439L323.783 135.378C315.579 140.227 307.349 145.031 299.025 149.679C299.012 149.686 298.998 149.688 298.984 149.684C298.97 149.68 298.958 149.671 298.951 149.659C298.944 149.647 298.942 149.632 298.945 149.618C298.948 149.604 298.957 149.592 298.969 149.585V149.585Z" fill="black"/>
<path d="M308.715 159.673C313.338 160.856 317.926 162.154 322.509 163.469L336.217 167.545L349.85 171.864C354.381 173.347 358.907 174.848 363.397 176.465C358.773 175.284 354.185 173.985 349.603 172.671L335.895 168.593L322.262 164.273C317.731 162.789 313.205 161.289 308.715 159.673Z" fill="black"/>
<path d="M464.28 139.978C467.052 139.602 469.857 139.52 472.646 139.735C475.514 139.873 478.322 140.595 480.901 141.856C482.248 142.557 483.41 143.568 484.289 144.807C485.164 146.1 485.649 147.618 485.685 149.179C485.713 150.678 485.488 152.17 485.021 153.594C484.607 155.06 483.897 156.425 482.935 157.606C481.973 158.787 480.794 159.773 479.461 160.51C478.208 161.233 476.895 161.844 475.535 162.336C472.829 163.343 469.976 163.899 467.089 163.98C464.242 164.039 461.401 163.669 458.664 162.883C456.037 162.073 453.24 161.988 450.569 162.636C451.818 161.958 453.21 161.585 454.631 161.548C456.047 161.456 457.47 161.505 458.877 161.695C461.551 162.177 464.277 162.316 466.987 162.107C469.655 161.889 472.278 161.29 474.775 160.328C476.017 159.847 477.222 159.274 478.379 158.614C479.495 158.025 480.485 157.225 481.296 156.258C482.107 155.291 482.729 154.179 483.127 152.981C483.565 151.776 483.798 150.506 483.816 149.224C483.841 147.993 483.516 146.78 482.879 145.726C482.188 144.662 481.258 143.775 480.162 143.135C477.803 141.819 475.219 140.954 472.543 140.584C469.81 140.148 467.046 139.946 464.28 139.978V139.978Z" fill="black"/>
<path d="M452.973 170.078C452.973 170.078 452.501 185.498 444.303 194.761C444.631 194.012 444.791 193.2 444.77 192.382C444.749 191.565 444.549 190.762 444.182 190.03C445.499 186.87 442.338 180.548 442.338 180.548C444.182 176.333 439.44 172.119 439.44 172.119C439.44 172.119 442.338 166.06 434.699 163.953C434.699 163.953 455.574 154.207 452.973 170.078Z" fill="black"/>
<path d="M497.784 285.422C497.709 285.423 497.635 285.411 497.565 285.388L356.289 238.673C356.202 238.644 356.121 238.598 356.052 238.538C355.982 238.478 355.925 238.405 355.884 238.323C355.843 238.241 355.818 238.152 355.811 238.06C355.804 237.968 355.816 237.876 355.844 237.789C355.873 237.702 355.919 237.621 355.979 237.552C356.039 237.482 356.112 237.425 356.194 237.384C356.276 237.343 356.366 237.318 356.457 237.311C356.549 237.304 356.641 237.316 356.728 237.345L497.707 283.963L679.229 180.142V171.814L342.575 110.416L287.443 131.68C287.27 131.746 287.078 131.741 286.909 131.665C286.74 131.59 286.608 131.451 286.541 131.278C286.474 131.106 286.479 130.914 286.554 130.745C286.628 130.575 286.767 130.443 286.939 130.375L342.255 109.04C342.376 108.997 342.505 108.984 342.632 109.004L680.054 170.542C680.215 170.571 680.36 170.656 680.465 170.782C680.57 170.908 680.627 171.066 680.627 171.23V180.548C680.628 180.671 680.595 180.792 680.533 180.898C680.472 181.005 680.383 181.093 680.276 181.154L498.131 285.33C498.026 285.391 497.906 285.422 497.784 285.422V285.422Z" fill="black"/>
<path d="M497.389 276.58C497.333 276.58 497.277 276.572 497.224 276.555L347.083 229.054C347.014 229.032 346.95 228.997 346.895 228.951C346.84 228.904 346.795 228.848 346.762 228.784C346.695 228.655 346.682 228.504 346.726 228.366C346.77 228.227 346.867 228.112 346.996 228.045C347.125 227.978 347.275 227.965 347.414 228.009L497.325 275.436L679.656 170.753C679.718 170.717 679.787 170.694 679.859 170.685C679.93 170.676 680.003 170.681 680.073 170.7C680.142 170.719 680.207 170.751 680.264 170.795C680.322 170.839 680.369 170.894 680.405 170.956C680.441 171.019 680.464 171.088 680.474 171.16C680.483 171.231 680.478 171.304 680.459 171.373C680.44 171.443 680.408 171.508 680.364 171.565C680.32 171.622 680.265 171.67 680.202 171.706L497.663 276.509C497.579 276.556 497.485 276.58 497.389 276.58V276.58Z" fill="black"/>
<path d="M497.784 285.272C497.643 285.272 497.507 285.218 497.406 285.121C497.304 285.023 497.243 284.89 497.237 284.75L496.841 276.058C496.838 275.986 496.849 275.914 496.873 275.846C496.898 275.778 496.935 275.716 496.984 275.663C497.033 275.609 497.091 275.566 497.157 275.536C497.222 275.505 497.293 275.488 497.365 275.484C497.509 275.483 497.648 275.536 497.754 275.633C497.86 275.73 497.926 275.863 497.937 276.007L498.333 284.698C498.336 284.77 498.325 284.842 498.301 284.91C498.276 284.978 498.239 285.041 498.19 285.094C498.141 285.147 498.083 285.19 498.018 285.221C497.952 285.251 497.881 285.269 497.809 285.272H497.784Z" fill="black"/>
<path d="M497.835 282.17L498.933 349.286L499.756 416.401C500.052 438.773 500.664 461.145 500.304 483.517C500.107 494.703 499.909 505.889 499.473 517.074L498.813 533.853C498.483 539.446 498.256 545.039 497.835 550.632C497.83 550.701 497.799 550.766 497.748 550.813C497.697 550.861 497.63 550.887 497.561 550.887C497.491 550.887 497.424 550.861 497.374 550.813C497.323 550.766 497.292 550.701 497.286 550.632C496.865 545.039 496.638 539.446 496.309 533.853L495.648 517.074C495.213 505.889 495.015 494.703 494.817 483.517C494.458 461.145 495.069 438.773 495.366 416.401L496.189 349.286L497.286 282.17C497.288 282.098 497.317 282.029 497.368 281.979C497.42 281.928 497.489 281.9 497.561 281.9C497.633 281.9 497.702 281.928 497.753 281.979C497.805 282.029 497.834 282.098 497.835 282.17Z" fill="black"/>
<path d="M665.98 190.03L667.077 257.146L667.9 324.262C668.197 346.634 668.809 369.005 668.449 391.377C668.251 402.563 668.053 413.749 667.618 424.935L666.958 441.714C666.628 447.307 666.401 452.9 665.98 458.493C665.974 458.562 665.943 458.627 665.892 458.674C665.842 458.721 665.775 458.747 665.705 458.747C665.636 458.747 665.569 458.721 665.518 458.674C665.467 458.627 665.436 458.562 665.431 458.493C665.01 452.9 664.783 447.307 664.453 441.714L663.793 424.935C663.358 413.749 663.159 402.563 662.961 391.377C662.602 369.005 663.214 346.634 663.51 324.262L664.333 257.146L665.431 190.03C665.432 189.958 665.461 189.89 665.513 189.839C665.564 189.788 665.633 189.76 665.705 189.76C665.777 189.76 665.847 189.788 665.898 189.839C665.949 189.89 665.979 189.958 665.98 190.03H665.98Z" fill="black"/>
<path d="M386.365 374.414C386.365 374.414 398.918 375.46 442.037 405.066C449.092 410.002 457.724 412.151 466.27 411.1C468.547 410.847 470.777 410.275 472.894 409.4C472.894 409.4 505.688 417.876 476.45 423.407C476.45 423.407 434.568 424.593 403.355 401.676L403.75 414.32H387.946C387.946 414.32 380.834 381.526 386.365 374.414Z" fill="black"/>
<path d="M399.779 326.251C402.204 330.334 404.504 334.483 406.87 338.597L413.758 351.05C416.081 355.183 418.264 359.404 420.516 363.564C422.742 367.672 425.404 371.528 428.455 375.067C429.955 376.854 431.547 378.562 433.225 380.184C434.897 381.795 436.706 383.321 438.495 384.878C442.066 387.985 445.73 390.979 449.354 394.02C453 397.033 456.709 399.971 460.548 402.723C462.45 404.123 464.398 405.46 466.418 406.677L467.95 407.561L469.533 408.342C470.593 408.863 471.726 409.22 472.893 409.4C470.51 409.147 468.208 408.393 466.138 407.187C464.013 406.1 461.955 404.889 459.943 403.613C455.946 401.018 452.099 398.212 448.306 395.344C444.495 392.495 440.852 389.438 437.2 386.399C435.39 384.867 433.549 383.36 431.781 381.705C426.475 376.769 422.068 370.948 418.756 364.503C416.58 360.275 414.362 356.093 412.27 351.832L405.923 339.095C403.878 334.812 401.766 330.564 399.779 326.251Z" fill="black"/>
<path d="M370.772 355.273C373.943 357.937 376.839 360.911 379.419 364.151C382.073 367.329 384.4 370.768 386.363 374.414C383.19 371.754 380.293 368.779 377.718 365.536C375.067 362.355 372.74 358.917 370.772 355.273Z" fill="black"/>
<path d="M296.238 470.562C296.238 470.562 308.818 469.928 355.495 493.529C363.144 497.482 371.986 498.463 380.315 496.283C382.538 495.729 384.672 494.865 386.654 493.716C386.654 493.716 420.285 497.751 392.044 507.126C392.044 507.126 350.693 513.877 316.706 495.32L318.781 507.798L303.117 509.902C303.117 509.902 291.703 478.347 296.238 470.562Z" fill="black"/>
<path d="M322.721 431.554C323.757 435.417 324.657 439.308 325.628 443.185L326.973 449.022C327.345 450.931 327.94 452.789 328.744 454.559C329.554 456.294 330.587 457.916 331.816 459.384C333.08 460.854 334.46 462.288 335.87 463.646C338.689 466.385 341.745 468.869 345 471.071C351.613 475.453 358.356 479.746 365.153 483.871C368.557 485.931 372.005 487.92 375.544 489.722C377.291 490.663 379.086 491.513 380.922 492.268C382.726 493.104 384.67 493.595 386.654 493.716C384.637 493.834 382.618 493.527 380.727 492.816C378.811 492.207 376.927 491.499 375.083 490.695C371.41 489.07 367.844 487.232 364.314 485.336C357.257 481.519 350.489 477.282 343.766 472.885C340.418 470.589 337.288 467.991 334.416 465.123C332.989 463.674 331.633 462.193 330.334 460.601C329.029 458.976 327.973 457.165 327.202 455.228C326.447 453.319 325.916 451.328 325.62 449.297L324.58 443.397C323.963 439.449 323.273 435.516 322.721 431.554Z" fill="black"/>
<path d="M295.172 441.202C296.125 446.028 296.669 450.925 296.801 455.842C297.031 460.756 296.842 465.681 296.237 470.562C295.28 465.737 294.735 460.84 294.609 455.922C294.383 451.009 294.572 446.085 295.172 441.202V441.202Z" fill="black"/>
<path d="M258.823 50.4952C256.586 50.7142 254.33 50.3294 252.292 49.3806C251.228 48.9109 250.296 48.1879 249.577 47.2747C248.86 46.3573 248.534 45.1944 248.67 44.0382C248.972 45.03 249.499 45.9387 250.209 46.6938C250.92 47.4488 251.795 48.0299 252.766 48.3917C254.728 49.249 256.753 49.9523 258.823 50.4952V50.4952Z" fill="black"/>
<path d="M471.061 40.0409C471.741 40.0174 472.385 39.7308 472.858 39.2416C473.33 38.7523 473.594 38.0988 473.594 37.4186C473.594 36.7384 473.33 36.0848 472.858 35.5956C472.385 35.1064 471.741 34.8198 471.061 34.7963C470.382 34.8198 469.738 35.1064 469.265 35.5956C468.792 36.0848 468.528 36.7384 468.528 37.4186C468.528 38.0988 468.792 38.7523 469.265 39.2416C469.738 39.7308 470.382 40.0174 471.061 40.0409V40.0409Z" fill="black"/>
<path d="M471.481 54.516C472.161 54.4925 472.805 54.2059 473.278 53.7167C473.75 53.2275 474.014 52.5739 474.014 51.8937C474.014 51.2135 473.75 50.5599 473.278 50.0707C472.805 49.5815 472.161 49.2949 471.481 49.2714C470.802 49.2949 470.157 49.5815 469.685 50.0707C469.212 50.5599 468.948 51.2135 468.948 51.8937C468.948 52.5739 469.212 53.2275 469.685 53.7167C470.157 54.2059 470.802 54.4925 471.481 54.516Z" fill="black"/>
<path d="M471.691 70.0402C472.371 70.0166 473.015 69.73 473.488 69.2408C473.96 68.7516 474.224 68.098 474.224 67.4179C474.224 66.7377 473.96 66.0841 473.488 65.5949C473.015 65.1057 472.371 64.8191 471.691 64.7955C471.012 64.8191 470.367 65.1057 469.895 65.5949C469.422 66.0841 469.158 66.7377 469.158 67.4179C469.158 68.098 469.422 68.7516 469.895 69.2408C470.367 69.73 471.012 70.0166 471.691 70.0402V70.0402Z" fill="black"/>
<path d="M471.691 87.2428C472.371 87.2193 473.015 86.9327 473.488 86.4435C473.96 85.9543 474.224 85.3007 474.224 84.6205C474.224 83.9403 473.96 83.2867 473.488 82.7975C473.015 82.3083 472.371 82.0217 471.691 81.9982C471.012 82.0217 470.367 82.3083 469.895 82.7975C469.422 83.2867 469.158 83.9403 469.158 84.6205C469.158 85.3007 469.422 85.9543 469.895 86.4435C470.367 86.9327 471.012 87.2193 471.691 87.2428V87.2428Z" fill="black"/>
<path d="M472.109 101.089C472.789 101.065 473.433 100.778 473.906 100.289C474.378 99.8 474.642 99.1464 474.642 98.4662C474.642 97.786 474.378 97.1324 473.906 96.6432C473.433 96.154 472.789 95.8674 472.109 95.8439C471.429 95.8674 470.785 96.154 470.313 96.6432C469.84 97.1324 469.576 97.786 469.576 98.4662C469.576 99.1464 469.84 99.8 470.313 100.289C470.785 100.778 471.429 101.065 472.109 101.089V101.089Z" fill="black"/>
<path d="M398.66 43.1692C399.04 43.1671 399.412 43.058 399.733 42.8545C400.054 42.6509 400.311 42.3611 400.474 42.0183C400.742 41.4202 400.924 40.7875 401.015 40.1388C401.098 39.792 401.108 39.4317 401.045 39.0808C400.982 38.7298 400.846 38.3958 400.648 38.0997C400.405 37.8235 400.092 37.618 399.742 37.5051C399.392 37.3921 399.019 37.3758 398.66 37.458C398.021 37.5873 397.445 37.9287 397.024 38.4269C396.672 38.9286 396.484 39.5276 396.487 40.1407C396.472 40.7818 396.6 41.4181 396.863 42.0031C397.022 42.347 397.276 42.6388 397.594 42.845C397.912 43.0513 398.281 43.1637 398.66 43.1692V43.1692ZM398.66 43.3245C397.768 43.3798 396.88 43.1619 396.115 42.6999C395.713 42.4059 395.386 42.0203 395.163 41.5752C394.94 41.13 394.826 40.6381 394.831 40.1401C394.823 39.6358 394.919 39.1353 395.112 38.6694C395.305 38.2036 395.592 37.7823 395.954 37.4316C396.308 37.0903 396.738 36.8377 397.208 36.6944C397.679 36.5512 398.176 36.5213 398.66 36.6074C399.543 36.7443 400.365 37.1448 401.016 37.7564C401.715 38.3727 402.173 39.2172 402.308 40.1395C402.364 40.6246 402.289 41.1157 402.093 41.5626C401.896 42.0095 401.584 42.396 401.188 42.6824C400.43 43.1462 399.548 43.37 398.66 43.3245V43.3245Z" fill="black"/>
<path d="M403.685 51.438C402.063 51.71 400.426 51.8924 398.784 51.9843C397.903 52.0229 397.014 52.0685 396.114 52.0453C395.213 52.0246 394.313 51.9066 393.44 51.8249L393.351 51.8163C393.299 51.8115 393.25 51.7967 393.204 51.7728C393.159 51.7488 393.119 51.7161 393.086 51.6765C393.053 51.637 393.029 51.5914 393.013 51.5423C392.998 51.4933 392.993 51.4417 392.998 51.3906L392.998 51.3836C393.123 50.4371 393.192 49.4841 393.206 48.5295C393.144 47.5329 393.286 46.5342 393.622 45.5939C394.017 44.5809 394.706 43.7087 395.599 43.0887C396.493 42.4688 397.551 42.1292 398.638 42.1134C399.726 42.0975 400.793 42.4061 401.705 42.9996C402.616 43.5932 403.329 44.4449 403.754 45.446C404.165 46.4391 404.286 47.5282 404.102 48.5871C403.996 49.6323 403.821 50.6055 403.685 51.438ZM403.577 51.3293L403.159 48.4723C403.114 47.6287 402.883 46.8056 402.482 46.0618C402.073 45.3655 401.499 44.78 400.811 44.3565C400.123 43.9329 399.341 43.6843 398.535 43.6322C397.689 43.6108 396.852 43.8099 396.107 44.2098C395.361 44.6098 394.732 45.197 394.282 45.9135C393.81 46.7003 393.598 47.6153 393.673 48.5294C393.687 49.484 393.756 50.437 393.881 51.3835L393.44 50.9426C394.265 50.8607 395.063 50.7427 395.861 50.722C396.659 50.6987 397.469 50.7444 398.286 50.783C399.929 50.8822 401.643 51.0808 403.577 51.3293V51.3293Z" fill="black"/>
<path d="M413.396 32.8526C413.55 36.0932 413.685 39.2039 413.756 42.2638C413.834 45.3279 413.882 48.3409 413.766 51.3837L413.357 50.975C415.969 51.0627 418.581 51.1927 421.193 51.2046C423.805 51.2307 426.418 51.1703 429.03 51.0834L428.729 51.3837C428.615 48.2887 428.533 45.1936 428.504 42.0989C428.444 39.0039 428.441 35.9088 428.471 32.8141L429.03 33.3726C426.488 33.3837 423.934 33.2573 421.351 33.1946L413.396 32.8526ZM413.318 32.7749L421.036 32.4328C423.677 32.3703 426.347 32.244 429.03 32.2551C429.177 32.2565 429.319 32.3159 429.423 32.4204C429.528 32.5249 429.587 32.6662 429.588 32.814C429.619 35.9088 429.615 39.0038 429.555 42.0988C429.527 45.1936 429.444 48.2886 429.33 51.3836L429.33 51.4045C429.328 51.4426 429.319 51.48 429.304 51.5147C429.288 51.5494 429.265 51.5806 429.238 51.6066C429.21 51.6325 429.177 51.6528 429.141 51.6661C429.106 51.6794 429.068 51.6855 429.03 51.6841C426.418 51.5972 423.805 51.5368 421.193 51.5631C418.581 51.5748 415.969 51.7048 413.357 51.7925C413.306 51.7942 413.254 51.7857 413.205 51.7675C413.157 51.7492 413.112 51.7216 413.074 51.6862C413.037 51.6507 413.006 51.6082 412.985 51.561C412.963 51.5138 412.951 51.4628 412.95 51.4109L412.948 51.3836C412.832 48.2361 412.88 45.0593 412.959 41.9336C413.029 38.8034 413.165 35.7244 413.318 32.7749Z" fill="black"/>
<path d="M421.127 43.1692C421.507 43.1671 421.879 43.058 422.2 42.8545C422.52 42.6509 422.777 42.3611 422.941 42.0183C423.209 41.4202 423.39 40.7875 423.482 40.1388C423.565 39.792 423.575 39.4317 423.512 39.0808C423.448 38.7298 423.313 38.3958 423.114 38.0997C422.872 37.8235 422.559 37.618 422.209 37.5051C421.859 37.3921 421.485 37.3758 421.127 37.458C420.488 37.5873 419.911 37.9287 419.491 38.4269C419.138 38.9286 418.951 39.5276 418.954 40.1407C418.939 40.7818 419.067 41.4181 419.33 42.0031C419.489 42.347 419.742 42.6388 420.06 42.845C420.378 43.0513 420.748 43.1637 421.127 43.1692V43.1692ZM421.127 43.3245C420.235 43.3798 419.347 43.1619 418.581 42.6999C418.179 42.4059 417.853 42.0203 417.63 41.5752C417.407 41.13 417.293 40.6381 417.297 40.1401C417.29 39.6358 417.385 39.1353 417.579 38.6694C417.772 38.2036 418.059 37.7823 418.421 37.4316C418.775 37.0903 419.205 36.8377 419.675 36.6944C420.145 36.5512 420.643 36.5213 421.127 36.6074C422.01 36.7443 422.831 37.1448 423.483 37.7564C424.182 38.3727 424.64 39.2172 424.775 40.1395C424.831 40.6246 424.756 41.1157 424.559 41.5626C424.363 42.0095 424.051 42.396 423.655 42.6824C422.896 43.1462 422.015 43.37 421.127 43.3245Z" fill="black"/>
<path d="M426.152 51.438C424.529 51.71 422.893 51.8924 421.251 51.9843C420.37 52.0229 419.481 52.0686 418.58 52.0453C417.68 52.0246 416.78 51.9066 415.907 51.8249L415.817 51.8163C415.766 51.8116 415.717 51.7968 415.671 51.7728C415.626 51.7488 415.586 51.7161 415.553 51.6766C415.52 51.637 415.495 51.5914 415.48 51.5424C415.465 51.4933 415.46 51.4417 415.465 51.3906L415.465 51.3836C415.59 50.4371 415.659 49.4841 415.672 48.5295C415.611 47.5329 415.753 46.5343 416.089 45.5939C416.484 44.5809 417.173 43.7087 418.066 43.0888C418.96 42.4688 420.018 42.1292 421.105 42.1134C422.193 42.0975 423.26 42.4061 424.171 42.9996C425.083 43.5932 425.796 44.445 426.221 45.446C426.632 46.4391 426.752 47.5282 426.569 48.5871C426.463 49.6323 426.288 50.6055 426.152 51.438ZM426.043 51.3294L425.626 48.4723C425.581 47.6287 425.35 46.8056 424.949 46.0619C424.539 45.3655 423.966 44.78 423.278 44.3565C422.59 43.933 421.808 43.6843 421.002 43.6322C420.156 43.6108 419.319 43.8099 418.573 44.2099C417.828 44.6099 417.199 45.197 416.749 45.9135C416.277 46.7004 416.064 47.6153 416.14 48.5295C416.153 49.4841 416.223 50.437 416.347 51.3835L415.907 50.9427C416.732 50.8607 417.53 50.7427 418.328 50.722C419.126 50.6987 419.936 50.7444 420.753 50.783C422.396 50.8823 424.11 51.0808 426.043 51.3294Z" fill="black"/>
<path d="M436.282 32.8526C436.435 36.0932 436.571 39.2039 436.642 42.2638C436.72 45.3279 436.768 48.3409 436.652 51.3837L436.243 50.975C438.855 51.0627 441.467 51.1927 444.079 51.2046C446.691 51.2307 449.303 51.1703 451.915 51.0834L451.615 51.3837C451.501 48.2887 451.419 45.1936 451.39 42.0989C451.33 39.0039 451.326 35.9088 451.357 32.8141L451.915 33.3726C449.373 33.3837 446.82 33.2573 444.237 33.1946L436.282 32.8526ZM436.204 32.7749L443.921 32.4328C446.563 32.3703 449.233 32.244 451.915 32.2551C452.063 32.2565 452.204 32.3159 452.309 32.4204C452.413 32.5249 452.473 32.6662 452.474 32.814C452.505 35.9088 452.501 39.0038 452.441 42.0988C452.412 45.1936 452.33 48.2886 452.216 51.3836L452.215 51.4045C452.214 51.4426 452.205 51.48 452.189 51.5147C452.174 51.5494 452.151 51.5806 452.123 51.6066C452.095 51.6325 452.063 51.6527 452.027 51.6661C451.991 51.6794 451.953 51.6855 451.915 51.6841C449.303 51.5972 446.691 51.5368 444.079 51.5631C441.467 51.5748 438.855 51.7048 436.243 51.7925C436.191 51.7942 436.14 51.7857 436.091 51.7675C436.042 51.7492 435.998 51.7216 435.96 51.6862C435.922 51.6508 435.892 51.6082 435.87 51.561C435.849 51.5138 435.837 51.4628 435.835 51.4109L435.834 51.3836C435.718 48.2361 435.766 45.0593 435.844 41.9336C435.915 38.8034 436.051 35.7244 436.204 32.7749Z" fill="black"/>
<path d="M444.013 43.1692C444.393 43.1671 444.764 43.0581 445.085 42.8545C445.406 42.651 445.663 42.3612 445.827 42.0183C446.094 41.4203 446.276 40.7875 446.368 40.1388C446.45 39.792 446.461 39.4317 446.397 39.0808C446.334 38.7298 446.199 38.3958 446 38.0997C445.758 37.8235 445.445 37.618 445.095 37.5051C444.745 37.3921 444.371 37.3759 444.013 37.458C443.374 37.5873 442.797 37.9287 442.377 38.4269C442.024 38.9286 441.837 39.5276 441.84 40.1407C441.825 40.7817 441.953 41.418 442.215 42.0031C442.375 42.3469 442.628 42.6387 442.946 42.845C443.264 43.0513 443.634 43.1637 444.013 43.1692V43.1692ZM444.013 43.3245C443.12 43.3798 442.233 43.1619 441.467 42.6999C441.065 42.4059 440.739 42.0203 440.516 41.5752C440.292 41.13 440.178 40.6381 440.183 40.1401C440.175 39.6358 440.271 39.1353 440.465 38.6695C440.658 38.2036 440.944 37.7823 441.307 37.4316C441.661 37.0903 442.09 36.8377 442.561 36.6944C443.031 36.5512 443.529 36.5213 444.013 36.6074C444.896 36.7442 445.717 37.1447 446.369 37.7564C447.068 38.3727 447.526 39.2172 447.661 40.1395C447.716 40.6246 447.642 41.1158 447.445 41.5626C447.248 42.0095 446.936 42.396 446.541 42.6824C445.782 43.1462 444.901 43.3701 444.013 43.3245Z" fill="black"/>
<path d="M449.038 51.438C447.415 51.7101 445.779 51.8924 444.137 51.9843C443.256 52.023 442.367 52.0686 441.466 52.0454C440.566 52.0247 439.666 51.9067 438.792 51.8249L438.703 51.8164C438.652 51.8116 438.602 51.7968 438.557 51.7728C438.512 51.7488 438.471 51.7161 438.439 51.6766C438.406 51.6371 438.381 51.5914 438.366 51.5424C438.351 51.4933 438.346 51.4418 438.35 51.3907L438.351 51.3836C438.476 50.4371 438.545 49.4842 438.558 48.5296C438.497 47.533 438.639 46.5343 438.975 45.594C439.37 44.5809 440.059 43.7088 440.952 43.0888C441.846 42.4688 442.904 42.1292 443.991 42.1134C445.078 42.0975 446.146 42.4061 447.057 42.9997C447.968 43.5933 448.682 44.445 449.107 45.4461C449.518 46.4392 449.638 47.5283 449.455 48.5872C449.349 49.6324 449.174 50.6055 449.038 51.438ZM448.929 51.3294L448.512 48.4723C448.467 47.6288 448.235 46.8057 447.835 46.0619C447.425 45.3655 446.851 44.78 446.163 44.3565C445.475 43.933 444.694 43.6844 443.888 43.6323C443.042 43.6109 442.205 43.8099 441.459 44.2099C440.713 44.6099 440.085 45.197 439.635 45.9136C439.163 46.7004 438.95 47.6153 439.026 48.5295C439.039 49.4841 439.109 50.4371 439.233 51.3836L438.792 50.9427C439.618 50.8608 440.416 50.7428 441.214 50.7221C442.012 50.6988 442.821 50.7445 443.639 50.7831C445.281 50.8823 446.996 51.0808 448.929 51.3294Z" fill="black"/>
<path d="M426.137 55.9128C426.291 59.1534 426.426 62.2642 426.497 65.324C426.575 68.3881 426.624 71.4012 426.507 74.4439L426.099 74.0352C428.711 74.1229 431.323 74.2529 433.935 74.2649C436.547 74.2909 439.159 74.2305 441.771 74.1436L441.471 74.4439C441.356 71.3489 441.274 68.2538 441.245 65.1591C441.185 62.0641 441.182 58.969 441.212 55.8743L441.771 56.4328C439.229 56.4439 436.675 56.3175 434.092 56.255L426.137 55.9128ZM426.059 55.8351L433.777 55.493C436.418 55.4305 439.089 55.3042 441.771 55.3153C441.919 55.3167 442.06 55.3761 442.164 55.4806C442.269 55.5851 442.328 55.7264 442.33 55.8742C442.36 58.969 442.356 62.064 442.296 65.159C442.268 68.2538 442.185 71.3488 442.071 74.4438L442.071 74.4649C442.069 74.5029 442.061 74.5404 442.045 74.575C442.029 74.6097 442.007 74.6409 441.979 74.6668C441.951 74.6928 441.918 74.7129 441.883 74.7262C441.847 74.7395 441.809 74.7456 441.771 74.7442C439.159 74.6574 436.547 74.597 433.935 74.6232C431.323 74.635 428.711 74.7649 426.099 74.8527C425.994 74.8561 425.892 74.8179 425.816 74.7464C425.739 74.6749 425.694 74.576 425.691 74.4713L425.69 74.4438C425.573 71.2964 425.622 68.1195 425.7 64.9937C425.77 61.8636 425.906 58.7846 426.059 55.8351Z" fill="black"/>
<path d="M433.87 66.2295C434.25 66.2274 434.622 66.1183 434.943 65.9148C435.264 65.7112 435.521 65.4215 435.684 65.0786C435.952 64.4805 436.134 63.8478 436.225 63.1991C436.308 62.8523 436.318 62.492 436.255 62.1411C436.191 61.7901 436.056 61.4561 435.857 61.16C435.615 60.8838 435.302 60.6784 434.952 60.5654C434.602 60.4525 434.229 60.4362 433.87 60.5183C433.231 60.6475 432.655 60.989 432.234 61.4872C431.882 61.9889 431.694 62.5879 431.697 63.201C431.682 63.8421 431.81 64.4784 432.073 65.0634C432.232 65.4072 432.486 65.6991 432.804 65.9053C433.122 66.1116 433.491 66.224 433.87 66.2295ZM433.87 66.3848C432.978 66.4401 432.09 66.2222 431.325 65.7602C430.923 65.4662 430.596 65.0806 430.373 64.6355C430.15 64.1903 430.036 63.6984 430.04 63.2004C430.033 62.6961 430.129 62.1956 430.322 61.7297C430.515 61.2639 430.802 60.8426 431.164 60.4918C431.518 60.1505 431.948 59.898 432.418 59.7547C432.889 59.6115 433.386 59.5816 433.87 59.6677C434.753 59.8045 435.574 60.205 436.226 60.8167C436.925 61.4329 437.383 62.2774 437.518 63.1997C437.574 63.6848 437.499 64.176 437.303 64.6229C437.106 65.0698 436.794 65.4563 436.398 65.7427C435.639 66.2065 434.758 66.4303 433.87 66.3848V66.3848Z" fill="black"/>
<path d="M438.895 74.4982C437.272 74.7702 435.636 74.9526 433.994 75.0445C433.113 75.0833 432.224 75.1288 431.324 75.1055C430.423 75.0848 429.523 74.9668 428.65 74.885L428.561 74.8765C428.509 74.8718 428.46 74.857 428.414 74.833C428.369 74.809 428.329 74.7763 428.296 74.7368C428.263 74.6972 428.238 74.6516 428.223 74.6025C428.208 74.5535 428.203 74.5019 428.208 74.4508L428.208 74.4438C428.333 73.4973 428.402 72.5443 428.416 71.5897C428.354 70.5931 428.496 69.5946 428.832 68.6543C429.227 67.6412 429.916 66.769 430.809 66.149C431.703 65.5291 432.761 65.1895 433.848 65.1736C434.936 65.1577 436.003 65.4662 436.914 66.0598C437.826 66.6534 438.539 67.5051 438.964 68.5062C439.375 69.4993 439.496 70.5884 439.312 71.6473C439.206 72.6925 439.031 73.6656 438.895 74.4982ZM438.786 74.3895L438.369 71.5324C438.324 70.6889 438.093 69.8658 437.692 69.122C437.283 68.4257 436.709 67.8402 436.021 67.4167C435.333 66.9931 434.551 66.7445 433.745 66.6923C432.899 66.6709 432.062 66.87 431.316 67.2699C430.571 67.6699 429.942 68.2571 429.492 68.9736C429.02 69.7605 428.807 70.6754 428.883 71.5896C428.897 72.5442 428.966 73.4972 429.091 74.4437L428.65 74.0028C429.475 73.9208 430.273 73.8028 431.071 73.7821C431.869 73.7588 432.679 73.8045 433.496 73.8433C435.139 73.9424 436.853 74.1409 438.786 74.3895V74.3895Z" fill="black"/>
<path d="M401.701 55.9128C401.854 59.1534 401.99 62.2642 402.06 65.324C402.139 68.3881 402.187 71.4012 402.07 74.4439L401.662 74.0352C404.274 74.1229 406.886 74.2529 409.498 74.2649C412.11 74.2909 414.722 74.2305 417.334 74.1436L417.034 74.4439C416.92 71.3489 416.838 68.2538 416.809 65.1591C416.749 62.0641 416.745 58.969 416.776 55.8743L417.334 56.4328C414.792 56.4439 412.239 56.3175 409.656 56.255L401.701 55.9128ZM401.623 55.8351L409.34 55.493C411.981 55.4305 414.652 55.3042 417.334 55.3153C417.482 55.3167 417.623 55.3761 417.728 55.4806C417.832 55.5851 417.892 55.7264 417.893 55.8742C417.924 58.969 417.92 62.064 417.86 65.159C417.831 68.2538 417.749 71.3488 417.635 74.4438L417.634 74.4649C417.633 74.5029 417.624 74.5404 417.608 74.575C417.593 74.6097 417.57 74.6409 417.542 74.6668C417.514 74.6928 417.482 74.7129 417.446 74.7262C417.41 74.7395 417.372 74.7456 417.334 74.7442C414.722 74.6574 412.11 74.597 409.498 74.6232C406.886 74.635 404.274 74.7649 401.662 74.8527C401.61 74.8544 401.559 74.8459 401.51 74.8277C401.461 74.8095 401.417 74.7819 401.379 74.7465C401.341 74.711 401.311 74.6685 401.289 74.6213C401.268 74.5741 401.256 74.5231 401.254 74.4713L401.253 74.4438C401.137 71.2964 401.185 68.1195 401.263 64.9937C401.334 61.8636 401.469 58.7846 401.623 55.8351Z" fill="black"/>
<path d="M390.928 79.9352C391.082 83.1757 391.217 86.2865 391.288 89.3463C391.366 92.4104 391.415 95.4235 391.298 98.4662L390.89 98.0576C393.502 98.1453 396.114 98.2752 398.726 98.287C401.338 98.3132 403.95 98.2528 406.562 98.1659L406.262 98.4662C406.147 95.3712 406.065 92.2762 406.036 89.1814C405.976 86.0864 405.973 82.9914 406.003 79.8967L406.562 80.4551C404.02 80.4662 401.466 80.3399 398.883 80.2771L390.928 79.9352ZM390.851 79.8575L398.568 79.5154C401.209 79.4526 403.88 79.3266 406.562 79.3376C406.71 79.3391 406.851 79.3984 406.955 79.5029C407.06 79.6074 407.119 79.7488 407.121 79.8965C407.151 82.9913 407.147 86.0864 407.088 89.1813C407.059 92.2761 406.976 95.3711 406.862 98.4661L406.862 98.4871C406.86 98.5252 406.852 98.5626 406.836 98.5972C406.82 98.6319 406.798 98.6631 406.77 98.6891C406.742 98.7151 406.709 98.7353 406.674 98.7486C406.638 98.7619 406.6 98.768 406.562 98.7667C403.95 98.6798 401.338 98.6194 398.726 98.6454C396.114 98.6574 393.502 98.7874 390.89 98.8751C390.838 98.8768 390.786 98.8683 390.738 98.85C390.689 98.8318 390.644 98.8042 390.607 98.7687C390.569 98.7333 390.538 98.6908 390.517 98.6436C390.495 98.5963 390.483 98.5453 390.482 98.4935L390.481 98.4662C390.364 95.3187 390.413 92.1419 390.491 89.0162C390.561 85.8859 390.697 82.8067 390.85 79.8574L390.851 79.8575Z" fill="black"/>
<path d="M398.66 90.2518C399.04 90.2497 399.412 90.1406 399.733 89.9371C400.054 89.7335 400.311 89.4436 400.474 89.1007C400.742 88.5027 400.924 87.8701 401.015 87.2214C401.098 86.8746 401.108 86.5143 401.045 86.1633C400.982 85.8124 400.846 85.4784 400.648 85.1823C400.405 84.9061 400.092 84.7006 399.742 84.5876C399.392 84.4747 399.019 84.4584 398.66 84.5406C398.021 84.6698 397.445 85.0112 397.024 85.5094C396.672 86.0112 396.484 86.6102 396.487 87.2233C396.472 87.8643 396.6 88.5006 396.863 89.0857C397.022 89.4295 397.276 89.7214 397.594 89.9277C397.912 90.134 398.281 90.2463 398.66 90.2518V90.2518ZM398.66 90.4072C397.768 90.4624 396.88 90.2445 396.115 89.7825C395.713 89.4885 395.386 89.103 395.163 88.6578C394.94 88.2127 394.826 87.7207 394.831 87.2227C394.823 86.7185 394.919 86.2179 395.112 85.7521C395.305 85.2862 395.592 84.8649 395.954 84.5142C396.308 84.1729 396.738 83.9203 397.208 83.777C397.679 83.6338 398.176 83.604 398.66 83.69C399.543 83.8268 400.365 84.2273 401.016 84.839C401.715 85.4553 402.173 86.2997 402.308 87.2218C402.364 87.7069 402.289 88.1982 402.093 88.6451C401.896 89.092 401.584 89.4785 401.188 89.765C400.43 90.2288 399.548 90.4527 398.66 90.4072V90.4072Z" fill="black"/>
<path d="M403.685 98.5206C402.063 98.7925 400.426 98.9749 398.784 99.0669C397.903 99.1055 397.014 99.1512 396.114 99.128C395.213 99.1073 394.313 98.9892 393.44 98.9073L393.351 98.899C393.299 98.8942 393.25 98.8794 393.204 98.8554C393.159 98.8314 393.119 98.7987 393.086 98.7592C393.053 98.7197 393.029 98.674 393.013 98.625C392.998 98.5759 392.993 98.5243 392.998 98.4732L392.998 98.4662C393.123 97.5197 393.192 96.5667 393.206 95.6121C393.144 94.6155 393.286 93.6169 393.622 92.6765C394.017 91.6635 394.706 90.7913 395.599 90.1714C396.493 89.5515 397.551 89.2119 398.638 89.196C399.726 89.1801 400.793 89.4887 401.705 90.0823C402.616 90.6759 403.329 91.5276 403.754 92.5286C404.165 93.5218 404.286 94.6109 404.102 95.6698C403.996 96.7148 403.821 97.6881 403.685 98.5206ZM403.577 98.412L403.159 95.5547C403.114 94.7112 402.883 93.8882 402.482 93.1445C402.073 92.4481 401.499 91.8626 400.811 91.4391C400.123 91.0156 399.341 90.767 398.535 90.7149C397.689 90.6935 396.852 90.8925 396.107 91.2925C395.361 91.6925 394.732 92.2796 394.282 92.9962C393.81 93.783 393.598 94.6979 393.673 95.6121C393.687 96.5667 393.756 97.5197 393.881 98.4662L393.44 98.0251C394.265 97.9433 395.063 97.8253 395.861 97.8046C396.659 97.7814 397.469 97.8271 398.286 97.8657C399.929 97.9649 401.643 98.1632 403.577 98.412V98.412Z" fill="black"/>
<path d="M413.396 79.9352C413.55 83.1757 413.685 86.2865 413.756 89.3463C413.834 92.4104 413.882 95.4235 413.766 98.4662L413.357 98.0576C415.969 98.1453 418.581 98.2752 421.193 98.287C423.805 98.3132 426.418 98.2528 429.03 98.1659L428.729 98.4662C428.615 95.3712 428.533 92.2762 428.504 89.1814C428.444 86.0864 428.441 82.9914 428.471 79.8967L429.03 80.4551C426.488 80.4662 423.934 80.3399 421.351 80.2771L413.396 79.9352ZM413.318 79.8575L421.036 79.5154C423.677 79.4526 426.347 79.3266 429.03 79.3376C429.177 79.3391 429.319 79.3984 429.423 79.5029C429.528 79.6074 429.587 79.7488 429.588 79.8965C429.619 82.9913 429.615 86.0864 429.555 89.1813C429.527 92.2761 429.444 95.3711 429.33 98.4661L429.33 98.4871C429.328 98.5252 429.319 98.5626 429.304 98.5972C429.288 98.6319 429.265 98.6631 429.238 98.6891C429.21 98.7151 429.177 98.7353 429.141 98.7486C429.106 98.7619 429.068 98.768 429.03 98.7667C426.418 98.6798 423.805 98.6194 421.193 98.6454C418.581 98.6574 415.969 98.7874 413.357 98.8751C413.306 98.8768 413.254 98.8683 413.205 98.85C413.157 98.8318 413.112 98.8042 413.074 98.7687C413.037 98.7333 413.006 98.6908 412.985 98.6435C412.963 98.5963 412.951 98.5453 412.95 98.4935L412.948 98.4662C412.832 95.3187 412.88 92.1419 412.959 89.0162C413.029 85.8859 413.165 82.8067 413.318 79.8574V79.8575Z" fill="black"/>
<path d="M436.091 79.9352C436.245 83.1757 436.381 86.2865 436.451 89.3463C436.529 92.4104 436.578 95.4235 436.461 98.4662L436.052 98.0576C438.665 98.1453 441.277 98.2752 443.889 98.287C446.501 98.3132 449.113 98.2528 451.725 98.1659L451.425 98.4662C451.311 95.3712 451.228 92.2762 451.199 89.1814C451.139 86.0864 451.136 82.9914 451.166 79.8967L451.725 80.4551C449.183 80.4662 446.63 80.3399 444.046 80.2771L436.091 79.9352ZM436.014 79.8575L443.731 79.5154C446.372 79.4526 449.043 79.3266 451.725 79.3376C451.873 79.339 452.014 79.3984 452.118 79.5029C452.223 79.6074 452.282 79.7487 452.284 79.8965C452.314 82.9913 452.311 86.0864 452.251 89.1813C452.222 92.2761 452.139 95.3711 452.025 98.4661L452.025 98.4871C452.023 98.5252 452.015 98.5626 451.999 98.5973C451.983 98.6319 451.961 98.6631 451.933 98.6891C451.905 98.7151 451.872 98.7353 451.836 98.7486C451.801 98.7619 451.763 98.7681 451.725 98.7667C449.113 98.6798 446.501 98.6194 443.889 98.6454C441.277 98.6574 438.665 98.7874 436.052 98.8751C436.001 98.8768 435.949 98.8683 435.9 98.85C435.852 98.8318 435.807 98.8042 435.77 98.7687C435.732 98.7333 435.701 98.6908 435.68 98.6436C435.658 98.5963 435.646 98.5453 435.645 98.4935L435.644 98.4662C435.527 95.3187 435.576 92.1419 435.654 89.0162C435.724 85.8859 435.86 82.8067 436.014 79.8574V79.8575Z" fill="black"/>
<path d="M443.823 90.2518C444.203 90.2498 444.575 90.1407 444.896 89.9371C445.217 89.7335 445.474 89.4437 445.637 89.1007C445.905 88.5027 446.087 87.8701 446.178 87.2214C446.261 86.8745 446.271 86.5143 446.208 86.1633C446.145 85.8124 446.009 85.4783 445.811 85.1823C445.568 84.9061 445.255 84.7006 444.905 84.5876C444.555 84.4746 444.182 84.4584 443.823 84.5405C443.184 84.6698 442.608 85.0112 442.187 85.5094C441.835 86.0111 441.647 86.6101 441.65 87.2233C441.635 87.8643 441.763 88.5006 442.026 89.0857C442.185 89.4295 442.438 89.7213 442.756 89.9276C443.074 90.1339 443.444 90.2463 443.823 90.2518ZM443.823 90.4072C442.931 90.4624 442.043 90.2445 441.277 89.7825C440.876 89.4885 440.549 89.1029 440.326 88.6578C440.103 88.2126 439.989 87.7207 439.994 87.2227C439.986 86.7185 440.082 86.218 440.275 85.7521C440.468 85.2863 440.755 84.865 441.117 84.5142C441.471 84.1729 441.901 83.9203 442.371 83.777C442.841 83.6338 443.339 83.604 443.823 83.69C444.706 83.8267 445.528 84.2272 446.179 84.839C446.878 85.4552 447.336 86.2996 447.471 87.2218C447.527 87.7069 447.452 88.1981 447.256 88.645C447.059 89.0919 446.747 89.4785 446.351 89.765C445.593 90.2288 444.711 90.4527 443.823 90.4072V90.4072Z" fill="black"/>
<path d="M448.848 98.5206C447.226 98.7925 445.59 98.9749 443.947 99.0669C443.066 99.1055 442.177 99.1512 441.277 99.128C440.376 99.1073 439.476 98.9892 438.603 98.9073L438.514 98.899C438.463 98.8942 438.413 98.8794 438.368 98.8554C438.322 98.8314 438.282 98.7988 438.249 98.7592C438.216 98.7197 438.192 98.6741 438.177 98.625C438.161 98.5759 438.156 98.5243 438.161 98.4732L438.162 98.4662C438.286 97.5197 438.356 96.5667 438.369 95.6121C438.308 94.6155 438.449 93.6168 438.785 92.6765C439.181 91.6635 439.869 90.7913 440.763 90.1714C441.656 89.5515 442.714 89.2119 443.802 89.196C444.889 89.1801 445.957 89.4887 446.868 90.0823C447.779 90.6759 448.493 91.5276 448.918 92.5286C449.328 93.5218 449.449 94.6109 449.266 95.6698C449.16 96.7148 448.984 97.6881 448.848 98.5206ZM448.74 98.412L448.322 95.5547C448.277 94.7112 448.046 93.8882 447.646 93.1445C447.236 92.4481 446.662 91.8626 445.974 91.4391C445.286 91.0156 444.505 90.767 443.698 90.7149C442.852 90.6935 442.015 90.8925 441.27 91.2925C440.524 91.6925 439.895 92.2796 439.445 92.9962C438.974 93.783 438.761 94.698 438.837 95.6121C438.85 96.5667 438.919 97.5197 439.044 98.4662L438.603 98.0251C439.428 97.9433 440.226 97.8253 441.025 97.8046C441.823 97.7814 442.632 97.8271 443.45 97.8657C445.092 97.9649 446.806 98.1632 448.74 98.412Z" fill="black"/>
<path d="M324.26 142.019L323.958 143.74L325.68 144.042L325.982 142.321L324.26 142.019Z" fill="black"/>
<path d="M387.386 154.833L383.958 154.234L384.258 152.513L387.686 153.112L387.386 154.833ZM380.529 153.635L377.1 153.036L377.401 151.315L380.829 151.914L380.529 153.635ZM373.672 152.436L370.244 151.837L370.545 150.116L373.973 150.715L373.672 152.436ZM366.815 151.238L363.387 150.637L363.689 148.916L367.117 149.517L366.815 151.238ZM359.96 150.038L356.532 149.438L356.832 147.718L360.26 148.317L359.96 150.038ZM353.103 148.839L349.675 148.24L349.976 146.519L353.404 147.118L353.103 148.839ZM346.246 147.641L342.818 147.041L343.119 145.321L346.547 145.92L346.246 147.641ZM339.39 146.441L335.962 145.841L336.262 144.12L339.69 144.72L339.39 146.441ZM332.534 145.242L329.105 144.643L329.406 142.922L332.834 143.521L332.534 145.242Z" fill="black"/>
<path d="M391.119 153.71L390.817 155.431L392.539 155.733L392.841 154.012L391.119 153.71Z" fill="black"/>
<path d="M318.623 148.021L318.258 149.732L319.968 150.097L320.333 148.387L318.623 148.021Z" fill="black"/>
<path d="M379.93 162.871L376.599 162.161L376.964 160.45L380.295 161.16L379.93 162.871ZM373.269 161.452L369.937 160.742L370.301 159.031L373.633 159.742L373.269 161.452ZM366.607 160.032L363.276 159.323L363.639 157.613L366.97 158.321L366.607 160.032ZM359.943 158.613L356.612 157.903L356.978 156.192L360.309 156.902L359.943 158.613ZM353.282 157.193L349.951 156.484L350.314 154.774L353.645 155.482L353.282 157.193ZM346.62 155.774L343.288 155.064L343.652 153.353L346.984 154.063L346.62 155.774ZM339.957 154.355L336.626 153.645L336.991 151.934L340.322 152.645L339.957 154.355ZM333.294 152.935L329.963 152.225L330.329 150.514L333.659 151.224L333.294 152.935ZM326.632 151.516L323.301 150.806L323.666 149.095L326.997 149.805L326.632 151.516Z" fill="black"/>
<path d="M383.627 161.869L383.262 163.579L384.972 163.945L385.337 162.234L383.627 161.869Z" fill="black"/>
<path d="M324.01 158.098C326.996 158.268 329.955 158.766 332.832 159.585C335.729 160.328 338.535 161.393 341.196 162.758C338.21 162.591 335.251 162.092 332.374 161.271C329.478 160.523 326.673 159.459 324.01 158.098V158.098Z" fill="black"/>
</g>
<defs>
<clipPath id="clip0">
<rect width="700" height="550" fill="white"/>
</clipPath>
</defs>
</svg>
