<svg width="1200" height="800" viewBox="0 0 1200 800" fill="none" xmlns="http://www.w3.org/2000/svg">
<path d="M464.343 414.98L458.841 430.57H458.382C457.465 427.055 455.784 421.705 453.032 415.285L423.532 341.152H394.643V459.307H413.749V386.396C413.749 381.811 413.749 376.614 413.596 370.194C413.443 366.984 413.138 364.538 412.985 362.704H413.443C414.361 367.29 415.431 370.652 416.195 372.792L451.657 459.001H465.108L500.264 372.028C501.028 370.041 501.792 366.067 502.557 362.704H503.015C502.557 371.417 502.251 379.212 502.098 383.95V458.848H522.427V340.846H494.608L464.343 414.98ZM541.687 374.168H561.558V458.848H541.687V374.168ZM551.775 338.4C548.412 338.4 545.661 339.623 543.368 341.763C541.075 343.903 539.853 346.654 539.853 350.017C539.853 353.227 541.075 355.978 543.368 358.118C545.661 360.258 548.412 361.328 551.775 361.328C555.138 361.328 558.042 360.105 560.182 358.118C562.475 355.978 563.698 353.227 563.698 350.017C563.698 346.807 562.475 344.056 560.182 341.763C558.195 339.623 555.291 338.4 551.775 338.4V338.4ZM632.023 373.404C628.354 372.639 624.533 372.181 620.864 372.181C611.846 372.181 603.592 374.168 596.714 378.142C589.835 382.116 584.333 387.619 580.817 394.497C577.149 401.529 575.314 409.63 575.314 418.954C575.314 427.055 577.149 434.239 580.664 440.812C584.18 447.231 589.071 452.428 595.644 455.944C601.911 459.46 609.248 461.294 617.502 461.294C626.979 461.294 635.08 459.307 641.5 455.638L641.652 455.485V437.143L640.888 437.755C637.984 439.894 634.621 441.729 631.258 442.799C627.743 444.022 624.533 444.633 621.782 444.633C613.833 444.633 607.566 442.34 603.134 437.296C598.548 432.405 596.255 425.679 596.255 417.272C596.255 408.56 598.548 401.681 603.286 396.637C608.025 391.593 614.292 388.995 621.934 388.995C628.354 388.995 634.927 391.135 640.888 395.414L641.652 396.026V376.614L641.5 376.461C638.901 375.391 635.997 374.168 632.023 373.404V373.404ZM697.596 372.792C692.705 372.792 688.12 374.321 684.145 377.531C680.783 380.282 678.49 384.256 676.503 388.995H676.35V374.168H656.479V458.848H676.35V415.591C676.35 408.254 677.878 402.14 681.241 397.707C684.604 393.122 688.884 390.829 694.081 390.829C695.915 390.829 697.749 391.287 700.042 391.593C702.182 392.204 703.711 392.816 704.781 393.58L705.545 394.192V374.321L705.086 374.168C703.711 373.251 700.959 372.792 697.596 372.792V372.792ZM751.706 372.334C737.797 372.334 726.638 376.461 718.843 384.562C710.895 392.663 707.073 403.821 707.073 417.884C707.073 431.029 711.047 441.729 718.69 449.524C726.333 457.167 736.727 461.141 749.719 461.141C763.323 461.141 774.176 457.014 781.971 448.76C789.919 440.506 793.741 429.501 793.741 415.897C793.741 402.446 790.072 391.746 782.582 383.95C775.398 376.155 764.852 372.334 751.706 372.334V372.334ZM767.603 437.449C763.934 442.187 758.126 444.48 750.942 444.48C743.758 444.48 737.95 442.187 733.823 437.143C729.695 432.405 727.708 425.526 727.708 416.814C727.708 407.795 729.848 400.917 733.823 396.026C737.95 391.135 743.605 388.689 750.789 388.689C757.82 388.689 763.323 390.982 767.297 395.72C771.271 400.459 773.411 407.337 773.411 416.355C773.106 425.526 771.424 432.71 767.603 437.449V437.449ZM838.068 409.324C831.801 406.725 827.827 404.738 825.993 403.057C824.464 401.529 823.7 399.389 823.7 396.637C823.7 394.344 824.617 392.052 826.91 390.523C829.203 388.995 831.801 388.23 835.622 388.23C838.985 388.23 842.501 388.842 845.863 389.759C849.226 390.676 852.283 392.052 854.729 393.886L855.493 394.497V375.849L855.035 375.696C852.742 374.779 849.685 373.862 846.016 373.098C842.348 372.487 838.985 372.181 836.234 372.181C826.757 372.181 818.961 374.474 812.847 379.518C806.733 384.256 803.829 390.676 803.829 398.166C803.829 402.14 804.44 405.656 805.816 408.56C807.192 411.464 809.179 414.215 811.93 416.508C814.682 418.648 818.656 421.094 824.158 423.386C828.744 425.374 832.26 426.902 834.399 428.125C836.539 429.348 837.915 430.723 838.985 431.793C839.749 433.016 840.208 434.545 840.208 436.532C840.208 442.187 835.928 444.939 827.215 444.939C823.853 444.939 820.337 444.327 816.21 442.952C812.083 441.576 808.262 439.589 805.052 437.296L804.288 436.685V456.097L804.746 456.25C807.65 457.625 811.166 458.543 815.446 459.612C819.726 460.377 823.547 460.988 826.91 460.988C837.151 460.988 845.558 458.695 851.519 453.651C857.633 448.76 860.843 442.493 860.843 434.392C860.843 428.736 859.314 423.692 855.952 419.871C851.519 416.202 846.016 412.381 838.068 409.324V409.324ZM913.271 372.334C899.362 372.334 888.204 376.461 880.408 384.562C872.613 392.663 868.639 403.821 868.639 417.884C868.639 431.029 872.613 441.729 880.255 449.524C887.898 457.167 898.292 461.141 911.284 461.141C924.888 461.141 935.741 457.014 943.536 448.76C951.485 440.506 955.306 429.501 955.306 415.897C955.306 402.446 951.637 391.746 944.148 383.95C936.964 376.155 926.417 372.334 913.271 372.334V372.334ZM929.015 437.449C925.347 442.187 919.538 444.48 912.354 444.48C905.017 444.48 899.362 442.187 895.235 437.143C891.108 432.405 889.121 425.526 889.121 416.814C889.121 407.795 891.261 400.917 895.235 396.026C899.362 391.135 905.017 388.689 912.202 388.689C919.08 388.689 924.735 390.982 928.71 395.72C932.684 400.459 934.824 407.337 934.824 416.355C934.824 425.526 932.837 432.71 929.015 437.449V437.449ZM1061.54 390.523V374.168H1041.51V349.1L1040.9 349.253L1021.95 354.908L1021.49 355.061V374.168H991.532V363.468C991.532 358.577 992.755 354.756 994.895 352.31C997.035 349.864 1000.24 348.642 1004.22 348.642C1006.97 348.642 1009.87 349.253 1013.08 350.629L1013.85 351.087V333.815L1013.39 333.662C1010.64 332.745 1006.97 332.133 1002.23 332.133C996.27 332.133 991.073 333.509 986.335 335.802C981.597 338.4 978.081 341.916 975.482 346.654C972.884 351.24 971.508 356.437 971.508 362.398V374.168H957.599V390.37H971.508V458.848H991.532V390.523H1021.49V434.086C1021.49 451.97 1029.9 460.988 1046.71 460.988C1049.46 460.988 1052.37 460.53 1055.12 460.071C1058.02 459.46 1060.16 458.695 1061.39 458.084L1061.54 457.931V441.576L1060.77 442.187C1059.55 442.952 1058.48 443.563 1056.65 444.022C1055.12 444.48 1053.74 444.633 1052.67 444.633C1048.7 444.633 1045.95 443.716 1043.96 441.423C1042.13 439.283 1041.21 435.767 1041.21 430.57V390.523H1061.54Z" fill="#737373"/>
<path d="M138.461 301.41H232.16V395.109H138.461V301.41Z" fill="#F25022"/>
<path d="M241.943 301.41H335.642V395.109H241.943V301.41Z" fill="#7FBA00"/>
<path d="M138.461 404.891H232.16V498.59H138.461V404.891Z" fill="#00A4EF"/>
<path d="M241.943 404.891H335.642V498.59H241.943V404.891Z" fill="#FFB900"/>
</svg>
